if (_typeface_js && _typeface_js.loadFace) _typeface_js.loadFace({"glyphs":{"0":{"ha":751,"x_min":-114,"x_max":767,"o":"m -114 262 q 9 594 -114 414 q 192 793 85 707 q 536 935 366 935 q 706 863 645 935 q 767 663 767 791 q 689 361 767 513 q 475 104 607 202 q 157 -4 329 -4 q -46 66 21 -4 q -114 262 -114 136 m 173 581 q 157 557 173 581 q 125 473 141 534 q 109 350 109 413 q 145 251 109 287 q 241 215 182 215 q 348 235 299 215 q 441 289 396 255 q 527 370 487 323 q 596 468 566 416 q 660 684 648 549 q 604 813 652 770 q 505 841 548 841 q 411 820 462 841 q 318 762 360 799 q 241 676 276 726 q 173 581 205 627 z "},"1":{"ha":478,"x_min":-37,"x_max":604,"o":"m 45 3 q 27 12 45 3 q -14 54 8 20 q -37 130 -37 87 q -18 213 -37 173 q 32 298 1 254 q 105 389 64 342 q 193 485 146 437 q 286 581 239 533 q 376 675 333 629 q 492 823 455 758 q 205 663 381 745 q 103 629 123 629 q 71 645 83 629 q 50 671 58 660 q 28 719 36 692 q 444 892 214 778 q 533 939 492 916 q 597 890 572 931 q 604 859 604 879 q 577 790 604 839 q 510 677 551 742 q 422 535 469 613 q 334 368 375 456 q 234 -20 237 161 q 182 -22 208 -22 q 119 -18 156 -22 q 45 3 83 -15 z "},"2":{"ha":704,"x_min":-225,"x_max":750,"o":"m 599 24 q 383 50 522 50 q -87 -18 138 50 q -113 -23 -101 -23 q -141 -17 -125 -23 q -170 9 -156 -10 q -225 113 -225 49 q -205 192 -225 169 q -130 240 -186 215 q -16 294 -75 264 q 114 358 43 324 q 254 430 184 393 q 391 509 325 468 q 508 593 457 550 q 621 770 621 687 q 538 850 621 836 q 485 854 516 854 q 413 846 454 854 q 333 825 372 838 q 247 790 295 811 q 175 751 199 769 q 123 675 123 711 q 168 616 123 640 q 137 584 151 591 q 113 576 123 576 q 81 581 104 576 q 38 596 59 586 q -13 656 -13 623 q 11 722 -13 690 q 75 788 34 755 q 181 848 117 822 q 302 892 246 873 q 528 934 423 934 q 697 879 637 934 q 750 753 750 830 q 472 385 750 576 q 195 227 350 300 q 309 233 261 233 q 388 232 357 233 q 451 227 419 231 q 561 206 517 220 q 621 172 605 191 q 639 125 639 149 q 599 24 639 75 z "},"3":{"ha":656,"x_min":-125,"x_max":766,"o":"m 574 494 q 664 312 664 420 q 610 153 664 225 q 479 33 557 81 q 41 -75 308 -75 q -100 -12 -56 -75 q -125 62 -125 25 q -121 122 -125 100 q -58 121 -95 121 q 41 127 -20 121 q 170 150 102 133 q 294 194 237 168 q 438 330 411 249 q 445 370 445 348 q 435 416 445 391 q 234 367 325 367 q 184 427 205 367 q 169 509 169 474 q 445 585 308 528 q 604 696 555 632 q 626 754 630 730 q 611 796 623 779 q 581 822 600 812 q 500 840 547 840 q 408 829 453 840 q 320 800 362 818 q 243 758 279 781 q 113 662 138 713 q 104 633 104 644 q 106 614 104 622 q 72 589 87 589 q 45 595 57 589 q 24 613 33 602 q 1 666 1 639 q 31 732 1 692 q 114 804 60 772 q 206 855 168 836 q 343 912 244 874 q 544 934 433 934 q 710 889 654 934 q 766 762 766 844 q 650 555 766 662 q 574 494 615 523 z "},"4":{"ha":845,"x_min":-73,"x_max":887,"o":"m 854 342 q 646 357 807 357 l 617 357 q 588 356 603 357 q 470 -22 490 149 q 413 -25 437 -25 q 358 -23 389 -25 q 293 -9 327 -22 q 221 93 221 17 q 338 336 221 183 q 113 290 203 319 q 81 283 94 283 q 53 286 68 283 q 18 302 37 289 q -17 334 -1 315 q -43 374 -33 353 q -73 456 -64 414 q 502 804 138 614 q 785 939 669 890 q 849 890 824 931 q 857 862 857 879 q 839 807 857 844 q 794 721 822 770 q 730 613 766 672 q 657 488 694 555 q 887 410 887 478 q 854 342 887 384 m 155 471 q 189 473 167 472 q 254 476 210 473 q 464 487 345 483 q 553 585 509 536 q 638 678 598 633 q 741 814 709 762 q 319 589 614 775 q 155 471 208 519 z "},"5":{"ha":623,"x_min":-110,"x_max":780,"o":"m 361 843 l 327 708 q 575 463 525 619 q 591 352 591 414 q 563 229 591 290 q 484 121 535 167 q 197 24 374 24 q -82 119 -8 24 q -96 150 -96 136 q -103 202 -96 164 q -100 270 -110 239 q -45 376 -82 323 q 152 300 71 300 q 314 338 252 300 q 389 427 378 378 q 297 568 389 494 q 219 625 258 600 q 170 661 181 651 q 202 760 170 686 q 249 864 235 835 q 291 939 281 928 q 323 952 301 949 q 377 956 345 955 q 572 960 431 960 l 652 959 q 779 964 760 959 q 780 950 780 958 q 779 929 780 943 q 766 868 777 915 q 723 827 750 827 q 551 833 662 827 q 409 840 440 839 q 361 843 378 842 z "},"6":{"ha":659,"x_min":-66,"x_max":745,"o":"m 194 530 q 369 554 296 554 q 492 532 443 554 q 569 459 541 511 q 598 339 598 408 q 568 209 598 271 q 486 99 538 147 q 205 -8 368 -8 q -50 149 3 -8 q -66 257 -66 199 q -52 371 -66 314 q -9 484 -37 427 q 56 597 18 541 q 140 702 94 652 q 239 795 186 752 q 349 868 292 838 q 583 935 469 935 q 719 894 666 935 q 745 855 745 873 q 719 801 745 833 q 684 760 692 768 q 558 833 629 833 q 429 803 488 833 q 338 749 370 772 q 194 530 237 649 m 156 396 q 152 353 152 379 q 161 302 152 328 q 190 258 171 277 q 299 215 231 215 q 410 259 364 215 q 453 349 453 302 q 329 437 453 437 q 156 396 250 437 z "},"7":{"ha":551,"x_min":-106,"x_max":751,"o":"m 99 766 q 39 848 39 791 q 106 915 39 884 q 275 936 173 936 q 671 908 511 936 q 732 894 709 902 q 751 808 747 886 q 751 792 751 800 q 405 556 552 718 q 217 252 281 421 q 173 47 173 136 q 176 7 173 26 q 85 -1 112 -1 q 30 -1 58 -1 q -34 12 1 -1 q -106 119 -106 39 q 12 393 -106 243 q 298 650 119 529 q 608 825 436 758 q 367 837 475 837 q 99 766 120 840 z "},"8":{"ha":686,"x_min":-139,"x_max":747,"o":"m 497 545 q 614 350 614 441 q 482 100 614 200 q 145 0 350 0 q -56 61 23 0 q -139 230 -139 125 q 111 496 -139 385 q 254 555 181 528 q 176 634 197 605 q 135 736 135 690 q 162 820 135 783 q 236 882 189 857 q 481 934 332 934 q 667 886 591 934 q 747 754 747 834 q 592 587 747 662 q 497 545 547 565 m 414 613 q 559 676 520 652 q 609 712 597 700 q 618 744 620 724 q 602 784 616 765 q 565 814 587 802 q 476 838 521 838 q 399 830 431 838 q 340 810 367 823 q 294 754 309 786 q 319 696 294 724 q 414 613 356 658 m 194 411 q 173 396 194 411 q 136 357 153 382 q 119 309 119 333 q 126 269 119 286 q 150 241 134 253 q 232 215 182 215 q 317 228 283 215 q 374 260 351 241 q 412 338 421 301 q 379 408 403 376 q 321 471 355 439 q 194 411 234 439 z "},"9":{"ha":628,"x_min":-229,"x_max":604,"o":"m 361 425 q 207 383 275 383 q 100 397 138 383 q 38 435 62 411 q -9 561 -9 482 q 96 808 -9 689 q 256 917 163 884 q 361 934 304 934 q 466 913 419 934 q 543 856 513 893 q 604 647 604 781 q 528 345 604 496 q 136 -2 395 84 q -35 -33 45 -33 q -150 -15 -115 -33 q -229 121 -229 26 q -224 165 -229 142 q -218 165 -221 165 q 256 325 54 165 q 361 425 317 372 m 189 552 q 242 545 212 545 q 306 552 273 545 q 368 569 338 558 q 473 623 432 591 q 485 700 485 665 q 476 762 485 735 q 450 807 468 788 q 342 848 413 848 q 191 776 259 848 q 125 637 125 707 q 189 552 125 573 z "},"\r":{"ha":694,"x_min":0,"x_max":0,"o":""},"\u0000":{"ha":694,"x_min":0,"x_max":0,"o":""},"\u0002":{"ha":0,"x_min":0,"x_max":0,"o":""},"\t":{"ha":0,"x_min":0,"x_max":0,"o":""},"\n":{"ha":0,"x_min":0,"x_max":0,"o":""}," ":{"ha":499,"x_min":0,"x_max":0,"o":""},"!":{"ha":688,"x_min":122,"x_max":824,"o":"m 226 277 q 359 689 262 509 q 426 790 393 751 q 492 864 459 830 q 562 925 524 897 q 720 990 649 990 q 788 951 756 990 q 824 852 824 907 q 755 762 824 807 q 684 720 724 742 q 599 671 643 699 q 511 609 555 644 q 430 528 467 574 q 321 279 345 422 q 299 276 315 279 q 267 273 283 274 q 226 277 226 268 m 162 -42 q 151 -34 162 -42 q 131 -10 140 -26 q 122 30 122 6 q 138 80 122 54 q 182 127 155 106 q 311 174 243 174 q 409 146 378 174 q 439 74 439 119 q 361 -20 439 23 q 228 -59 289 -59 q 162 -42 185 -59 z "},"\"":{"ha":721,"x_min":271,"x_max":770,"o":"m 543 688 q 565 777 552 712 q 586 876 577 842 q 610 937 595 910 q 696 998 643 998 q 750 976 730 998 q 770 924 770 954 q 759 867 770 895 q 730 811 748 839 q 691 756 713 783 q 650 711 670 730 q 585 666 604 666 q 560 675 574 666 q 543 688 546 684 m 378 710 q 368 700 378 710 q 340 678 357 690 q 317 666 323 666 q 305 668 311 666 q 293 673 299 670 q 271 688 277 682 q 293 777 281 712 q 315 876 306 842 q 339 937 324 910 q 425 998 372 998 q 479 976 459 998 q 499 924 499 954 q 488 867 499 895 q 459 811 477 839 q 420 756 441 783 q 378 710 399 730 z "},"#":{"ha":690,"x_min":-75,"x_max":867,"o":"m 191 252 q 50 -3 83 -3 q -75 23 -7 -3 q 51 258 -41 74 q -46 285 -39 266 q -44 390 -59 321 q 109 376 -2 382 q 191 552 151 464 q 54 582 62 559 q 56 676 43 614 q 241 661 98 667 q 359 961 346 901 l 376 956 q 420 930 420 941 q 347 658 420 873 q 578 655 460 655 q 688 961 674 898 l 705 956 q 749 930 749 941 q 686 657 749 869 q 867 667 817 660 l 867 650 q 856 594 867 597 q 656 564 813 577 q 593 370 627 467 q 790 381 733 373 l 790 361 q 778 296 790 300 q 744 288 766 292 q 693 279 722 283 q 555 264 628 270 q 423 -3 456 -3 q 298 23 359 -3 q 409 256 321 59 q 265 252 319 252 q 191 252 211 252 m 538 555 q 308 549 433 549 q 240 372 272 452 q 459 369 346 369 l 538 555 z "},"$":{"ha":667,"x_min":-66,"x_max":805,"o":"m 214 2 q 89 -173 119 -173 q 5 -114 49 -173 q 105 33 33 -89 q -21 152 25 72 q -66 344 -66 232 q -36 370 -66 357 q -22 375 -28 374 q 66 269 1 314 q 204 215 127 228 q 361 532 279 359 q 294 603 311 578 q 260 700 260 652 q 283 786 260 748 q 345 854 307 825 q 540 929 425 913 q 601 1094 591 1055 q 656 1063 656 1076 q 622 933 656 1034 q 733 911 693 930 q 789 874 773 892 q 805 841 805 857 q 797 813 805 825 q 778 793 789 802 q 730 766 756 775 q 637 839 705 812 q 593 851 615 847 q 492 597 551 741 q 611 496 579 534 q 677 340 677 420 q 615 163 677 245 q 459 43 558 89 q 257 0 364 0 q 214 2 235 0 m 418 653 q 505 848 477 783 q 382 773 414 827 q 370 730 370 753 q 418 653 370 693 m 321 215 q 459 313 427 235 q 471 370 471 341 q 433 462 471 418 q 321 215 365 306 z "},"%":{"ha":591,"x_min":-170,"x_max":742,"o":"m -170 33 q 112 290 -93 87 q 605 827 414 589 q 690 941 655 890 q 725 917 709 935 q 742 895 742 899 q 583 648 742 853 q 251 256 442 465 q -37 -22 60 48 q -81 -46 -70 -46 q -106 -37 -93 -46 q -132 -15 -119 -27 q -170 33 -163 15 m 394 578 q 377 562 394 578 q 314 528 359 546 q 228 511 269 511 q 162 521 187 511 q 119 550 136 532 q 81 636 81 587 q 97 723 81 685 q 139 793 113 761 q 279 879 197 860 q 298 895 286 892 q 328 897 311 897 q 370 890 345 897 q 419 862 395 882 q 471 760 471 819 q 450 655 471 701 q 394 578 429 610 m 254 640 q 325 679 290 640 q 363 751 359 718 q 329 829 369 809 q 242 775 274 812 q 211 688 211 737 q 254 640 211 640 m 418 402 q 439 428 425 425 q 479 430 457 430 q 532 421 501 430 q 591 389 564 413 q 647 243 647 338 q 564 54 647 134 q 361 -26 480 -26 q 236 15 281 -26 q 192 134 192 56 q 258 293 192 212 q 418 402 323 375 m 350 191 q 397 135 350 135 q 468 173 433 135 q 510 271 510 220 q 485 330 510 308 q 361 244 396 317 q 350 191 350 220 z "},"&":{"ha":863,"x_min":-60,"x_max":994,"o":"m 473 71 q 237 -1 344 -1 q 26 67 108 -1 q -60 260 -60 138 q 110 480 -60 385 q 302 567 203 532 q 461 622 401 602 q 669 909 541 839 q 757 934 715 934 q 822 926 798 934 q 861 903 845 918 q 896 831 896 874 q 874 755 896 788 q 814 694 852 722 q 623 598 751 648 q 622 552 622 583 q 654 364 622 454 q 819 547 783 452 q 833 545 826 546 q 847 540 841 543 q 861 514 861 533 q 850 466 861 495 q 821 404 840 437 q 714 264 779 333 q 781 233 748 233 q 840 238 814 233 q 890 252 865 243 q 969 294 945 271 q 994 260 994 283 q 974 208 994 245 q 932 144 953 171 q 883 91 911 117 q 821 44 856 64 q 642 -1 743 -1 q 473 71 541 -1 m 631 681 q 811 815 811 749 q 777 863 811 853 q 750 866 767 866 q 712 852 732 866 q 675 812 691 838 q 631 681 644 762 m 281 454 q 259 439 281 454 q 220 398 238 424 q 201 333 201 372 q 231 268 201 294 q 306 242 260 242 q 399 252 351 242 q 398 263 398 257 l 398 275 q 432 527 398 394 q 281 454 323 485 z "},"'":{"ha":450,"x_min":271,"x_max":499,"o":"m 378 710 q 368 700 378 710 q 340 678 357 690 q 317 666 323 666 q 305 668 311 666 q 293 673 299 670 q 271 688 277 682 q 293 777 281 712 q 315 876 306 842 q 339 937 324 910 q 425 998 372 998 q 479 976 459 998 q 499 924 499 954 q 488 867 499 895 q 459 811 477 839 q 420 756 441 783 q 378 710 399 730 z "},"(":{"ha":195,"x_min":-77,"x_max":827,"o":"m -49 -121 q -55 -112 -49 -121 q -69 -75 -61 -102 q -77 11 -77 -47 q -53 158 -77 68 q 12 338 -29 247 q 109 519 53 429 q 231 691 165 610 q 367 843 296 773 q 509 964 438 913 q 779 1074 663 1074 q 823 1028 811 1074 q 827 1005 826 1016 q 555 882 700 1005 q 310 585 422 769 q 149 218 199 404 q 119 24 119 104 q 134 -111 119 -56 q 42 -153 100 -140 q 8 -158 24 -158 q -22 -149 -7 -158 q -49 -121 -37 -139 z "},")":{"ha":290,"x_min":-245,"x_max":451,"o":"m 331 1059 q 372 1071 355 1071 q 410 1055 402 1071 q 446 924 440 987 q 451 814 451 861 q 443 687 451 767 q 406 501 434 608 q 337 294 378 395 q 243 104 296 193 q 130 -53 191 14 q -132 -199 -2 -199 q -212 -149 -174 -199 q -245 -79 -243 -108 q 17 87 -115 -50 q 228 397 137 212 q 359 892 359 664 q 331 1059 359 989 z "},"*":{"ha":337,"x_min":-85,"x_max":478,"o":"m 279 694 q 386 602 345 635 q 358 572 376 582 q 311 564 326 555 q 212 625 272 585 q 139 474 163 503 q 93 454 122 454 q 66 462 77 454 q 118 616 90 522 q -35 556 -18 556 q -61 563 -53 556 q -75 578 -70 569 q -85 612 -85 596 q 100 710 -2 654 q -1 842 -1 795 q 37 899 -1 869 q 59 914 47 908 q 167 798 71 888 q 197 962 197 925 q 215 962 203 962 q 243 960 227 962 q 269 949 258 958 q 288 909 288 935 q 271 805 288 873 q 443 914 404 881 q 478 858 478 880 q 382 753 478 813 q 279 694 336 724 z "},"+":{"ha":406,"x_min":-103,"x_max":500,"o":"m 283 429 q 498 446 420 433 q 500 420 500 434 q 467 361 500 375 q 244 324 405 338 q 142 95 176 151 q 75 68 125 68 q 48 73 55 68 q 63 122 54 94 q 82 180 72 149 q 102 246 92 212 q 124 316 113 280 q 21 314 70 314 q -103 393 -103 314 q -94 447 -103 416 q 157 428 -32 428 q 212 688 217 636 q 231 688 218 688 q 264 685 245 688 q 299 675 284 683 q 330 611 330 659 q 283 429 330 564 z "},",":{"ha":562,"x_min":-16,"x_max":439,"o":"m 182 -10 q 163 42 163 11 q 176 97 163 73 q 210 137 189 120 q 318 174 258 174 q 409 146 378 174 q 439 78 439 119 q 420 0 439 37 q 369 -74 401 -38 q 295 -140 336 -109 q 210 -195 254 -172 q 46 -245 115 -245 q -7 -195 21 -245 q -16 -174 -14 -183 q 151 -50 85 -113 q 182 -10 174 -27 z "},"-":{"ha":360,"x_min":-62,"x_max":406,"o":"m -44 446 q 151 428 64 428 q 348 435 301 428 q 400 438 395 443 q 406 419 406 433 q 388 387 406 405 q 342 353 371 369 q 276 325 313 338 q 200 304 239 313 q 61 286 119 286 q -57 346 -35 286 q -62 375 -62 361 q -44 446 -62 415 z "},".":{"ha":562,"x_min":122,"x_max":439,"o":"m 162 -42 q 151 -34 162 -42 q 131 -10 140 -26 q 122 30 122 6 q 138 80 122 54 q 182 127 155 106 q 311 174 243 174 q 409 146 378 174 q 439 74 439 119 q 362 -20 439 23 q 228 -59 291 -59 q 162 -42 185 -59 z "},"/":{"ha":781,"x_min":9,"x_max":911,"o":"m 859 1094 q 911 1064 911 1076 q 891 1011 911 1053 q 837 909 871 970 q 756 769 802 847 q 657 606 710 692 q 548 432 605 521 q 436 261 492 344 q 330 104 381 178 q 237 -23 279 31 q 124 -141 148 -141 q 31 -100 87 -141 q 9 -82 16 -90 q 470 513 117 14 q 767 946 685 817 q 859 1094 848 1075 z "},":":{"ha":562,"x_min":122,"x_max":551,"o":"m 334 325 q 322 334 334 325 q 301 360 311 343 q 292 398 292 376 q 309 444 292 420 q 350 487 326 467 q 444 530 404 530 q 500 510 472 530 q 551 437 551 471 q 500 350 551 395 q 400 306 448 306 q 334 325 357 306 m 162 -42 q 151 -34 162 -42 q 131 -10 140 -26 q 122 30 122 6 q 138 80 122 54 q 182 127 155 106 q 311 174 243 174 q 409 146 378 174 q 439 74 439 119 q 362 -20 439 23 q 228 -59 291 -59 q 162 -42 185 -59 z "},";":{"ha":562,"x_min":-16,"x_max":551,"o":"m 334 325 q 322 334 334 325 q 301 360 311 343 q 292 398 292 376 q 309 444 292 420 q 350 487 326 467 q 444 530 404 530 q 500 510 472 530 q 551 437 551 471 q 500 350 551 395 q 400 306 448 306 q 334 325 357 306 m 182 -10 q 163 42 163 11 q 176 97 163 73 q 210 137 189 120 q 318 174 258 174 q 409 146 378 174 q 439 78 439 119 q 420 0 439 37 q 369 -74 401 -38 q 295 -140 336 -109 q 210 -195 254 -172 q 46 -245 115 -245 q -7 -195 21 -245 q -16 -174 -14 -183 q 151 -50 85 -113 q 182 -10 174 -27 z "},"<":{"ha":256,"x_min":-82,"x_max":545,"o":"m -2 226 q -19 245 -2 226 q -60 300 -37 264 q -82 356 -82 335 q -60 403 -82 377 q -1 460 -38 429 q 83 524 35 490 q 181 591 130 558 q 282 653 231 623 q 375 704 332 682 q 491 753 468 753 q 536 713 511 753 q 545 699 543 705 q 386 598 496 676 q 240 494 275 521 q 177 445 204 467 q 117 384 116 395 q 131 355 118 372 q 165 319 144 339 q 268 232 204 281 q 415 126 332 183 q 384 74 412 105 q 310 15 332 15 q 249 34 288 15 q 166 82 210 52 q 78 150 122 113 q -2 226 34 188 z "},"=":{"ha":455,"x_min":-91,"x_max":558,"o":"m -37 562 q 239 543 31 543 q 555 561 448 543 q 558 544 558 551 q 557 528 558 536 q 552 506 557 519 q 522 470 542 479 q 199 425 441 435 q 77 422 134 422 q -45 505 -45 422 q -37 562 -45 530 m -82 313 q 194 294 -14 294 q 510 311 402 294 q 513 294 513 301 q 512 277 513 286 q 507 256 511 269 q 476 220 497 229 q 32 173 344 173 q -91 255 -91 173 q -82 313 -91 281 z "},">":{"ha":302,"x_min":-271,"x_max":372,"o":"m 191 431 q -56 718 191 477 q -25 745 -42 737 q 1 753 -8 753 q 31 741 9 753 q 80 710 52 730 q 141 664 109 690 q 206 608 174 637 q 269 548 239 578 q 321 488 298 517 q 372 391 372 425 q 135 168 372 328 q -111 27 -9 71 q -155 15 -140 15 q -189 28 -170 15 q -224 60 -208 41 q -271 136 -258 99 q 57 325 -165 184 q 191 431 191 410 z "},"?":{"ha":766,"x_min":122,"x_max":936,"o":"m 454 772 q 462 746 462 757 q 450 724 462 736 q 419 701 438 713 q 328 673 374 673 q 228 765 228 673 q 313 916 228 838 q 513 1036 391 987 q 741 1085 636 1085 q 921 997 876 1085 q 936 928 936 967 q 917 852 936 890 q 866 778 897 815 q 794 705 834 741 q 711 635 753 669 q 629 570 669 602 q 557 511 589 539 q 487 418 487 450 q 524 359 487 376 q 610 380 563 342 q 624 368 619 378 q 616 341 629 357 q 576 308 603 326 q 518 279 549 291 q 408 256 458 256 q 328 265 359 256 q 274 291 297 274 q 224 379 224 328 q 250 472 224 431 q 320 549 277 513 q 418 616 363 585 q 530 676 473 647 q 643 735 588 706 q 741 795 698 764 q 837 935 837 864 q 809 998 837 975 q 740 1020 782 1020 q 655 1012 699 1020 q 568 989 611 1004 q 485 955 525 975 q 415 911 445 935 q 348 804 348 859 q 454 772 348 715 m 162 -42 q 151 -34 162 -42 q 131 -10 140 -26 q 122 30 122 6 q 138 80 122 54 q 182 127 155 106 q 311 174 243 174 q 409 146 378 174 q 439 74 439 119 q 361 -20 439 23 q 228 -59 289 -59 q 162 -42 185 -59 z "},"@":{"ha":830,"x_min":-71,"x_max":895,"o":"m 610 275 q 640 230 610 230 q 699 249 669 230 q 753 300 729 268 q 808 462 808 373 q 751 590 808 545 q 604 631 699 631 q 359 570 489 631 q 140 411 226 506 q 47 195 47 305 q 81 75 47 123 q 329 -34 156 -34 q 449 -20 388 -34 q 454 -65 471 -51 q 414 -93 437 -80 q 364 -114 390 -105 q 252 -130 314 -130 q 130 -112 190 -130 q 25 -56 70 -93 q -71 160 -71 22 q 35 408 -71 281 q 294 604 136 527 q 616 684 457 684 q 875 557 815 684 q 895 460 895 515 q 883 359 895 406 q 848 270 870 312 q 793 193 825 228 q 722 132 761 157 q 545 77 641 77 q 450 119 474 77 q 442 155 441 134 q 281 77 372 77 q 184 114 220 77 q 149 197 149 149 q 164 281 149 245 q 206 352 179 318 q 270 415 233 386 q 351 465 307 444 q 545 510 446 510 q 593 488 580 510 q 598 496 596 492 q 606 506 601 500 q 679 513 624 527 q 610 275 610 349 m 310 279 q 319 241 310 252 q 352 230 328 230 q 406 251 377 230 q 462 304 434 272 q 563 444 500 350 q 376 389 447 441 q 310 279 310 340 z "},"A":{"ha":1337,"x_min":-33,"x_max":1434,"o":"m 955 469 q 682 591 762 566 q 477 186 509 382 q 473 122 473 154 q 479 57 473 90 q 339 -18 411 7 q 298 -26 314 -26 q 266 -18 283 -26 q 236 7 250 -10 q 203 108 203 45 q 226 235 203 171 q 289 366 249 300 q 498 621 364 490 q 388 625 443 625 q 273 610 333 625 q 155 500 179 584 q 150 461 150 485 q 166 399 150 437 q 103 378 153 374 q 22 406 52 383 q -33 502 -33 450 q 110 665 -33 604 q 408 722 218 722 q 593 701 492 722 q 1115 1010 848 912 q 1343 1058 1244 1058 q 1412 1037 1389 1058 q 1434 985 1434 1017 q 1418 907 1434 954 q 1376 803 1401 860 q 1322 680 1351 745 q 1268 545 1293 614 q 1210 275 1210 386 q 1281 195 1210 195 q 1326 205 1301 195 q 1347 181 1339 196 q 1355 156 1355 167 q 1347 125 1355 145 q 1322 84 1338 104 q 1285 44 1307 63 q 1236 10 1263 25 q 1022 -7 1137 -46 q 886 125 926 25 q 865 242 865 176 q 886 366 865 308 q 944 486 906 424 q 1019 594 981 548 q 1101 688 1057 640 q 1188 778 1145 736 q 1255 844 1230 820 q 1320 941 1316 908 q 1301 954 1320 957 q 1035 878 1177 954 q 750 669 874 799 q 973 551 950 583 q 955 469 1000 516 z "},"B":{"ha":1013,"x_min":-106,"x_max":1021,"o":"m 811 565 q 964 319 964 467 q 860 98 964 186 q 481 -18 721 -18 q 151 50 302 -18 q -50 216 2 116 q -106 357 -106 302 q -52 393 -106 378 q 117 279 -23 334 q 233 441 160 336 q 345 605 345 604 q 416 721 354 613 q 543 936 479 829 q 594 956 567 960 l 605 954 l 624 949 l 647 937 l 651 923 l 650 907 l 533 697 q 632 655 596 661 q 713 660 667 649 q 798 690 760 670 q 885 802 885 736 q 686 972 885 932 q 534 994 610 992 q 392 982 458 995 q 272 949 321 968 q 151 817 161 903 q 208 688 151 740 q 110 622 146 622 q 31 667 68 622 q -6 770 -6 714 q 17 867 -6 825 q 81 942 41 909 q 173 1000 121 975 q 285 1040 226 1024 q 491 1072 399 1072 q 644 1064 583 1072 q 761 1040 705 1057 q 864 1000 817 1024 q 947 942 911 975 q 1021 773 1021 871 q 955 632 1021 696 q 811 565 896 574 m 274 234 q 402 218 353 218 q 485 221 451 218 q 558 234 519 223 q 627 264 598 245 q 689 380 689 307 q 616 496 689 451 q 445 542 550 538 q 400 458 422 500 q 356 376 378 416 q 274 234 310 292 z "},"C":{"ha":867,"x_min":-81,"x_max":943,"o":"m 747 857 q 780 909 780 886 q 749 933 765 930 q 694 938 734 936 q 577 925 654 939 q 445 878 499 910 q 346 806 391 845 q 230 681 300 766 q 177 463 177 583 q 262 262 177 341 q 489 181 330 181 q 743 249 652 181 q 829 345 793 289 q 890 309 890 336 q 883 282 890 298 q 742 95 829 154 q 342 -37 564 -37 q 100 22 205 -37 q -58 212 -13 85 q -81 351 -81 277 q -61 492 -81 426 q -6 620 -41 557 q 79 739 30 682 q 186 846 127 796 q 310 936 245 896 q 445 1005 376 977 q 746 1066 589 1066 q 926 991 878 1066 q 943 933 943 966 q 932 877 943 901 q 907 837 922 854 q 845 802 874 802 q 763 843 818 802 q 747 857 751 852 z "},"D":{"ha":1128,"x_min":-22,"x_max":1187,"o":"m 625 1099 q 1187 665 1187 1077 q 1093 349 1187 505 q 833 89 996 187 q 441 -19 656 -19 q 111 71 254 -19 q -21 304 -16 157 q -22 315 -22 309 q -19 329 -22 321 q -9 343 -16 336 q 31 360 4 354 q 165 258 98 268 q 281 426 211 317 q 394 596 351 535 q 480 714 437 657 q 688 1007 608 947 q 749 1008 708 1027 q 767 998 760 1004 q 644 784 715 923 q 537 578 572 644 q 468 448 502 513 q 341 221 383 287 q 428 218 374 218 q 557 241 483 218 q 700 304 632 264 q 826 397 768 344 q 927 510 884 450 q 1019 759 1019 638 q 609 1005 1019 1005 q 358 959 470 990 q 184 823 184 905 q 241 694 184 747 q 143 629 180 629 q 71 681 102 629 q 39 790 39 732 q 64 888 39 847 q 132 961 90 929 q 230 1014 174 992 q 393 1069 285 1036 q 625 1099 484 1092 z "},"E":{"ha":856,"x_min":-68,"x_max":941,"o":"m 693 310 q 726 267 726 279 q 667 148 726 212 q 401 -6 571 45 q 284 -18 353 -18 q 147 1 216 -18 q 30 57 78 21 q -68 254 -68 131 q 92 557 -68 439 q 415 686 241 667 q 329 842 329 745 q 486 1018 329 936 q 770 1069 637 1080 q 928 981 888 1050 q 941 931 941 958 q 934 881 941 905 q 915 839 927 858 q 848 796 886 796 q 792 823 825 796 q 780 835 784 830 q 810 919 810 870 q 744 975 791 968 q 604 949 672 972 q 485 853 485 911 q 627 701 459 766 q 762 663 685 679 q 728 554 736 564 q 717 546 720 545 q 522 579 620 579 q 273 502 367 579 q 195 349 195 439 q 254 244 195 285 q 411 203 313 203 q 693 310 567 218 z "},"F":{"ha":833,"x_min":-17,"x_max":989,"o":"m 805 1009 q 818 998 805 1009 q 846 943 832 987 q 859 847 859 900 q 829 694 859 793 q 970 661 906 682 q 989 616 989 654 q 988 599 989 608 q 794 591 890 589 q 549 180 709 373 q 312 -12 433 43 q 180 -40 249 -40 q 81 -23 111 -40 q 31 20 51 -7 q -6 139 -6 74 q 7 250 -6 203 q 40 336 21 297 q 116 447 76 410 q 193 434 140 469 q 175 347 175 386 q 240 235 175 235 q 535 437 380 243 q 629 583 595 514 q 432 562 479 570 q 400 535 410 549 q 357 597 357 566 q 392 651 357 627 q 675 706 471 706 l 687 706 q 699 705 693 706 q 747 853 747 810 q 723 920 747 897 q 660 959 699 943 q 472 988 584 988 q 224 954 347 988 q 146 867 157 913 q 172 783 146 831 q 70 740 132 740 q 10 789 39 740 q -17 870 -17 834 q 10 939 -17 907 q 81 995 37 970 q 167 1043 125 1019 q 241 1070 210 1067 q 441 1090 359 1090 q 570 1086 523 1090 q 660 1072 617 1082 q 740 1047 703 1063 q 805 1009 777 1031 z "},"G":{"ha":1008,"x_min":-24,"x_max":1096,"o":"m 1013 608 q 1020 519 1020 573 q 995 398 1020 465 q 924 268 969 330 q 818 153 879 206 q 685 60 756 100 q 376 -24 532 -24 q 4 177 90 -24 q -24 321 -24 244 q -4 466 -24 399 q 55 596 17 532 q 144 732 92 661 q 250 857 195 804 q 375 954 304 909 q 519 1029 445 998 q 832 1074 690 1074 q 1091 953 1091 1074 q 1040 879 1091 918 q 878 952 971 917 q 743 953 795 958 q 651 935 691 947 q 551 897 611 922 q 437 825 492 871 q 343 720 383 779 q 256 470 256 600 q 320 275 256 340 q 503 210 384 210 q 682 252 589 210 q 876 437 836 323 q 899 532 896 482 q 638 469 768 469 q 463 533 509 469 q 446 583 446 555 q 466 631 446 610 q 517 681 485 653 q 590 723 549 709 q 674 747 631 737 q 833 768 763 768 q 973 692 943 749 q 1065 739 1010 718 q 1096 692 1096 712 q 1077 663 1096 685 q 1013 608 1057 641 m 867 631 q 825 675 863 661 q 638 642 724 675 q 596 607 596 625 q 701 583 596 568 q 867 631 805 583 z "},"H":{"ha":1189,"x_min":-51,"x_max":1345,"o":"m 814 137 q 909 489 815 281 q 777 530 841 507 q 650 571 713 552 q 340 42 519 209 q 121 -58 232 -58 q -39 109 -3 -37 q -51 208 -51 153 q -35 325 -51 263 q 11 445 -19 387 q 76 546 41 504 q 166 628 111 588 q 434 714 288 714 q 583 695 498 714 q 699 1072 685 920 q 766 1042 747 1061 q 747 872 782 1027 q 696 666 727 779 q 956 602 882 615 q 1156 985 1057 813 q 1218 1068 1190 1034 q 1247 1078 1227 1078 q 1278 1074 1267 1078 q 1316 1052 1295 1068 q 1145 722 1243 961 q 1093 585 1116 652 q 1145 583 1119 583 q 1197 585 1171 583 q 1164 480 1193 530 q 1122 465 1152 465 q 1058 469 1093 465 q 1034 352 1034 389 q 1036 293 1034 315 q 1046 254 1038 271 q 1105 215 1063 215 q 1248 308 1182 215 q 1296 368 1274 335 q 1345 338 1345 366 q 1311 258 1345 311 q 1247 167 1278 205 q 1181 94 1217 129 q 1109 31 1146 58 q 972 -29 1029 -29 q 814 137 814 -29 m 131 355 q 218 224 119 262 q 435 426 334 269 q 535 599 496 516 q 415 610 484 610 q 311 597 346 610 q 208 541 275 584 q 131 355 131 463 z "},"I":{"ha":725,"x_min":-40,"x_max":792,"o":"m 348 911 q 338 908 348 911 q 316 878 328 905 q 304 825 304 852 q 331 760 304 798 q 252 719 309 735 q 223 715 237 715 q 194 729 210 715 q 166 764 178 743 q 139 841 139 809 q 160 902 139 873 q 217 955 182 931 q 299 998 253 979 q 393 1029 345 1017 q 591 1056 494 1056 q 792 854 792 1056 q 680 445 792 683 q 407 64 562 197 q 184 -34 292 -34 q 16 37 76 -34 q -40 208 -40 102 q 37 401 -40 302 q 108 464 81 460 q 156 462 135 468 q 138 384 138 414 q 146 329 138 353 q 168 288 153 305 q 255 249 201 249 q 358 281 309 249 q 454 366 406 313 q 545 485 501 418 q 621 620 588 551 q 686 836 686 741 q 610 954 690 935 q 555 958 583 958 q 500 955 527 958 q 445 945 473 952 q 392 928 418 939 q 348 911 367 918 z "},"J":{"ha":604,"x_min":-214,"x_max":659,"o":"m 147 790 q 170 745 151 767 q 107 715 143 715 q 24 749 61 712 q -9 824 -9 793 q 12 885 -9 855 q 67 942 33 916 q 149 989 102 968 q 246 1025 195 1010 q 430 1056 351 1056 q 550 1044 509 1056 q 615 1006 591 1031 q 659 861 659 960 q 642 669 659 762 q 597 480 626 576 q 527 290 568 385 q 437 108 486 195 q 332 -53 388 22 q 216 -181 276 -127 q -27 -298 88 -298 q -161 -247 -108 -298 q -214 -135 -214 -197 q -192 -20 -214 -72 q -133 80 -171 33 q -42 167 -94 127 q 73 238 11 208 q 346 312 204 302 q 538 726 490 528 q 557 841 555 794 q 530 915 559 887 q 435 943 500 943 q 254 909 349 943 q 147 790 147 861 m 20 52 q 47 21 20 21 q 216 142 106 21 q 284 225 250 180 q 89 151 163 203 q 20 52 20 102 z "},"K":{"ha":859,"x_min":-245,"x_max":1013,"o":"m 897 1063 q 987 977 991 1047 q 715 727 987 902 q 459 582 605 656 q 503 505 484 557 q 533 418 522 453 q 558 350 545 384 q 588 286 572 316 q 626 231 604 255 q 760 214 673 180 q 878 260 811 214 q 983 363 943 304 q 1013 338 1013 366 q 975 247 1013 307 q 904 150 937 186 q 832 81 871 113 q 752 27 794 50 q 584 -21 661 -21 q 462 -3 507 -21 q 387 44 417 14 q 338 114 356 75 q 311 198 321 154 q 296 287 300 241 q 287 374 291 333 q 257 510 276 475 q 202 486 223 496 q 154 358 178 420 q 107 239 129 296 q 65 134 85 182 q 24 52 44 86 q -50 -22 -17 -22 q -211 9 -123 -22 q -245 26 -235 18 q -136 177 -201 64 q -26 372 -71 290 q 64 541 18 455 q 154 709 109 626 q 237 860 198 791 q 362 1048 324 1014 q 465 1048 384 1068 q 485 1035 475 1043 q 296 665 408 930 q 678 840 500 732 q 859 991 797 923 q 897 1063 888 1029 z "},"L":{"ha":916,"x_min":-83,"x_max":1061,"o":"m 116 26 q 21 9 48 9 q -22 18 -5 9 q -53 41 -39 26 q -83 103 -83 72 q -70 157 -83 135 q -36 197 -57 180 q 54 233 11 233 q 127 229 98 233 q 303 438 214 288 q 379 576 342 504 q 455 719 416 648 q 536 852 494 789 q 627 964 578 916 q 861 1069 734 1069 q 1014 1012 961 1069 q 1061 877 1061 960 q 958 629 1061 745 q 825 531 895 559 q 759 517 789 517 q 709 532 728 517 q 665 627 665 566 q 671 660 665 646 q 704 658 686 658 q 750 663 722 658 q 811 684 778 669 q 868 715 844 700 q 914 759 893 731 q 941 859 941 800 q 886 956 941 928 q 832 965 868 965 q 761 944 796 965 q 700 893 726 924 q 653 812 673 862 q 611 704 634 762 q 562 590 587 646 q 516 475 537 534 q 474 363 496 416 q 429 270 453 311 q 330 165 391 173 q 663 88 503 111 q 722 83 696 83 q 770 88 747 83 q 814 103 794 93 q 878 163 861 125 q 926 126 926 160 q 916 59 926 93 q 887 -7 905 24 q 845 -65 869 -38 q 790 -112 820 -92 q 664 -154 728 -154 q 549 -142 600 -154 q 454 -111 498 -130 q 369 -70 410 -92 q 288 -27 328 -47 q 116 26 193 20 z "},"M":{"ha":1567,"x_min":-89,"x_max":1635,"o":"m 714 943 q 590 967 661 967 q 413 917 486 963 q 319 766 319 850 q 378 617 319 691 q 297 557 352 582 q 267 551 282 551 q 231 560 251 551 q 195 587 211 570 q 160 683 160 627 q 180 786 160 739 q 233 874 199 833 q 312 949 267 916 q 408 1006 357 982 q 616 1056 515 1056 q 785 1019 718 1056 q 943 637 943 935 q 939 469 954 580 q 1375 840 1044 567 q 1445 899 1421 876 q 1506 1021 1482 992 q 1587 1080 1559 1080 q 1625 1066 1615 1080 q 1635 1040 1635 1053 q 1628 1014 1635 1027 q 1610 985 1621 1000 q 1561 924 1588 954 q 1494 190 1494 560 q 1385 9 1494 58 q 1278 -12 1335 -12 q 1128 29 1191 -12 q 1090 66 1104 45 q 1307 483 1164 128 q 1393 740 1345 592 l 1253 610 q 895 200 1009 355 q 853 61 885 120 q 805 -10 824 7 q 777 -28 787 -28 q 642 10 713 -28 q 571 81 571 48 q 655 223 571 126 q 702 274 678 250 q 810 682 806 503 q 807 754 810 706 q 778 855 803 802 q 502 304 679 570 q 246 40 377 117 q 111 0 178 0 q 0 21 43 0 q -89 170 -89 65 q -54 294 -89 237 q -12 338 -35 324 q 173 273 80 273 q 445 423 310 273 q 657 815 564 555 q 714 943 688 883 z "},"N":{"ha":1046,"x_min":-79,"x_max":1038,"o":"m 900 199 q 935 195 916 195 q 979 205 954 195 q 1000 181 991 196 q 1008 156 1008 167 q 999 125 1008 145 q 975 84 991 104 q 938 44 960 63 q 889 10 916 25 q 675 -7 790 -46 q 538 125 579 25 q 518 236 518 176 q 536 340 518 295 q 583 428 554 385 q 650 512 612 471 q 726 592 687 553 q 783 654 764 631 q 838 724 802 676 q 891 853 891 798 q 829 943 891 924 q 779 943 810 949 q 712 920 747 938 q 627 865 677 902 q 522 774 578 828 q 428 675 466 720 q 317 496 389 631 q 203 107 203 273 q 204 71 203 88 q 136 24 184 48 q 22 -18 45 -18 q -18 -9 -1 -18 q -47 18 -34 0 q -79 124 -79 60 q -59 257 -79 188 q -7 399 -38 326 q 60 544 24 471 q 127 685 96 617 q 192 916 200 843 q 183 1004 192 981 q 142 1048 166 1044 q 191 1094 144 1094 q 271 1059 238 1094 q 320 902 320 1008 q 308 739 320 794 q 547 964 397 841 q 844 1069 674 1067 q 1025 949 984 1057 q 1038 864 1038 913 q 1024 768 1038 814 q 989 678 1010 722 q 943 591 968 634 q 898 500 919 547 q 848 281 848 391 q 900 199 848 216 z "},"O":{"ha":890,"x_min":-111,"x_max":967,"o":"m 967 804 q 910 642 967 712 q 913 626 913 633 q 809 300 899 456 q 580 57 722 150 q 269 -41 431 -41 q -3 53 101 -41 q -111 319 -111 150 q 5 679 -111 503 q 294 949 115 844 q 663 1057 475 1057 q 878 994 797 1057 q 967 804 967 926 m 776 553 q 692 533 735 524 q 649 551 665 533 q 615 597 623 578 q 772 747 742 662 q 788 821 788 783 q 737 915 780 892 q 624 937 694 937 q 495 916 553 937 q 401 869 437 895 q 323 807 366 844 q 227 684 281 771 q 173 459 173 588 q 230 266 173 330 q 393 201 288 201 q 669 321 540 201 q 776 553 750 420 z "},"P":{"ha":931,"x_min":-55,"x_max":1047,"o":"m 199 681 q 100 615 137 615 q 28 667 60 615 q -3 777 -3 719 q 24 877 -3 834 q 97 954 52 920 q 200 1015 142 987 q 320 1058 257 1042 q 533 1088 448 1088 q 675 1081 618 1088 q 787 1055 733 1074 q 888 1011 840 1036 q 971 949 935 985 q 1047 755 1047 871 q 971 507 1047 634 q 781 304 898 385 q 531 219 657 219 q 378 241 404 224 q 347 284 354 266 q 334 339 340 302 q 359 495 334 401 q 500 471 408 475 q 630 479 593 467 q 705 513 667 491 q 778 564 743 534 q 840 631 812 594 q 899 783 899 711 q 865 890 899 854 q 781 954 831 925 q 541 1002 684 1002 q 290 952 418 1002 q 170 872 209 917 q 150 810 150 844 q 199 681 142 733 m -55 45 q 26 172 -20 81 q 106 329 73 262 q 176 465 140 395 q 251 604 212 535 q 328 734 289 673 q 503 1001 409 871 q 527 1005 517 1005 q 561 1001 536 1005 q 606 974 589 989 q 391 547 494 833 q 340 386 365 466 q 293 231 316 305 q 248 99 271 156 q 162 -26 200 -26 q -26 22 42 -26 q -55 45 -43 35 z "},"Q":{"ha":1044,"x_min":-14,"x_max":1144,"o":"m 580 -31 q 377 -77 469 -77 q 215 -56 284 -77 q 94 9 145 -34 q -14 269 -14 100 q 98 633 -14 445 q 387 943 210 823 q 782 1073 578 1073 q 974 1017 905 1073 q 1054 848 1039 964 q 841 467 1054 660 q 643 334 741 376 q 677 225 636 310 q 837 377 774 276 q 926 495 873 442 q 966 498 946 503 q 981 485 975 495 q 977 406 987 474 q 933 281 967 338 q 752 73 866 165 q 1046 -167 917 -167 q 1126 -149 1086 -167 q 1144 -179 1144 -168 q 1135 -203 1144 -190 q 1103 -239 1126 -216 q 1047 -281 1079 -262 q 890 -328 971 -328 q 580 -31 692 -328 m 523 172 q 477 431 477 341 q 800 602 672 477 q 922 828 915 716 q 838 941 922 920 q 753 950 808 950 q 631 928 699 950 q 506 866 564 906 q 415 786 448 826 q 334 683 381 747 q 260 387 260 553 q 320 223 260 277 q 485 169 379 169 q 523 172 504 169 z "},"R":{"ha":1213,"x_min":-104,"x_max":1196,"o":"m -104 195 q -88 315 -104 247 q -40 456 -72 383 q 36 602 -9 528 q 133 745 81 675 q 258 880 184 814 q 411 990 332 946 q 762 1084 580 1084 q 1044 996 930 1084 q 1139 768 1139 909 q 1050 517 1139 633 q 840 353 968 411 q 894 239 876 267 q 963 185 930 185 q 1016 191 997 185 q 1072 218 1036 197 q 1147 301 1120 254 q 1196 272 1196 299 q 1162 187 1196 247 q 1114 108 1127 127 q 1075 66 1101 89 q 1007 16 1049 43 q 819 -42 915 -42 q 617 233 617 -42 q 620 309 617 271 q 473 389 520 318 q 452 450 458 418 q 182 58 295 168 q 45 -15 106 -15 q -63 41 -22 -15 q -104 195 -104 96 m 102 293 q 128 244 105 244 q 378 597 171 244 q 574 897 475 743 q 684 892 595 934 q 701 882 696 886 q 570 682 663 823 q 639 700 612 703 q 682 680 666 697 q 715 637 698 662 q 787 517 745 595 q 935 633 871 550 q 1001 806 1001 720 q 738 954 996 954 q 396 835 547 954 q 195 613 272 737 q 107 351 127 480 q 102 293 102 318 m 642 557 q 612 600 636 600 q 583 590 587 600 q 576 573 578 580 q 575 555 574 567 q 592 522 576 543 q 637 493 608 502 q 642 557 642 534 z "},"S":{"ha":768,"x_min":-54,"x_max":956,"o":"m 21 49 q -42 168 -31 104 q -54 292 -54 232 q -47 359 -54 351 q -33 372 -41 366 q 2 387 -18 381 q 182 216 32 256 q 279 202 230 202 q 367 211 328 202 q 433 237 405 219 q 495 360 495 278 q 446 499 495 422 q 400 567 425 533 q 355 635 376 600 q 305 771 305 714 q 321 865 305 827 q 365 933 337 903 q 429 991 393 963 q 509 1034 465 1019 q 696 1065 597 1065 q 845 1041 790 1065 q 928 986 900 1017 q 956 935 956 955 q 950 902 956 916 q 935 876 944 889 q 895 836 914 850 q 741 929 848 911 q 678 936 717 936 q 600 926 639 936 q 532 899 562 917 q 477 800 477 861 q 494 740 477 767 q 540 688 511 713 q 605 625 570 663 q 675 542 640 587 q 757 336 757 437 q 719 160 757 235 q 616 37 681 86 q 292 -64 488 -64 q 21 49 126 -64 z "},"T":{"ha":746,"x_min":-39,"x_max":1071,"o":"m 23 165 q 44 235 23 202 q 101 300 66 268 q 182 366 136 332 q 277 437 228 399 q 374 521 326 476 q 463 623 422 566 q 557 888 544 745 q 293 853 363 873 q 186 814 222 834 q 149 762 149 793 q 154 710 149 730 q 165 673 159 690 q 177 644 172 657 q 182 621 182 631 q 136 581 182 603 q 74 562 94 562 q 37 575 55 562 q 3 612 20 589 q -39 718 -39 667 q -13 806 -39 770 q 57 868 13 842 q 159 912 100 895 q 285 942 218 930 q 421 962 351 954 q 559 975 492 969 q 686 986 626 981 q 792 999 746 991 q 897 1042 892 1015 q 912 1093 903 1069 q 935 1135 922 1116 q 996 1175 963 1175 q 1050 1142 1029 1175 q 1071 1075 1071 1110 q 1055 1018 1071 1039 q 1009 981 1038 997 q 943 950 981 965 q 856 923 906 936 q 680 897 782 910 q 679 851 679 878 q 671 770 679 823 q 653 669 663 716 q 632 563 644 623 q 612 452 621 504 q 574 298 593 343 q 530 212 555 254 q 475 134 505 171 q 411 64 445 96 q 342 8 377 32 q 207 -43 267 -43 q 85 26 147 -43 q 23 165 23 94 z "},"U":{"ha":957,"x_min":-45,"x_max":1031,"o":"m 873 151 q 897 121 897 135 q 887 89 897 108 q 859 50 876 70 q 812 9 841 29 q 755 -28 783 -12 q 650 -64 698 -64 q 570 -48 602 -64 q 495 98 495 -11 q 500 153 495 124 q 366 46 458 96 q 147 -14 256 -14 q -31 98 12 -14 q -45 188 -45 135 q -19 301 -45 241 q 44 420 6 360 q 120 541 82 480 q 196 663 158 601 q 281 900 279 807 q 220 1016 282 994 q 264 1055 229 1055 q 322 1042 299 1055 q 362 1004 346 1028 q 396 870 396 953 q 315 589 396 767 q 233 332 233 410 q 295 253 233 253 q 562 410 399 253 q 833 776 726 566 q 937 1072 911 932 q 954 1073 946 1073 q 1031 1025 1031 1076 q 965 800 1031 954 q 904 663 937 734 q 843 522 871 592 q 777 270 777 362 q 809 167 777 203 q 873 151 841 132 z "},"V":{"ha":969,"x_min":-39,"x_max":1093,"o":"m 895 1052 q 977 1088 922 1076 q 1047 1090 1031 1101 q 1074 1061 1063 1079 q 1093 971 1093 1025 q 1076 854 1093 918 q 1028 725 1058 791 q 959 591 998 659 q 876 460 920 524 q 787 335 832 395 q 699 221 741 274 q 622 125 657 168 q 562 50 586 81 q 425 -75 500 -75 q 307 -26 376 -75 q 236 66 236 24 q 288 148 236 102 q 311 166 301 160 q 427 509 382 292 q 452 734 452 631 q 371 928 441 867 q 298 956 338 956 q 224 937 257 956 q 162 887 191 919 q 109 758 120 834 q 178 617 109 684 q 98 557 153 582 q 67 551 83 551 q 32 560 52 551 q -5 587 12 570 q -39 680 -39 627 q -25 779 -39 733 q 16 865 -10 824 q 76 942 41 907 q 150 1004 111 977 q 312 1059 234 1059 q 443 1030 389 1059 q 536 952 497 1002 q 600 837 575 903 q 653 511 653 698 q 646 379 653 444 q 820 620 739 499 q 929 924 929 782 q 895 1052 929 1004 z "},"W":{"ha":1364,"x_min":-17,"x_max":1444,"o":"m 779 -20 q 625 176 625 -20 q 650 366 625 265 q 259 25 462 115 q 114 -7 187 -7 q -1 69 27 -7 q -10 130 -10 92 q 3 225 -10 169 q 39 338 17 281 q 89 453 61 395 q 147 567 117 511 q 204 673 176 622 q 293 893 293 833 q 220 953 293 953 q 75 882 138 953 q 41 843 54 860 q -17 890 -17 868 q -4 932 -17 913 q 30 969 8 951 q 78 1003 51 987 q 136 1031 106 1019 q 249 1056 199 1056 q 252 1056 251 1056 q 416 966 376 1056 q 436 868 436 924 q 426 755 436 812 q 400 636 416 697 q 368 522 383 576 q 328 363 328 388 q 368 309 328 309 q 522 427 425 309 q 733 734 638 550 q 790 880 757 792 q 832 991 823 968 q 855 1027 842 1015 q 884 1047 869 1040 q 944 1057 907 1059 q 985 1039 980 1055 q 984 999 989 1023 q 941 897 973 952 q 879 433 879 640 q 927 268 879 268 q 1100 395 1011 268 q 1273 713 1211 536 q 1316 923 1316 835 q 1282 1059 1316 1012 q 1346 1092 1310 1083 q 1398 1090 1382 1101 q 1424 1061 1414 1079 q 1444 969 1444 1026 q 1428 835 1444 912 q 1382 675 1411 758 q 1312 510 1352 593 q 1223 349 1272 426 q 1120 204 1175 271 q 1008 87 1065 137 q 779 -20 884 -20 z "},"X":{"ha":808,"x_min":-288,"x_max":928,"o":"m 8 993 q 57 1067 19 1067 q 321 922 212 1067 q 419 753 383 840 q 476 611 455 667 q 665 958 612 790 q 686 1053 684 1010 q 765 1054 725 1061 q 785 1004 785 1041 q 775 920 785 966 q 733 796 766 873 q 529 465 663 636 q 600 299 572 345 q 650 233 627 252 q 700 214 673 214 q 758 226 727 214 q 819 260 789 239 q 898 334 859 275 q 928 275 928 336 q 912 224 928 264 q 863 140 895 184 q 774 48 831 95 q 513 -20 644 -50 q 322 122 382 -20 q 290 218 303 166 q -200 1 33 1 q -288 115 -288 1 q -255 283 -288 185 q -127 256 -186 256 q -22 267 -68 256 q 71 297 24 277 q 257 407 163 336 q 241 545 248 475 q 223 681 233 615 q 193 794 212 746 q 151 887 174 842 q 8 993 99 983 z "},"Y":{"ha":860,"x_min":-20,"x_max":1154,"o":"m 146 906 q 121 964 110 926 q 181 1027 132 1000 q 305 1057 237 1057 q 428 1023 374 1057 q 524 925 483 988 q 632 584 610 797 q 706 692 669 637 q 781 800 743 747 q 858 899 819 852 q 937 986 897 947 q 1106 1101 1024 1071 q 1113 1103 1109 1103 q 1122 1101 1117 1103 q 1135 1094 1128 1099 q 1154 1066 1150 1082 q 873 699 1000 962 q 802 545 836 623 q 735 391 768 467 q 666 244 701 314 q 590 116 630 175 q 503 12 550 56 q 273 -81 401 -81 q 49 49 134 -81 q -8 173 3 118 q -20 243 -20 227 q -15 264 -20 258 q -1 276 -9 271 q 34 291 14 286 q 102 225 52 254 q 210 194 156 194 q 404 291 303 194 q 469 622 469 441 q 429 854 471 756 q 290 963 376 963 q 146 906 203 963 z "},"Z":{"ha":827,"x_min":-208,"x_max":981,"o":"m 731 37 q 519 60 665 60 q 37 13 275 60 q -70 5 -35 -1 q -118 11 -106 11 q -147 19 -131 11 q -178 50 -163 28 q -208 168 -208 96 q -183 256 -208 229 q -78 301 -163 277 q 74 355 8 324 q 212 419 140 385 q 358 491 283 453 q 502 568 432 528 q 633 649 572 608 q 740 732 694 690 q 827 863 827 811 q 787 928 827 911 q 668 951 744 946 q 539 952 591 957 q 414 938 486 948 q 317 918 342 927 q 269 884 291 909 q 197 817 197 848 q 242 762 197 786 q 198 735 221 732 q 152 744 174 739 q 109 760 130 749 q 58 823 58 786 q 82 894 58 861 q 148 954 106 927 q 250 1006 189 981 q 343 1038 311 1032 q 643 1064 524 1069 q 817 1045 762 1059 q 909 1005 872 1031 q 981 867 981 955 q 619 458 981 707 q 258 240 460 348 q 701 218 557 264 q 752 65 831 174 q 731 37 741 50 z "},"[":{"ha":494,"x_min":-79,"x_max":741,"o":"m -79 -159 q 71 312 -79 -16 q 359 854 199 597 q 511 1059 455 1010 q 565 1072 525 1072 q 627 1070 606 1072 q 671 1066 648 1069 q 741 1045 741 1057 q 714 968 741 1025 q 563 975 634 979 q 294 388 484 900 q 150 -75 193 108 q 236 -90 185 -86 q 302 -93 287 -94 q 243 -227 268 -224 q 197 -230 227 -230 q 132 -228 168 -230 q 58 -219 96 -225 q -9 -205 21 -214 q -79 -159 -79 -186 z "},"\\":{"ha":689,"x_min":176,"x_max":492,"o":"m 176 1119 q 227 1130 207 1130 q 382 571 267 1130 q 487 -31 460 191 q 492 -99 492 -79 q 486 -130 492 -118 q 464 -150 479 -142 q 355 -168 433 -166 q 357 -123 357 -150 q 354 -43 357 -97 q 341 101 351 12 q 319 294 332 191 q 291 502 307 397 q 260 706 276 606 q 228 890 243 806 q 176 1119 193 1072 z "},"]":{"ha":413,"x_min":-238,"x_max":503,"o":"m -157 -244 q -172 -242 -157 -244 q -209 -236 -188 -241 q -234 -226 -231 -232 q -238 -176 -238 -220 q -221 -85 -238 -132 q -94 -84 -138 -91 q 147 376 -35 -9 q 390 974 347 799 q 237 983 354 981 q 257 1053 245 1037 q 282 1072 269 1069 q 315 1075 294 1074 q 361 1076 336 1076 q 412 1074 386 1076 q 503 1051 503 1068 q 484 948 503 1034 q 444 785 465 862 q 399 626 424 709 q 348 459 374 543 q 293 294 321 376 q 237 137 264 212 q 184 -2 210 62 q 136 -117 159 -67 q 69 -237 90 -221 q -4 -250 52 -250 q -93 -248 -61 -250 q -157 -244 -125 -247 z "},"^":{"ha":337,"x_min":-141,"x_max":437,"o":"m 69 291 q 37 271 69 291 q -27 236 5 251 q -70 220 -60 220 q -91 226 -81 220 q -111 239 -100 231 q -141 271 -135 258 q 0 381 -80 313 q 114 482 80 450 q 203 591 191 557 q 263 578 254 586 q 374 349 300 471 q 437 271 411 289 q 408 235 426 248 q 376 222 389 222 q 337 237 362 222 q 287 275 312 252 q 198 385 239 319 q 69 291 133 330 z "},"_":{"ha":867,"x_min":-26,"x_max":867,"o":"m 0 84 l 867 84 l 841 0 l -26 0 l 0 84 z "},"`":{"ha":814,"x_min":372,"x_max":621,"o":"m 597 716 q 589 711 597 716 q 569 706 581 706 q 536 715 558 706 q 491 741 514 725 q 447 778 469 757 q 408 821 425 798 q 372 910 372 871 q 411 964 372 935 q 473 991 448 991 q 568 810 499 912 q 621 747 601 761 q 597 716 613 727 z "},"a":{"ha":761,"x_min":-12,"x_max":916,"o":"m 401 109 q 174 0 308 0 q 39 51 90 0 q -12 183 -12 101 q 70 385 -12 287 q 294 554 149 479 q 545 619 427 616 q 622 602 599 619 q 655 628 640 624 q 677 631 669 631 q 732 624 703 631 q 721 594 730 615 q 703 534 712 572 q 682 461 694 496 q 638 276 638 338 q 677 215 638 215 q 789 260 727 215 q 885 363 844 302 q 916 338 916 366 q 887 268 916 315 q 833 186 859 220 q 774 118 806 151 q 705 58 741 85 q 545 0 623 0 q 412 60 446 0 q 401 92 401 78 q 401 109 401 106 m 207 294 q 273 215 207 215 q 444 332 345 215 q 529 448 496 395 q 583 531 562 501 q 316 450 413 530 q 207 294 225 378 z "},"b":{"ha":667,"x_min":-29,"x_max":821,"o":"m 279 547 q 456 600 370 600 q 629 496 593 600 q 640 416 640 464 q 571 230 640 313 q 684 277 635 239 q 791 363 732 315 q 821 338 821 366 q 814 312 821 328 q 189 -1 686 -1 l 187 -1 q 36 53 96 -1 q -29 218 -29 112 q 208 688 -29 348 q 380 915 309 833 q 433 937 399 937 q 486 910 469 937 q 279 547 347 691 m 202 347 q 193 275 193 304 q 211 226 193 246 q 257 206 229 206 q 314 216 285 206 q 371 243 343 226 q 424 282 399 260 q 468 332 449 305 q 509 439 509 389 q 481 474 498 457 q 421 503 454 503 q 353 489 387 503 q 288 451 318 475 q 202 347 233 416 z "},"c":{"ha":585,"x_min":41,"x_max":739,"o":"m 564 470 q 472 497 512 497 q 400 479 433 497 q 344 432 368 461 q 292 317 292 393 q 333 228 292 260 q 436 200 370 197 q 571 247 501 204 q 694 371 642 290 q 728 313 739 366 q 712 262 728 302 q 652 164 695 222 q 551 61 608 106 q 294 -10 428 -36 q 109 50 176 -10 q 41 226 41 111 q 112 406 41 315 q 278 545 178 490 q 469 600 380 600 q 544 584 517 600 q 590 507 590 555 q 564 470 590 479 z "},"d":{"ha":812,"x_min":26,"x_max":972,"o":"m 728 215 q 834 267 771 220 q 936 363 889 309 q 966 337 967 366 q 938 267 965 314 q 884 186 910 220 q 825 118 857 151 q 755 58 792 85 q 595 0 673 0 q 463 60 496 0 q 452 109 451 80 q 288 11 394 39 q 210 1 252 1 q 135 15 169 1 q 76 52 100 28 q 26 184 26 101 q 105 376 26 277 q 305 536 183 473 q 609 614 435 602 q 680 506 682 606 q 368 438 467 506 q 288 356 317 401 q 259 269 259 311 q 311 216 244 216 q 503 336 406 216 q 582 453 537 378 q 656 577 627 529 q 715 674 685 625 q 773 770 745 724 q 858 904 842 882 q 916 938 882 938 q 972 910 954 938 q 833 661 897 793 q 743 469 768 530 q 686 274 686 332 q 728 215 686 215 z "},"e":{"ha":645,"x_min":34,"x_max":800,"o":"m 303 265 q 476 203 337 203 q 635 242 563 203 q 763 364 708 281 q 800 338 800 366 q 763 251 800 308 q 695 158 727 193 q 625 93 664 123 q 541 41 586 62 q 337 -7 444 -7 q 57 113 121 -7 q 34 212 34 156 q 53 315 34 268 q 106 404 73 361 q 187 482 140 446 q 289 544 234 518 q 527 600 406 600 q 647 545 614 600 q 659 495 659 526 q 643 433 659 463 q 600 377 627 402 q 536 334 572 353 q 460 302 500 315 q 303 265 388 277 m 285 346 q 434 394 372 356 q 501 476 500 435 q 452 517 503 517 q 337 465 387 517 q 285 346 291 406 z "},"f":{"ha":598,"x_min":-5,"x_max":753,"o":"m 75 230 q 31 326 31 284 q 44 356 31 345 q 76 380 56 368 q 170 424 112 401 q 424 788 286 633 q 644 947 565 947 q 702 914 679 947 q 725 838 725 882 q 711 753 725 793 q 671 676 696 713 q 611 603 646 638 q 535 540 576 568 q 357 463 449 479 q 454 292 430 428 q 459 232 459 255 q 459 205 459 210 q 499 200 476 200 q 555 214 523 201 q 618 250 588 228 q 722 363 675 293 q 753 338 753 366 q 727 270 753 319 q 679 188 701 221 q 631 124 657 155 q 576 68 605 93 q 462 14 513 15 q 439 16 452 14 q 321 -231 394 -133 q 139 -340 239 -340 q 27 -260 64 -340 q -5 -75 -5 -191 q 75 230 -5 42 m 604 778 q 585 812 600 810 q 548 794 570 814 q 501 739 526 774 q 411 574 450 667 q 553 667 490 598 q 604 778 609 733 m 212 87 q 205 -33 205 26 q 209 -122 205 -92 q 227 -166 212 -152 q 277 -109 251 -166 q 317 24 300 -60 q 212 87 258 47 z "},"g":{"ha":745,"x_min":-62,"x_max":900,"o":"m 659 593 q 726 621 688 621 q 764 608 748 621 q 625 289 696 500 q 593 182 606 231 q 803 296 704 189 q 859 363 836 328 q 900 338 900 366 q 884 289 900 328 q 828 200 867 250 q 741 111 789 150 q 528 10 646 36 q 389 -237 465 -154 q 170 -339 298 -339 q 11 -287 79 -339 q -62 -149 -62 -231 q -30 -81 -62 -115 q 40 -39 3 -47 q 161 -100 69 -76 q 207 -106 185 -106 q 255 -90 229 -106 q 307 -46 281 -74 q 408 102 355 6 q 192 0 310 0 q 73 51 120 0 q 26 183 26 102 q 107 385 26 287 q 313 539 186 479 q 587 601 446 601 q 659 593 635 601 m 244 294 q 310 215 244 215 q 556 430 404 215 q 587 475 567 445 q 613 522 595 490 q 354 450 450 507 q 244 294 244 389 z "},"h":{"ha":830,"x_min":34,"x_max":985,"o":"m 182 0 q 34 169 34 0 q 192 535 34 312 q 493 863 331 731 q 644 947 595 947 q 708 913 680 947 q 739 841 739 878 q 723 775 739 804 q 680 715 707 745 q 621 656 653 686 q 539 595 589 627 q 374 514 455 541 q 328 404 346 456 q 637 549 454 500 q 735 565 695 565 q 783 551 775 565 q 786 514 791 537 q 767 462 781 491 q 738 401 753 433 q 701 286 701 321 q 746 215 701 215 q 858 260 796 215 q 954 363 913 302 q 985 338 985 366 q 957 268 985 317 q 901 184 928 220 q 840 115 874 149 q 768 54 806 81 q 601 -6 681 -6 q 487 35 521 -6 q 454 153 454 76 q 564 393 454 251 q 596 439 601 439 q 439 376 542 439 q 274 235 322 304 q 241 27 246 126 q 182 0 241 0 m 418 610 q 559 708 496 652 q 614 788 609 751 q 606 821 614 808 q 586 834 598 834 q 556 819 573 834 q 514 772 538 804 q 418 610 471 711 z "},"i":{"ha":454,"x_min":33,"x_max":614,"o":"m 548 604 q 534 597 548 604 q 488 583 520 590 q 432 576 456 576 q 389 582 408 576 q 355 598 370 587 q 323 655 323 622 q 335 711 323 688 q 369 751 347 734 q 485 786 417 786 q 583 758 552 786 q 614 694 614 730 q 595 638 614 659 q 548 604 576 618 m 47 79 q 33 154 33 109 q 53 248 33 198 q 102 346 72 297 q 168 440 132 395 q 239 525 203 485 q 355 604 319 604 q 407 585 385 601 q 435 562 429 568 q 294 352 321 454 q 286 291 286 321 q 308 238 286 262 q 363 215 330 215 q 421 229 397 215 q 473 263 445 243 q 569 366 528 304 q 609 338 609 366 q 581 268 609 316 q 525 185 553 220 q 461 116 497 150 q 384 56 426 82 q 190 -4 290 -4 q 47 79 85 -4 z "},"j":{"ha":352,"x_min":-220,"x_max":507,"o":"m 419 614 q 406 607 419 614 q 362 591 393 600 q 307 583 331 583 q 266 589 283 583 q 233 606 248 595 q 204 662 204 629 q 215 719 204 696 q 247 758 226 742 q 372 793 291 793 q 473 731 449 793 q 481 691 481 713 q 463 649 481 669 q 419 614 446 629 m 121 6 q 82 -141 100 -77 q 43 -249 64 -205 q -8 -316 22 -293 q -74 -339 -37 -339 q -133 -331 -111 -339 q -173 -311 -155 -323 q -220 -254 -208 -286 q 50 221 -168 -212 q 229 564 173 466 q 288 606 252 606 q 336 591 309 606 q 170 183 237 394 q 418 307 302 206 q 480 363 454 338 q 507 338 507 366 q 490 288 507 328 q 433 195 473 248 q 342 104 392 143 q 121 6 243 28 z "},"k":{"ha":643,"x_min":-15,"x_max":800,"o":"m 192 27 q 146 0 192 0 q 70 9 100 0 q 20 39 39 18 q -15 169 -15 77 q 137 538 -15 317 q 300 743 223 663 q 420 860 377 823 q 553 941 515 941 q 614 907 581 941 q 379 604 484 780 q 315 502 354 556 q 526 605 414 566 q 599 614 565 614 q 675 543 675 603 q 605 411 675 487 q 471 300 545 346 q 505 233 486 256 q 556 210 525 210 q 617 225 588 210 q 673 260 646 240 q 770 363 728 302 q 800 338 800 366 q 772 268 800 317 q 717 184 744 220 q 648 122 690 149 q 583 54 606 95 q 465 -6 539 -24 q 292 243 435 1 q 300 321 271 278 q 408 391 343 366 q 498 435 473 415 q 555 503 555 469 q 539 517 555 517 q 505 509 523 517 q 464 487 488 500 q 415 457 440 474 q 360 419 389 440 q 259 323 294 370 q 192 27 212 172 z "},"l":{"ha":548,"x_min":34,"x_max":704,"o":"m 579 943 q 661 816 654 943 q 459 456 664 642 q 296 334 382 385 q 365 220 297 235 q 416 215 387 215 q 480 223 446 215 q 548 248 514 231 q 673 363 623 287 q 704 338 704 366 q 689 293 704 328 q 635 203 675 258 q 541 103 596 148 q 261 0 415 0 q 46 152 83 0 q 34 258 34 199 q 52 376 34 317 q 99 495 69 436 q 169 610 129 553 q 250 715 208 666 q 338 807 292 765 q 427 879 384 848 q 579 943 526 943 m 294 451 q 488 623 410 524 q 558 757 559 693 q 543 803 559 786 q 524 810 538 809 q 486 798 511 812 q 435 761 460 784 q 386 697 410 738 q 340 612 361 657 q 294 451 304 541 z "},"m":{"ha":1185,"x_min":34,"x_max":1339,"o":"m 257 27 q 212 0 257 0 q 95 41 145 0 q 34 176 34 90 q 132 425 34 291 q 319 596 222 549 q 349 604 336 604 q 371 603 362 604 q 404 586 393 601 q 340 434 363 502 q 532 546 414 492 q 752 602 654 602 q 797 548 797 602 q 786 468 797 511 q 1028 590 891 553 q 1112 602 1074 602 q 1162 592 1149 602 q 1178 563 1176 581 q 1173 521 1180 545 q 1154 470 1166 497 q 1126 414 1141 443 q 1099 359 1112 386 q 1068 266 1068 296 q 1128 210 1068 210 q 1260 307 1200 210 q 1299 363 1280 335 q 1333 357 1326 365 q 1339 339 1339 349 q 1331 308 1339 329 q 1306 254 1322 287 q 1266 185 1289 220 q 1213 116 1243 150 q 1146 54 1183 81 q 962 -5 1063 -5 q 817 73 854 -5 q 805 135 805 98 q 820 213 805 172 q 855 293 834 254 q 900 364 876 331 q 937 419 923 397 q 959 454 951 440 q 956 469 966 469 q 844 408 918 466 q 720 290 771 352 q 650 45 650 106 q 651 24 650 33 q 648 11 652 16 q 635 3 643 5 q 558 -1 602 -10 q 491 26 515 9 q 437 150 437 64 q 558 425 437 267 q 592 475 596 475 q 441 410 538 471 q 288 264 335 342 q 257 27 260 153 z "},"n":{"ha":803,"x_min":34,"x_max":953,"o":"m 257 26 q 212 -1 257 -1 q 52 88 99 -1 q 34 164 34 120 q 47 252 34 208 q 81 338 60 296 q 132 421 103 381 q 192 495 160 461 q 319 596 259 567 q 349 604 336 604 q 371 603 362 604 q 404 586 393 601 q 355 476 367 512 q 612 588 460 551 q 708 602 669 602 q 753 588 747 602 q 760 561 760 573 q 756 528 760 549 q 739 471 753 507 q 709 397 724 434 q 671 267 671 302 q 714 208 671 208 q 859 302 783 213 q 906 361 885 330 q 953 338 953 366 q 925 267 953 317 q 872 181 897 217 q 814 110 846 144 q 745 47 783 75 q 583 -13 662 -13 q 464 28 505 -13 q 423 149 423 70 q 532 425 423 267 q 564 475 569 475 q 433 414 513 475 q 298 275 340 349 q 257 26 260 149 z "},"o":{"ha":705,"x_min":26,"x_max":860,"o":"m 256 -3 l 242 -4 q 79 49 135 -4 q 26 183 26 98 q 119 406 26 300 q 335 556 209 509 q 357 606 331 587 q 421 618 376 621 q 507 607 467 615 q 589 571 548 599 q 679 412 679 512 q 632 211 679 304 q 817 361 730 231 q 860 338 860 366 q 853 312 860 328 q 484 22 761 93 q 259 -4 385 -4 l 256 -3 m 244 294 q 310 215 244 215 q 422 282 366 215 q 482 416 481 352 q 409 497 479 473 q 255 369 288 463 q 244 294 244 333 z "},"p":{"ha":770,"x_min":-120,"x_max":925,"o":"m 81 -311 q 35 -338 81 -338 q -106 -252 -70 -338 q -120 -181 -120 -220 q -107 -95 -120 -142 q -73 6 -95 -49 q -21 123 -51 62 q 43 245 9 184 q 114 363 77 307 q 187 468 151 420 q 342 602 285 595 q 356 604 350 604 q 371 603 362 604 q 404 586 393 601 q 385 543 393 561 q 363 492 377 525 q 625 598 476 563 q 718 610 674 610 q 764 521 806 602 q 708 434 743 481 q 655 359 673 386 q 613 266 613 297 q 673 210 613 210 q 785 255 726 210 q 884 363 842 301 q 919 357 912 365 q 925 339 925 349 q 916 308 925 329 q 888 254 907 287 q 841 185 869 220 q 779 116 814 150 q 701 54 743 81 q 507 -5 608 -5 q 362 73 399 -5 q 350 135 350 98 q 371 213 350 172 q 420 293 391 254 q 481 364 450 331 q 529 414 513 397 q 550 446 544 431 q 534 460 556 460 q 476 445 511 460 q 404 407 441 431 q 277 303 332 369 q 81 -311 83 -153 z "},"q":{"ha":741,"x_min":26,"x_max":903,"o":"m 331 50 q 192 0 265 0 q 73 51 120 0 q 26 183 26 102 q 107 385 26 287 q 308 545 180 485 q 581 606 440 606 q 682 568 665 601 q 729 604 715 602 q 749 606 743 606 q 764 605 755 606 q 799 586 787 602 q 648 302 740 506 q 603 192 621 239 q 779 302 719 213 q 833 369 811 334 q 900 338 903 376 q 884 289 900 328 q 829 201 868 251 q 743 113 791 151 q 533 11 648 37 q 457 -311 460 -202 q 412 -338 457 -338 q 299 -295 337 -338 q 260 -177 260 -252 q 331 50 260 -97 m 244 294 q 310 215 244 215 q 517 377 386 215 q 574 447 551 419 q 624 509 591 472 q 618 509 621 509 q 358 464 475 533 q 274 385 304 430 q 244 294 244 340 z "},"r":{"ha":580,"x_min":-38,"x_max":734,"o":"m 337 399 q 224 424 281 411 q 87 208 155 302 q 47 200 79 193 q -38 243 -30 227 q 132 461 83 328 q 82 538 82 479 q 130 632 82 575 q 197 688 176 688 q 298 654 264 688 q 312 620 312 641 q 289 548 312 598 q 552 488 393 497 q 513 412 547 441 q 494 404 503 404 q 426 309 446 360 q 420 278 420 293 q 495 215 420 215 q 585 268 524 222 q 682 371 640 309 q 734 338 734 366 q 706 268 734 315 q 652 186 678 220 q 593 118 625 151 q 524 58 560 85 q 363 0 441 0 q 184 83 229 0 q 168 148 168 111 q 183 220 168 184 q 225 290 199 256 q 337 399 279 361 z "},"s":{"ha":680,"x_min":25,"x_max":834,"o":"m 612 560 q 540 555 575 559 q 541 534 540 549 q 546 485 543 519 q 556 410 549 450 q 575 257 575 294 q 570 193 575 219 q 736 307 669 227 q 787 364 762 334 q 824 359 814 371 q 834 338 834 348 q 819 292 834 329 q 759 200 803 256 q 650 100 715 144 q 296 -3 503 -1 q 241 -4 277 -4 q 162 16 205 -4 q 88 71 119 36 q 25 253 25 142 q 95 357 25 299 q 134 385 115 373 q 327 562 202 487 q 562 636 452 636 q 616 614 601 636 q 612 560 632 591 m 274 254 q 307 242 289 242 q 342 252 326 242 q 373 286 358 262 q 398 340 387 309 q 418 406 410 372 q 442 537 433 463 q 253 418 338 500 q 207 370 227 394 q 274 254 226 292 z "},"t":{"ha":560,"x_min":52,"x_max":715,"o":"m 269 -1 q 52 183 52 -1 q 215 529 52 311 q 184 538 198 534 q 161 546 170 543 q 150 555 152 549 q 149 571 148 562 q 172 625 151 591 l 275 608 q 463 799 376 745 q 500 815 489 815 q 525 811 511 815 q 549 802 540 806 q 578 778 568 791 q 411 581 487 688 q 601 551 566 553 q 552 465 578 471 q 360 497 494 465 q 302 317 302 391 q 433 215 296 215 q 662 368 563 219 q 715 338 715 366 q 687 268 715 315 q 630 186 659 220 q 564 118 602 151 q 481 58 527 84 q 269 -1 382 -1 z "},"u":{"ha":798,"x_min":26,"x_max":953,"o":"m 656 296 q 707 216 656 215 q 808 263 747 218 q 905 366 863 304 q 953 338 953 366 q 925 268 953 315 q 870 186 897 220 q 811 118 844 151 q 742 58 779 85 q 582 0 660 0 q 425 84 464 0 q 267 7 350 28 q 204 0 239 0 q 135 13 169 0 q 76 49 100 25 q 26 183 26 98 q 91 384 26 279 q 229 538 145 471 q 354 600 307 600 q 419 553 380 600 q 304 434 353 507 q 251 288 251 353 q 310 215 244 215 q 412 237 375 215 q 531 456 439 343 q 699 596 623 568 q 765 573 723 605 q 781 560 775 566 q 687 426 723 511 q 656 296 656 354 z "},"v":{"ha":840,"x_min":59,"x_max":998,"o":"m 232 -24 q 131 56 131 -24 q 140 149 131 92 q 157 260 156 250 q 157 275 157 271 q 129 230 152 266 q 81 189 106 195 q 62 229 63 206 q 59 241 59 235 q 81 298 59 262 q 140 388 104 335 q 214 483 176 441 q 355 578 296 578 q 405 478 405 578 q 391 341 405 419 q 372 233 377 262 q 377 181 368 181 q 521 258 424 176 q 515 296 515 276 q 518 335 515 315 q 526 378 521 355 q 536 426 530 401 q 547 472 541 450 q 568 533 561 520 q 587 561 574 545 q 618 590 600 576 q 686 623 659 623 q 726 609 713 623 q 747 572 739 595 q 763 464 763 526 q 714 323 763 402 q 784 250 749 250 q 909 326 840 250 q 955 374 930 349 q 993 338 998 374 q 927 209 993 299 q 797 93 863 122 q 753 83 774 83 q 572 158 641 83 q 307 -11 432 32 q 232 -24 265 -24 z "},"w":{"ha":1135,"x_min":71,"x_max":1289,"o":"m 505 154 q 202 -16 327 -16 q 104 59 143 -16 q 71 205 71 126 q 151 419 71 300 q 301 583 220 523 q 345 601 325 601 l 346 602 q 402 580 366 602 q 299 357 331 492 q 294 295 294 321 q 334 215 297 215 q 406 240 361 215 q 499 309 451 264 q 541 513 510 420 q 559 549 551 541 q 580 566 568 557 q 606 581 593 574 q 653 597 639 597 q 677 590 667 597 q 694 570 686 582 q 710 522 710 545 q 656 368 710 464 q 707 227 669 264 q 735 215 718 215 q 836 279 772 215 q 835 288 835 283 l 835 298 q 845 420 835 359 q 866 520 859 506 q 885 550 873 534 q 912 581 897 566 q 976 615 949 615 q 1013 604 1002 615 q 1029 572 1023 592 q 1039 471 1039 539 q 1002 318 1039 403 q 1076 241 1036 248 q 1201 317 1131 241 q 1240 368 1222 340 q 1289 338 1289 366 q 1223 209 1289 299 q 1093 93 1160 122 q 1050 83 1071 83 q 894 141 954 83 q 709 -4 804 31 q 646 -16 677 -16 q 591 0 615 -16 q 551 41 568 16 q 505 154 519 88 z "},"x":{"ha":813,"x_min":44,"x_max":968,"o":"m 555 338 q 702 215 620 215 q 873 307 779 219 q 925 368 903 334 q 968 338 968 366 q 933 254 968 309 q 870 165 899 200 q 805 100 840 130 q 732 47 770 70 q 570 0 649 0 q 445 103 481 0 q 426 172 434 134 q 324 58 363 89 q 188 1 252 1 q 77 50 115 1 q 44 149 44 92 q 53 245 44 206 q 74 313 62 285 q 153 414 109 395 q 195 425 172 422 q 195 394 195 412 q 198 346 195 376 q 209 286 201 315 q 260 218 229 218 q 322 246 286 218 q 400 317 357 274 q 373 454 389 385 q 327 587 357 523 q 402 603 363 603 q 475 493 429 603 q 500 434 488 461 q 635 555 592 522 q 778 627 725 627 l 781 627 q 830 568 817 621 q 831 491 841 522 q 784 454 827 471 q 618 416 702 420 q 555 338 587 382 z "},"y":{"ha":718,"x_min":-83,"x_max":873,"o":"m 434 112 q 221 18 327 18 q 105 60 152 18 q 55 186 55 104 q 121 385 55 281 q 256 538 176 472 q 368 600 331 600 q 425 574 392 600 q 345 484 379 540 q 279 325 279 378 q 323 218 262 218 q 473 307 386 218 q 585 502 548 397 q 594 585 591 538 q 686 583 662 612 q 694 548 694 572 q 689 484 694 523 q 670 395 683 444 q 594 194 644 290 q 789 320 691 220 q 840 382 819 351 q 873 338 873 366 q 857 289 873 328 q 803 198 840 250 q 722 109 766 147 q 519 8 630 30 q 245 -308 388 -232 q 147 -336 194 -336 q 60 -322 100 -336 q -12 -285 20 -309 q -83 -154 -83 -230 q -64 -94 -83 -125 q 15 -19 -27 -35 q 149 -85 94 -72 q 201 -90 174 -90 q 258 -74 228 -90 q 320 -28 288 -58 q 434 112 387 33 z "},"z":{"ha":623,"x_min":0,"x_max":777,"o":"m 223 78 q 80 0 117 0 q 19 43 41 0 q 0 128 0 81 q 14 217 0 174 q 50 293 28 259 q 158 370 101 370 q 226 344 179 370 q 297 307 273 319 q 530 506 509 437 q 491 510 515 510 q 451 510 468 510 q 405 507 434 510 q 345 498 375 503 q 239 474 281 487 q 229 515 229 489 q 250 581 231 576 q 424 604 342 604 q 625 574 610 604 q 634 528 634 555 q 422 245 634 447 q 511 218 472 218 q 576 230 549 218 q 631 263 604 243 q 718 357 686 304 q 768 361 760 374 q 777 339 777 349 q 768 308 777 330 q 740 253 760 286 q 694 186 721 220 q 635 118 668 151 q 566 58 603 85 q 401 0 484 0 q 223 78 318 0 z "},"{":{"ha":219,"x_min":-90,"x_max":677,"o":"m 174 218 q 165 194 174 218 q 140 120 156 170 q 116 25 124 71 q 109 -72 109 -20 q 129 -178 109 -123 q 30 -229 88 -212 q -5 -235 10 -235 q -35 -226 -20 -235 q -62 -198 -50 -216 q -90 -94 -90 -156 q -70 27 -90 -33 q -20 144 -49 86 q 40 259 9 203 q 118 473 118 399 q 97 539 118 509 q 110 560 104 549 q 123 578 116 570 q 169 599 139 596 q 228 625 199 602 q 282 681 258 647 q 329 759 307 715 q 373 846 351 802 q 419 932 395 890 q 473 1006 443 974 q 623 1080 538 1080 q 665 1066 654 1080 q 677 1042 677 1053 q 669 1017 677 1030 q 641 1020 650 1020 q 466 874 532 1020 q 429 788 447 832 q 393 699 412 743 q 351 617 374 654 q 222 519 297 534 q 241 459 241 493 q 232 389 241 426 q 207 309 223 353 q 174 218 191 265 z "},"|":{"ha":689,"x_min":132,"x_max":751,"o":"m 696 1094 q 751 1063 751 1076 q 661 749 751 1010 q 400 96 534 385 q 253 -141 290 -141 q 201 -126 233 -141 q 132 -82 144 -100 q 445 491 210 -13 q 696 1094 666 964 z "},"}":{"ha":375,"x_min":-246,"x_max":460,"o":"m 348 841 q 358 862 348 841 q 382 923 368 882 q 396 997 396 964 q 374 1078 396 1031 q 398 1090 391 1090 q 415 1089 406 1090 q 435 1075 423 1088 q 460 974 460 1045 q 434 850 460 922 q 392 738 408 778 q 361 612 361 657 q 382 568 361 580 q 366 506 398 534 q 351 496 357 499 q 227 347 279 471 q 184 226 204 292 q 144 95 165 161 q 100 -33 124 29 q 43 -142 76 -94 q -138 -246 -29 -246 q -222 -193 -191 -246 q -246 -119 -244 -157 q -35 95 -123 -96 q 14 206 -10 149 q 63 319 37 263 q 119 423 88 375 q 279 560 189 530 q 259 613 259 583 q 273 682 259 644 q 307 760 286 720 q 348 841 328 800 z "},"~":{"ha":532,"x_min":-68,"x_max":553,"o":"m 499 494 q 553 447 553 464 q 545 410 553 430 q 522 370 536 390 q 489 330 508 349 q 447 297 469 311 q 358 264 397 264 q 297 274 319 264 q 257 297 275 283 q 226 327 240 311 q 198 357 212 343 q 137 390 166 390 q -16 307 71 390 q -68 366 -68 350 q -36 422 -68 382 q 27 486 -3 463 q 164 538 95 538 q 248 520 214 538 q 298 490 281 502 q 332 467 315 477 q 411 441 372 441 q 499 494 451 441 z "},"":{"ha":1221,"x_min":5,"x_max":1221,"o":"m 309 1015 l 917 1015 q 1044 798 925 1012 q 1221 486 1221 496 q 1017 127 1221 477 q 917 -43 928 -35 l 309 -43 q 41 418 279 0 q 5 488 5 477 q 309 1015 301 1006 m 366 844 q 534 545 534 553 l 407 95 l 798 95 l 798 98 l 689 543 q 857 836 857 830 l 836 873 l 833 873 l 613 502 l 610 502 l 399 873 l 388 873 l 366 844 m 477 882 l 477 879 l 610 803 l 746 882 l 477 882 m 174 513 l 174 513 l 176 513 l 176 477 l 328 198 l 328 776 l 328 779 l 174 513 m 895 770 l 895 187 l 1047 486 l 1047 510 l 1047 513 l 895 770 z "},"":{"ha":977,"x_min":0,"x_max":977,"o":"m 692 1039 q 817 1034 779 1034 l 947 1034 q 977 987 977 1017 q 920 933 977 933 l 895 933 l 895 925 q 692 372 895 589 q 760 212 760 293 l 760 171 q 532 0 724 0 q 290 233 290 57 l 290 252 q 309 309 290 279 l 304 309 q 241 304 252 304 q 5 491 76 304 q 0 543 0 524 l 0 562 q 171 735 0 681 l 222 735 q 377 662 279 735 q 773 947 548 757 l 773 952 l 703 952 q 681 1006 681 963 l 681 1020 l 692 1039 m 445 594 q 472 486 472 553 l 467 458 l 502 464 l 532 464 q 646 437 567 464 q 795 844 795 627 q 597 694 708 760 q 445 594 559 656 z "},"":{"ha":1134,"x_min":0,"x_max":784,"o":"m 385 1147 q 467 1004 467 1126 q 453 941 467 974 l 453 933 l 461 933 q 591 1023 491 1023 q 624 996 621 1009 q 537 887 586 887 q 515 873 537 873 l 515 865 l 597 865 q 762 722 713 865 q 784 597 773 689 q 694 301 743 377 q 399 0 537 0 l 350 0 q 111 206 236 0 q 0 597 11 412 l 0 618 q 198 873 0 873 q 247 860 233 860 q 125 963 174 898 l 125 968 q 152 996 125 979 l 193 996 q 301 955 231 996 l 296 990 q 385 1147 296 1147 m 90 602 q 157 543 106 543 l 184 543 q 236 621 236 572 q 184 689 236 662 l 163 689 q 90 602 90 689 m 309 600 q 401 524 347 524 q 472 600 472 559 q 418 689 450 689 l 396 689 q 309 600 317 689 m 548 618 q 632 521 548 521 l 648 521 q 700 618 700 551 l 700 646 q 632 686 681 686 l 616 686 q 548 618 548 686 m 214 372 q 288 312 236 312 q 358 380 358 315 q 271 450 339 450 q 214 372 214 431 m 439 361 q 513 298 472 298 q 578 372 572 298 q 513 439 578 439 q 439 361 439 431 z "},"":{"ha":868,"x_min":0,"x_max":822,"o":"m 480 1034 l 496 1034 q 572 996 529 1034 q 621 979 621 996 l 621 968 q 518 887 594 887 l 496 892 l 486 887 q 412 898 431 898 l 412 892 q 469 730 469 822 l 469 719 q 605 735 586 730 q 822 551 757 735 l 822 540 q 665 71 822 331 q 545 0 602 0 l 529 0 q 420 54 488 0 l 391 54 q 331 5 366 5 l 326 5 q 60 222 125 5 q 0 518 0 431 q 217 730 0 697 l 250 730 q 363 708 293 730 l 363 746 q 288 871 363 849 q 228 892 247 879 q 266 968 228 936 l 298 968 q 353 947 315 968 q 480 1034 415 1034 z "},"":{"ha":1031,"x_min":-5,"x_max":1025,"o":"m 944 760 q 1015 662 993 722 q 1025 602 1025 624 q 987 494 1025 537 q 890 423 949 445 q 830 412 863 412 q 792 415 776 412 q 863 336 808 418 q 901 228 901 288 q 814 65 901 136 q 711 33 770 33 q 548 119 624 33 q 513 157 515 157 q 467 114 510 157 q 309 33 407 33 q 195 71 244 33 q 119 206 125 119 q 157 336 114 277 q 184 412 217 418 q 130 423 157 412 q 33 494 76 445 q -5 602 -5 543 q 5 662 -5 624 q 76 760 27 716 q 184 798 125 798 q 244 787 217 798 q 323 751 336 754 q 320 857 309 749 q 385 982 326 928 q 510 1031 439 1031 q 656 960 597 1031 q 700 857 694 917 q 697 743 711 738 q 776 787 684 749 q 830 798 808 798 q 944 760 890 798 m 586 410 q 632 502 632 453 q 602 581 632 545 q 513 621 559 621 q 426 586 458 621 q 391 502 391 553 q 420 426 391 458 q 513 380 458 380 q 586 410 553 380 z "},"":{"ha":958,"x_min":-5,"x_max":963,"o":"m 507 990 q 544 920 526 960 q 572 857 562 879 q 616 803 583 836 q 642 789 621 798 q 673 773 662 781 q 689 751 684 765 q 689 749 689 751 q 689 743 689 746 q 677 718 689 727 q 646 704 665 708 q 605 694 627 700 q 632 642 610 665 q 699 583 654 618 q 762 532 743 548 q 792 494 781 515 q 760 464 792 464 q 736 465 751 464 q 716 467 722 467 q 703 464 705 467 q 760 399 713 431 q 849 335 806 366 q 901 274 892 304 q 901 263 901 269 q 873 239 901 239 q 854 240 868 239 q 833 241 841 241 q 817 239 825 241 q 856 178 822 206 q 925 119 890 149 q 963 60 960 90 q 922 31 960 38 q 817 24 884 24 q 768 26 800 24 q 724 27 735 27 q 656 19 665 27 l 656 -68 q 646 -73 651 -73 q 628 -65 640 -73 q 605 -57 616 -57 q 537 -46 567 -57 q 507 -30 529 -30 q 481 -35 496 -30 q 446 -47 467 -41 q 420 -57 426 -54 q 372 -68 388 -68 q 361 -65 366 -68 l 361 30 q 260 19 331 24 q 133 8 190 14 q 60 3 76 3 q 12 12 30 3 q -5 41 -5 22 q 46 103 -5 71 q 88 122 73 114 q 110 137 103 130 q 122 152 117 144 q 138 176 127 160 q 88 187 106 176 q 71 212 71 198 q 76 220 71 217 q 145 267 122 252 q 180 294 168 282 q 198 321 193 307 q 206 363 203 336 q 179 368 198 366 q 155 372 160 369 q 133 404 133 388 q 152 441 133 420 q 212 491 171 461 q 270 536 252 521 q 293 567 288 551 q 269 570 279 570 q 244 568 258 570 q 225 567 231 567 q 209 581 209 567 q 217 608 209 589 q 264 655 225 624 q 323 705 304 686 q 342 749 342 724 q 339 762 342 751 q 279 789 279 765 q 288 814 279 800 q 338 878 309 852 q 388 924 366 903 q 431 990 410 944 q 464 1015 445 1015 q 507 990 486 1015 m 326 610 q 342 605 328 602 q 363 610 350 608 q 391 616 377 613 q 515 621 450 629 q 532 621 524 618 q 547 637 543 624 q 545 673 551 651 q 530 703 543 689 q 496 716 518 716 q 392 685 431 700 q 338 654 353 670 q 326 610 323 637 m 784 288 q 784 294 784 293 q 784 296 784 296 q 762 335 784 317 q 697 377 741 353 q 624 422 654 401 q 572 472 594 442 q 534 510 548 510 q 525 502 529 510 q 510 468 521 494 q 488 429 499 442 q 486 418 486 426 q 507 391 486 401 q 567 380 529 380 q 591 380 583 380 q 644 366 627 380 q 699 313 662 353 q 757 274 735 274 q 784 288 768 274 m 342 342 q 294 311 326 328 q 251 279 263 293 q 239 250 239 266 q 255 220 239 233 q 326 198 274 198 q 456 216 363 198 q 578 233 548 233 q 608 250 608 233 q 600 266 608 260 q 526 277 570 277 q 484 274 513 277 q 445 271 456 271 q 420 282 431 271 q 400 311 410 293 q 382 340 391 328 q 358 353 374 353 q 342 342 355 353 m 846 119 q 811 146 830 138 q 777 138 803 146 q 724 138 751 130 q 659 149 703 138 q 616 165 635 165 q 548 153 570 168 q 521 119 526 138 q 548 92 521 100 q 787 73 697 81 q 838 77 819 73 q 857 84 857 81 q 846 119 857 100 z "},"":{"ha":1025,"x_min":3,"x_max":1031,"o":"m 518 -30 q 189 389 374 250 q 3 716 3 529 q 77 940 3 865 q 260 1015 152 1015 q 518 773 453 1015 q 773 1015 581 1015 q 956 940 882 1015 q 1031 716 1031 865 q 845 389 1031 529 q 518 -30 659 250 z "},"":{"ha":1017,"x_min":-3,"x_max":1023,"o":"m 510 -30 q 183 389 369 250 q -3 716 -3 529 q 72 940 -3 865 q 252 1015 146 1015 q 510 860 448 1015 q 768 1015 575 1015 q 948 940 873 1015 q 1023 716 1023 865 q 838 389 1023 529 q 510 -30 654 250 m 505 643 q 214 853 339 906 q 130 689 90 800 q 262 507 171 578 q 510 250 353 437 q 753 522 629 423 q 890 708 876 621 q 802 860 903 795 q 505 643 700 925 z "},"":{"ha":1373,"x_min":-16,"x_max":1383,"o":"m 909 895 q 1093 670 990 895 q 1185 610 1150 610 q 1378 743 1299 610 l 1383 743 l 1383 713 q 1204 347 1383 548 q 990 258 1112 258 q 694 491 844 258 l 673 491 q 353 274 521 274 l 326 274 q 41 521 155 274 q -16 743 14 562 l -16 751 l -5 751 q 203 602 62 602 l 209 602 q 342 811 263 602 q 510 879 410 879 l 521 879 q 684 738 621 879 q 909 895 795 895 z "},"":{"ha":1335,"x_min":0,"x_max":1058,"o":"m 358 1063 l 382 1063 q 521 928 469 1063 q 567 743 562 833 q 624 838 597 792 q 836 977 708 977 q 928 852 928 963 q 979 798 928 798 q 1058 681 1058 760 q 803 507 1058 548 l 770 507 q 705 502 735 505 q 811 464 768 477 q 967 324 941 385 q 970 191 993 263 q 817 117 947 119 q 793 72 808 117 q 736 14 779 27 q 675 -3 694 0 q 618 4 656 -5 q 545 68 581 14 q 502 271 502 144 l 496 271 l 488 247 q 483 16 483 65 q 477 11 477 16 q 415 35 415 19 q 453 277 453 212 l 453 290 l 445 290 q 366 160 445 244 q 217 84 293 92 q 106 203 122 84 l 106 228 q 100 250 106 233 q 71 279 111 263 q 15 317 30 296 q 0 377 0 339 l 0 396 q 117 524 0 488 q 326 570 195 553 l 347 575 q 141 686 203 608 q 68 803 68 743 q 239 944 90 939 q 328 1058 255 1025 l 358 1063 z "},"":{"ha":990,"x_min":-3,"x_max":996,"o":"m 410 841 q 420 798 410 819 q 452 765 431 776 q 496 754 472 754 q 540 765 518 754 q 572 798 562 776 q 583 841 583 819 q 572 886 583 865 q 540 917 562 906 q 496 928 518 928 q 452 917 472 928 q 420 886 431 906 q 410 841 410 865 m 439 665 q 407 684 431 667 q 340 749 363 705 q 317 838 317 792 q 340 928 317 884 q 407 994 363 971 q 496 1017 450 1017 q 586 994 543 1017 q 652 928 629 971 q 675 838 675 884 q 652 749 675 792 q 586 684 629 705 q 559 665 559 667 l 559 616 l 746 616 l 746 483 l 564 483 l 564 106 q 692 141 624 111 q 787 214 746 174 l 732 271 l 996 331 l 936 68 l 879 119 q 760 30 838 79 q 499 -30 632 -30 q 222 49 366 -30 q 114 125 160 81 l 57 68 l -3 331 l 260 271 l 214 225 q 307 157 252 184 q 448 109 393 111 l 448 483 l 247 483 l 247 616 l 439 616 l 439 665 z "},"":{"ha":1012,"x_min":0,"x_max":1017,"o":"m 507 1015 q 762 949 640 1015 q 951 761 884 884 q 1017 499 1017 637 q 951 239 1017 361 q 762 50 884 117 q 507 -16 640 -16 q 254 50 377 -16 q 65 239 130 117 q 0 499 0 361 q 65 761 0 637 q 254 949 130 884 q 507 1015 377 1015 m 442 892 q 290 846 363 887 q 156 713 203 800 q 109 526 109 627 q 157 339 109 426 q 190 288 171 309 l 442 537 l 442 892 m 244 201 q 304 160 271 176 q 453 114 377 119 l 453 410 l 244 201 m 562 114 q 713 160 637 119 q 770 201 743 176 l 562 410 l 562 114 m 819 288 q 854 339 838 309 q 901 526 901 426 q 853 713 901 627 q 719 849 806 800 q 567 895 646 887 l 567 540 l 819 288 z "},"":{"ha":936,"x_min":0,"x_max":903,"o":"m 594 1128 l 624 1128 l 703 1031 l 713 1031 q 852 1085 841 1085 l 860 1085 q 887 1058 873 1085 l 887 1039 q 741 939 887 1020 l 640 727 q 716 662 670 719 q 887 754 808 760 l 903 727 q 787 545 871 616 q 696 156 800 320 q 431 0 591 -8 q 130 336 206 43 l 111 488 q 64 586 109 537 q 11 722 19 635 l 38 738 q 193 654 119 727 q 260 716 203 694 q 95 928 163 955 q 0 1031 0 968 l 38 1058 l 165 1031 q 231 1120 206 1112 l 258 1120 q 296 1058 279 1120 q 239 958 239 977 q 366 770 271 882 q 515 776 442 789 q 632 977 632 952 q 567 1101 564 1066 q 594 1128 567 1115 z "},"":{"ha":1134,"x_min":0,"x_max":1074,"o":"m 757 1204 l 779 1204 q 852 1123 838 1204 l 852 1118 q 787 1028 852 1069 l 735 882 l 808 838 q 955 941 860 941 q 1074 817 1055 941 q 968 675 1069 708 l 947 675 q 952 616 952 624 q 808 138 963 423 q 559 0 697 0 l 543 0 q 214 290 345 0 q 163 545 160 461 q 168 705 160 624 l 163 705 q 133 697 149 697 q 0 830 0 724 q 125 963 22 963 l 138 963 q 263 852 239 963 l 266 827 q 374 890 315 868 l 317 1020 q 250 1101 266 1025 q 345 1191 250 1177 q 426 1118 426 1175 q 412 1042 439 1080 l 464 917 q 646 911 567 933 l 697 1066 q 684 1109 684 1088 l 684 1131 q 757 1204 697 1204 m 651 572 q 732 486 665 486 q 827 572 817 480 l 827 589 q 732 667 822 673 q 651 572 656 667 m 288 600 l 288 586 q 361 491 285 510 l 377 491 q 461 559 448 499 l 464 608 q 377 681 464 673 l 369 681 q 288 600 288 670 z "},"":{"ha":1386,"x_min":0,"x_max":735,"o":"m 646 1118 q 719 1025 719 1093 l 581 648 l 581 629 q 735 353 735 529 l 735 317 q 496 14 735 125 q 396 -5 461 -5 l 350 -5 q 8 290 90 -5 q 0 345 8 296 q 165 640 0 518 l 165 675 q 8 998 165 705 l 8 1017 q 146 1109 8 1109 q 258 860 233 1109 q 312 694 263 857 l 377 703 q 431 694 426 694 q 507 944 480 694 q 589 1109 529 1109 q 646 1118 602 1118 m 423 442 q 494 361 423 388 q 583 448 581 363 q 524 521 581 499 l 505 521 q 423 442 423 521 m 152 439 l 152 410 q 233 358 179 358 q 304 439 290 358 q 222 518 298 518 q 152 439 160 518 z "},"":{"ha":1169,"x_min":-8,"x_max":1210,"o":"m 581 993 q 686 949 629 990 q 800 996 727 996 l 819 996 q 914 930 914 974 q 876 901 920 895 q 823 918 849 906 q 761 920 798 930 q 724 836 724 909 l 724 806 l 735 760 l 792 760 q 1097 621 985 760 q 1177 279 1210 483 q 1078 56 1156 100 q 925 4 1001 11 q 491 5 849 -3 q 195 100 307 8 q 92 388 43 231 l 106 458 q -8 675 -8 526 l -3 700 q 38 689 0 713 q 144 581 111 600 q 293 751 206 575 q 323 713 323 751 q 217 477 315 600 q 205 425 209 461 q 203 362 201 388 q 233 327 206 336 q 288 338 260 317 q 312 420 315 358 q 374 597 309 483 q 632 760 439 711 l 651 760 q 586 911 659 911 l 564 911 l 526 892 l 507 882 q 477 901 494 882 l 480 936 q 581 993 507 985 m 792 439 q 895 331 798 336 q 985 427 977 347 q 879 532 993 507 q 792 439 817 507 z "},"":{"ha":1120,"x_min":0,"x_max":1123,"o":"m 260 1001 q 323 795 323 971 q 290 529 323 722 l 290 521 q 328 486 296 486 q 412 646 353 581 q 399 735 399 713 l 412 741 l 431 741 q 480 686 480 705 l 521 697 l 515 781 l 548 789 l 562 789 q 591 762 572 789 l 591 713 l 618 713 q 681 795 629 795 q 713 692 708 776 l 722 692 q 795 741 781 741 q 825 719 825 730 q 781 646 825 689 q 955 377 936 570 q 974 369 958 377 q 1004 404 1004 385 q 966 543 1004 469 q 958 570 958 553 l 979 583 l 987 583 q 1123 399 1088 583 q 1001 157 1123 225 q 933 90 933 138 q 947 5 947 11 l 933 -3 l 808 -3 q 708 62 708 5 q 741 95 708 65 q 678 122 741 117 q 548 68 548 122 q 507 0 521 0 l 404 0 q 315 41 315 0 q 342 117 342 95 q 117 404 117 201 l 117 426 q 165 686 117 483 l 165 705 l 152 727 l 117 719 l 35 719 q 0 776 0 738 l 0 781 q 141 1001 0 901 q 260 1001 195 1020 m 106 863 l 106 852 q 138 825 106 838 l 160 825 q 198 852 179 825 l 198 887 q 152 917 198 914 q 106 863 106 909 m 502 521 l 502 515 q 575 467 502 494 q 673 556 673 502 q 605 589 654 589 q 502 521 524 589 m 722 515 q 700 439 700 461 l 708 404 q 781 486 781 404 q 741 515 776 515 l 722 515 z "},"":{"ha":1373,"x_min":0,"x_max":1386,"o":"m 624 1012 q 789 936 716 1012 q 722 892 789 914 l 722 882 l 833 892 l 966 892 q 1373 662 1316 892 q 1308 155 1386 486 q 1294 65 1308 127 q 1308 22 1308 46 l 1283 11 l 1120 11 q 1096 33 1096 11 l 1096 111 q 920 298 1077 298 l 876 298 q 700 54 700 298 l 700 0 l 513 0 q 469 309 483 0 q 393 231 399 231 l 369 241 q 415 363 415 336 q 182 187 301 187 q 0 450 0 217 l 0 518 q 133 727 0 727 l 165 727 l 187 716 q 133 464 133 583 q 241 363 174 363 q 293 518 260 363 q 271 651 271 640 q 448 914 304 914 q 624 1012 583 1012 m 407 735 l 407 697 q 505 643 429 643 q 559 697 524 643 l 559 735 q 505 789 559 757 l 461 789 q 407 735 437 789 z "},"":{"ha":1270,"x_min":0,"x_max":1128,"o":"m 1009 993 l 1085 993 q 1128 928 1128 971 q 868 423 1063 594 q 814 391 833 391 q 998 33 971 160 q 955 -11 998 16 q 586 201 722 -11 q 228 0 442 0 l 195 43 l 195 87 q 336 363 195 179 q 33 781 130 448 q 0 933 33 814 l 0 955 q 22 977 3 977 l 33 977 q 361 860 168 977 q 553 613 553 743 q 586 602 564 613 q 1009 993 646 803 z "},"":{"ha":1289,"x_min":0,"x_max":1289,"o":"m 1069 1107 q 1289 887 1289 1074 l 1289 865 q 1069 667 1251 667 l 1044 667 l 1044 659 q 1115 423 1115 551 q 849 38 1115 176 q 659 0 751 0 q 228 339 355 0 q 220 439 220 434 q 274 646 220 510 l 260 637 l 195 637 q 0 841 46 637 l 0 857 q 195 1077 30 1077 l 244 1077 q 439 849 404 1077 l 431 795 q 659 857 548 857 l 692 857 q 865 817 746 857 l 865 825 q 857 857 857 838 l 857 911 q 1069 1107 857 1058 z "},"":{"ha":692,"x_min":0,"x_max":694,"o":"m 307 1196 l 309 1196 q 355 1134 317 1196 q 380 1109 374 1109 q 393 1112 382 1109 q 483 1096 442 1104 l 486 1096 q 570 1128 532 1128 q 591 1139 570 1128 q 605 1112 602 1139 q 534 933 605 1088 l 532 892 q 602 724 532 833 q 621 616 621 667 l 621 600 q 616 551 621 581 q 662 486 616 526 q 694 401 694 445 l 694 334 q 567 155 694 250 q 407 5 567 68 q 347 0 369 0 l 307 0 q 133 60 222 0 q 0 279 0 182 l 0 326 q 90 494 0 415 q 109 496 98 496 q 111 486 111 491 q 76 355 76 415 l 76 326 q 149 157 76 228 q 323 84 222 92 q 407 127 382 84 l 399 130 l 374 130 q 182 233 258 125 q 146 355 146 288 l 146 366 q 212 553 146 439 l 209 586 l 209 613 q 282 776 209 656 q 307 838 307 819 q 255 917 307 863 q 236 982 236 952 l 236 1023 q 307 1196 236 1142 z "},"":{"ha":928,"x_min":-8,"x_max":968,"o":"m 863 1042 l 876 1042 q 925 941 898 1042 l 925 909 q 836 746 925 817 l 833 738 q 952 708 920 738 q 968 689 966 708 q 865 656 968 673 q 803 548 825 656 l 795 453 q 773 231 787 355 l 760 103 q 711 24 760 68 q 637 3 648 3 q 526 24 589 3 q 507 27 521 27 l 502 27 q 429 -3 488 27 l 396 -3 q 274 65 307 -5 l 252 184 q 203 434 231 304 q 141 613 184 540 q 79 635 106 635 l 65 635 q 22 613 60 635 l 11 613 q -8 632 8 613 l -8 646 q 95 719 33 700 l 114 722 q 35 852 35 792 l 35 871 q 81 1015 35 968 q 127 1039 122 1039 q 138 1025 138 1039 q 125 966 125 974 q 195 822 125 830 q 241 808 195 819 q 317 841 250 808 q 494 873 410 865 l 608 865 q 716 836 640 865 l 716 833 q 822 876 792 833 q 852 966 852 925 l 852 971 l 849 1025 q 863 1042 854 1042 m 570 174 q 627 111 578 111 l 637 111 q 694 168 694 122 l 694 176 q 635 236 681 236 q 570 174 570 225 m 331 157 q 399 95 331 111 l 407 95 q 475 163 458 95 q 407 233 461 233 l 399 233 q 331 157 331 222 z "},"":{"ha":1123,"x_min":0,"x_max":1131,"o":"m 260 1164 l 263 1164 q 464 1123 309 1164 l 507 1123 q 613 1118 575 1118 l 697 1118 q 979 990 857 1107 q 1093 792 1093 898 q 1088 735 1093 779 q 1131 654 1101 735 q 1109 627 1131 640 l 1096 627 q 1006 659 1069 627 l 944 694 q 884 716 939 694 q 811 586 854 629 q 760 556 781 556 q 754 594 754 570 l 754 719 l 749 719 q 686 632 735 711 q 597 589 635 589 l 570 589 q 564 597 564 589 q 583 681 575 632 l 583 684 l 494 665 q 358 575 404 648 l 309 505 q 228 288 233 366 q 336 203 296 266 q 377 122 369 163 q 369 117 377 117 q 309 141 317 141 q 217 111 298 141 q 176 136 198 117 l 174 136 q 73 68 174 109 q 24 3 41 38 l 16 0 l 14 0 q 0 30 0 5 l 0 119 q 62 244 11 203 l 122 279 q 119 282 122 282 q 117 361 117 345 l 117 458 q 179 836 117 684 q 271 998 206 890 q 277 1028 277 1020 q 176 1145 277 1066 q 260 1164 176 1161 z "},"":{"ha":1457,"x_min":0,"x_max":1457,"o":"m 1188 1104 l 1153 1017 q 1175 981 1156 1001 q 1234 922 1194 960 q 1297 856 1275 884 q 1318 808 1318 827 q 1310 784 1318 792 q 1286 773 1302 773 q 1236 787 1272 773 q 1180 807 1199 800 q 1131 814 1161 814 q 1142 656 1142 749 q 1109 431 1142 510 q 1218 214 1164 301 q 1375 355 1305 263 l 1457 288 q 1267 109 1373 179 q 1039 5 1158 38 q 792 -27 917 -27 q 575 -3 684 -27 q 363 65 467 19 q 171 171 260 109 q 0 309 79 231 l 65 404 q 285 250 182 304 q 309 309 304 288 q 320 448 315 331 q 353 597 323 562 q 385 648 380 632 q 334 722 358 722 q 294 703 317 722 q 244 652 271 684 q 174 621 217 621 q 65 697 125 621 q 165 726 125 697 q 235 795 206 754 q 289 873 263 836 q 339 914 315 911 q 381 899 366 914 q 427 818 396 884 q 464 741 458 751 q 549 686 483 705 q 700 667 616 667 q 846 686 784 667 q 920 743 909 705 q 990 925 949 825 q 1062 1023 1028 1023 q 1119 1055 1096 1023 q 1188 1104 1142 1088 m 949 355 q 811 328 901 323 q 651 335 727 328 q 524 374 575 342 l 410 176 q 487 138 429 160 q 629 103 545 117 q 798 90 713 90 q 1109 168 987 90 l 1069 214 l 1031 263 l 949 355 z "},"":{"ha":1503,"x_min":-5,"x_max":1522,"o":"m 5 822 l 98 822 l 193 822 l 258 822 l 353 822 q 505 814 404 822 q 610 618 551 618 l 627 618 q 703 632 654 618 l 703 675 q 719 722 705 722 l 738 692 l 779 692 l 808 730 l 814 713 l 814 648 q 895 610 819 618 l 911 610 q 1036 784 1009 610 q 1047 814 1036 814 l 1158 814 l 1242 814 q 1503 808 1335 814 q 1522 784 1522 798 q 1313 540 1370 667 l 1299 445 l 1299 363 q 1289 317 1299 342 l 1253 326 l 1142 339 q 898 266 996 342 l 854 195 q 795 8 808 95 l 784 0 l 773 0 l 692 163 q 429 334 581 334 q 263 342 361 342 l 239 342 q 231 435 228 342 q 199 591 233 529 q 41 779 165 654 q -5 814 -5 792 l 5 822 z "},"":{"ha":621,"x_min":0,"x_max":800,"o":"m 228 1115 q 271 993 239 1099 l 288 939 l 301 887 l 353 887 l 401 887 l 453 887 l 505 887 l 521 982 l 532 1031 q 578 1115 540 1077 q 722 1034 665 1093 l 781 977 l 776 876 l 776 827 q 773 724 773 779 q 800 467 800 543 q 681 301 787 426 q 648 176 648 236 l 648 163 q 673 71 648 141 q 572 14 586 14 q 472 76 553 84 l 372 79 l 298 76 q 228 14 228 76 q 220 0 220 14 l 209 0 q 144 76 144 60 q 157 133 157 117 l 157 157 q 19 439 157 263 q 0 534 0 496 q 33 686 0 553 l 33 838 l 33 911 l 33 987 q 228 1115 106 1058 m 122 700 l 122 692 q 103 589 122 684 q 236 551 190 551 l 252 551 q 328 600 282 551 l 412 600 l 499 600 q 597 556 518 556 l 643 556 q 716 594 692 556 q 700 694 708 694 q 453 662 586 662 l 380 662 q 201 681 282 662 l 122 700 m 250 165 l 250 152 q 401 195 277 195 l 486 195 q 559 152 540 182 l 567 165 l 567 171 q 524 244 529 244 l 480 244 l 410 244 l 342 244 l 298 244 l 296 244 q 250 165 293 244 z "},"":{"ha":917,"x_min":0,"x_max":1072,"o":"m 494 1047 l 529 1047 l 564 1047 l 637 1047 q 751 1025 708 1047 l 792 1006 l 830 990 l 865 977 l 917 982 l 968 990 l 1017 998 l 1069 1004 l 1072 1001 q 1072 996 1072 998 l 1072 993 l 1066 958 l 1058 922 l 1053 887 l 1044 849 l 1039 814 l 1031 779 l 1025 743 q 1012 689 1017 705 l 1004 675 l 987 667 q 974 632 974 659 l 974 602 l 971 556 l 968 507 l 966 458 l 963 412 l 960 363 l 958 315 l 955 269 q 947 220 952 220 l 941 220 l 914 198 l 890 174 l 863 152 l 836 127 l 811 106 l 784 81 l 760 60 q 708 19 732 35 l 686 0 l 594 -3 q 437 0 505 -5 l 366 3 l 334 33 l 304 60 l 271 90 l 241 117 l 209 146 l 176 174 l 146 203 q 114 233 114 231 l 114 239 l 114 250 l 114 263 l 111 307 l 111 350 l 109 393 l 106 439 l 106 483 l 103 526 l 100 570 l 100 613 l 81 629 q 60 678 65 646 l 57 711 l 52 743 l 46 779 l 35 827 l 24 879 l 11 928 l 0 979 l 3 979 q 8 982 8 979 l 8 987 l 16 985 q 27 982 24 982 l 27 982 l 65 982 q 155 979 103 982 l 206 977 l 247 993 l 288 1012 l 326 1028 q 431 1047 366 1047 l 494 1047 m 852 928 l 852 914 l 852 901 l 833 884 q 781 844 817 865 l 746 825 l 711 803 l 675 781 l 640 762 l 605 741 l 570 719 l 537 700 l 499 724 l 461 751 l 423 779 l 385 803 l 309 857 l 233 909 l 228 909 l 220 909 l 217 860 l 217 846 l 260 814 q 363 741 304 781 l 423 703 l 483 665 l 545 624 l 583 651 l 624 675 l 665 700 l 703 727 l 743 751 l 784 776 l 825 803 q 868 833 863 827 l 871 838 l 873 901 l 873 928 l 863 928 l 852 928 m 404 920 l 404 917 q 437 887 404 914 l 469 863 l 502 836 l 537 808 l 575 833 l 613 857 l 654 882 l 692 906 l 692 906 l 692 909 l 678 911 q 665 911 667 911 l 665 911 l 618 911 q 532 914 575 911 l 488 917 l 448 917 l 404 920 m 171 629 l 171 618 l 171 605 l 212 570 l 252 534 l 247 521 q 244 505 244 507 l 244 502 l 285 472 l 323 442 l 334 442 l 347 442 l 353 442 q 382 456 355 442 l 407 469 l 431 486 l 458 499 l 458 502 l 458 505 l 458 518 q 434 532 458 532 l 412 532 l 374 534 l 339 540 l 304 545 q 260 559 279 540 l 252 570 l 241 578 q 201 608 231 589 l 171 629 m 890 608 l 857 581 q 808 553 825 553 l 792 553 l 784 551 q 738 540 776 548 l 703 534 l 667 529 l 632 521 l 632 518 l 629 515 l 629 510 l 629 505 l 656 491 l 681 475 l 705 461 q 735 445 732 448 l 741 445 l 743 445 l 746 445 l 757 445 l 765 445 l 776 445 q 814 469 787 445 l 838 494 l 838 515 l 838 540 l 868 564 l 901 589 l 898 597 q 892 608 895 608 l 890 608 m 429 209 l 420 149 l 412 125 l 404 103 l 399 79 l 401 79 q 415 71 404 79 l 426 60 l 429 60 q 442 95 431 60 l 453 130 l 458 133 l 461 136 l 537 136 l 613 136 l 616 133 l 621 130 l 624 127 q 640 87 627 125 l 654 49 l 654 49 l 656 49 l 670 57 q 686 65 686 62 l 686 68 l 665 119 q 643 206 646 203 l 640 209 l 613 209 l 586 209 l 562 209 l 534 209 l 507 209 l 483 209 l 456 209 l 429 209 z "},"":{"ha":1104,"x_min":-3,"x_max":1115,"o":"m 949 798 q 1099 499 1115 675 q 773 160 1099 255 q 627 136 686 136 l 502 130 l 320 146 q 127 241 231 179 l 62 317 l 24 396 q 0 513 0 450 q 109 768 -3 659 l 184 822 l 260 860 q 526 895 339 895 l 675 895 q 949 798 819 882 m 201 529 q 244 475 222 475 q 290 461 263 472 q 350 491 307 461 l 445 491 l 540 491 l 635 491 l 730 491 q 787 442 735 464 l 819 448 q 876 521 863 461 l 876 572 q 792 632 854 629 q 730 570 727 616 l 637 570 l 543 570 l 450 570 l 358 570 l 358 591 q 320 635 358 613 q 247 642 277 656 q 209 601 217 627 q 201 529 201 575 z "},"":{"ha":1389,"x_min":0,"x_max":1389,"o":"m 241 1023 l 472 1023 l 700 1023 l 928 1023 l 1158 1023 q 1232 947 1180 1004 l 1286 887 l 1337 830 l 1389 773 l 1389 760 l 1221 570 l 1055 380 l 887 190 l 719 0 l 673 0 l 605 76 q 404 307 537 152 l 269 464 l 136 618 l 0 776 l 0 779 q 122 903 0 784 l 182 963 l 241 1023 m 122 779 q 228 673 122 776 q 222 716 222 700 q 396 947 222 833 l 401 947 l 401 949 l 290 949 q 201 863 271 949 q 122 779 122 784 m 429 814 l 429 811 q 510 741 437 741 q 743 722 591 724 l 898 719 q 1066 632 1017 694 q 1104 586 1099 586 l 1188 684 l 1272 779 l 1199 854 l 1128 930 l 1128 784 q 1120 776 1128 776 l 920 776 q 911 784 911 776 l 911 830 q 811 920 871 901 l 749 939 l 727 944 q 673 949 703 949 q 458 884 564 949 q 429 814 429 846 m 909 949 l 909 947 l 977 873 l 985 873 q 1025 941 996 879 l 1025 949 l 909 949 m 326 559 q 439 429 404 461 q 491 461 445 461 l 540 461 q 678 396 602 461 q 719 393 703 393 l 817 393 q 949 442 890 393 l 960 461 q 827 534 939 537 l 765 537 q 545 534 651 537 q 326 559 420 534 m 524 323 q 613 231 524 317 q 697 146 689 149 l 719 146 q 873 323 770 193 l 865 323 q 741 304 865 312 l 692 304 q 529 323 632 304 l 524 323 z "},"":{"ha":1188,"x_min":-11,"x_max":1031,"o":"m 486 1069 l 540 1069 l 665 1053 q 856 956 779 1020 q 982 770 933 892 q 1023 564 1023 656 l 1023 559 q 1001 349 1031 420 q 911 222 971 277 l 800 130 q 760 0 800 0 q 689 41 689 0 q 670 81 689 76 l 656 81 q 629 8 648 81 q 562 0 621 8 q 521 68 532 0 l 507 76 l 494 76 q 472 0 480 76 l 467 0 q 391 68 391 0 q 372 76 382 68 q 336 14 347 76 q 269 0 326 5 l 255 22 l 255 62 q 201 157 255 138 q 16 431 46 269 l 3 564 q 119 909 -11 779 q 355 1047 195 982 q 486 1069 442 1069 m 548 632 l 548 600 q 724 442 548 467 q 887 600 887 477 l 887 613 q 760 784 887 735 l 697 784 q 548 632 548 746 m 206 613 l 206 605 q 301 505 233 505 l 342 505 q 439 627 423 505 q 323 730 439 705 q 206 613 206 713 z "},"":{"ha":1351,"x_min":0,"x_max":1213,"o":"m 635 1213 q 1175 825 971 1213 q 1213 602 1213 703 q 882 57 1213 255 q 591 0 776 0 q 43 336 195 0 q 0 616 0 488 q 380 1169 0 979 q 635 1213 507 1213 m 640 1107 q 1009 667 890 933 q 1082 396 1082 518 l 1088 396 q 1142 586 1142 477 l 1142 610 q 811 1101 1088 892 q 738 1126 800 1101 q 640 1107 667 1107 m 76 735 q 190 833 190 808 q 499 1128 222 949 l 491 1128 q 130 868 266 1061 q 76 735 76 768 m 461 996 l 461 985 q 892 258 757 779 q 982 315 960 258 q 998 336 990 315 q 726 905 854 770 q 562 1050 597 1039 l 461 996 m 396 944 q 339 884 396 939 q 317 803 317 857 q 651 269 507 681 q 811 247 754 247 l 811 252 q 472 887 743 605 l 407 944 l 396 944 m 100 662 l 100 564 q 288 637 136 581 l 288 643 q 212 730 228 730 q 100 662 106 675 m 114 467 q 214 288 114 396 l 220 288 q 420 450 282 323 q 334 564 355 548 l 323 564 q 114 467 285 564 m 288 203 q 388 130 288 198 q 524 239 524 231 q 483 358 524 252 q 288 203 328 222 m 496 71 q 591 57 556 57 l 610 57 q 968 182 719 57 l 968 187 q 618 152 741 98 q 496 71 499 84 z "},"":{"ha":1516,"x_min":0,"x_max":1204,"o":"m 602 1215 q 1139 892 941 1215 q 1204 613 1204 757 q 806 41 1204 209 q 583 0 675 0 q 168 174 385 0 q 0 613 0 353 l 0 637 q 179 1042 0 876 q 602 1215 388 1215 m 491 1069 l 491 990 q 624 928 499 990 q 814 977 724 958 l 814 1050 q 637 1118 814 1101 q 600 1123 632 1123 q 491 1069 575 1107 m 320 1044 q 168 884 206 958 l 149 849 l 155 849 q 252 844 187 849 l 382 977 l 382 1023 l 388 1031 q 320 1044 347 1044 m 648 713 q 800 553 795 553 q 909 594 909 553 q 963 798 963 784 q 852 876 860 876 q 689 836 716 854 q 648 713 689 825 m 1069 779 q 982 461 982 472 q 1053 361 1004 361 l 1063 355 q 1126 559 1126 469 l 1126 589 q 1080 773 1126 773 l 1069 779 m 109 711 q 90 572 95 635 q 136 391 90 494 l 155 391 q 228 429 228 391 l 282 616 q 228 716 236 713 l 222 716 q 109 711 184 716 m 350 385 l 445 288 q 713 350 700 339 l 751 461 q 589 637 722 483 q 399 597 407 608 q 350 385 393 559 m 374 122 q 629 84 505 84 q 822 119 822 100 q 827 163 827 141 l 827 165 q 735 203 827 174 q 380 133 380 157 l 374 122 z "},"":{"ha":1237,"x_min":0,"x_max":1240,"o":"m 917 1139 q 1221 1025 1096 1139 q 1240 873 1240 936 q 963 241 1240 540 q 518 19 757 65 q 412 0 469 0 l 404 0 q 5 171 54 0 q 0 241 0 214 l 0 252 q 431 1012 0 716 q 917 1139 597 1139 m 873 1050 q 1001 909 941 998 l 1077 990 q 879 1050 1001 1050 l 873 1050 m 214 618 q 366 369 353 380 q 423 410 423 404 l 423 418 q 385 499 385 475 q 404 524 393 524 l 423 524 l 472 448 q 518 499 518 480 q 486 575 486 556 l 486 589 q 499 600 488 600 l 510 600 q 562 524 529 594 q 613 562 583 532 l 613 570 q 567 646 567 616 q 586 670 578 670 l 600 670 q 662 600 608 670 q 708 646 673 600 q 662 713 684 656 q 689 746 675 743 l 694 746 q 732 689 732 719 l 746 689 q 863 817 863 808 q 673 996 757 993 q 228 656 491 985 q 214 618 214 635 m 1066 822 q 1126 722 1096 792 l 1139 722 l 1147 865 l 1142 909 q 1066 822 1131 909 m 836 591 l 903 515 q 873 486 892 486 q 798 548 863 486 l 789 548 q 751 510 781 548 q 808 439 751 505 q 784 401 798 401 q 694 472 749 420 q 656 429 656 431 q 716 382 665 429 l 716 369 q 689 334 713 347 q 613 391 654 353 l 608 391 q 570 358 570 369 q 627 296 627 307 q 594 263 616 263 q 513 320 586 263 q 442 269 448 288 q 605 133 575 141 q 1015 488 890 244 l 1034 526 q 941 708 949 708 q 836 591 846 591 m 127 499 q 95 328 103 445 q 125 220 92 274 q 239 277 231 277 l 239 290 q 133 499 133 464 l 127 499 m 193 144 l 193 130 q 437 81 309 81 l 456 81 q 301 195 456 87 q 193 144 206 144 z "},"":{"ha":1202,"x_min":0,"x_max":1172,"o":"m 553 1172 l 624 1172 q 1137 814 941 1172 q 1172 608 1172 700 l 1172 564 q 795 30 1172 212 q 613 0 694 0 l 559 0 q 60 312 250 0 q 0 553 0 426 l 0 618 q 312 1112 0 922 q 553 1172 426 1172 m 331 686 q 320 732 320 708 l 328 827 q 385 1042 323 936 l 380 1042 q 236 917 258 993 q 212 787 212 819 l 212 692 l 217 681 l 206 675 q 117 751 174 675 q 90 648 117 743 q 228 545 144 553 q 263 434 239 526 q 247 429 252 429 q 103 486 201 429 l 125 374 q 231 336 152 345 q 312 323 312 347 q 339 274 339 282 q 244 198 282 244 q 336 130 323 130 q 418 174 372 174 q 570 84 488 100 q 716 114 681 98 q 543 217 624 130 l 602 225 q 895 212 732 241 l 955 285 q 871 298 887 298 q 529 301 654 323 l 467 298 q 423 369 450 304 q 966 572 751 407 q 1061 673 1061 654 q 1017 789 1031 789 q 556 499 811 562 q 355 467 453 469 q 331 551 331 540 q 449 631 369 559 q 575 815 529 703 q 779 990 621 928 q 876 1025 876 1020 l 779 1072 q 477 849 570 990 q 355 692 423 713 q 331 686 345 686 z "},"":{"ha":1202,"x_min":0,"x_max":1196,"o":"m 369 1023 l 391 1023 q 610 968 505 1023 q 789 1001 711 1001 q 1153 789 1009 1001 q 1196 632 1196 703 l 1196 621 q 1088 304 1196 491 q 1082 277 1082 296 q 1191 109 1082 247 l 1191 98 q 1061 0 1161 68 q 952 201 958 201 q 779 184 833 184 q 575 239 675 184 q 401 190 483 190 q 293 206 396 190 q 201 43 252 206 q 184 27 193 43 q 22 103 95 43 l 22 109 l 119 250 q 125 298 125 279 l 125 315 q 0 600 0 445 l 0 605 q 163 968 0 844 q 369 1023 260 1023 m 109 675 l 111 608 q 382 510 114 600 l 377 586 q 472 901 353 776 q 505 925 491 925 q 366 949 502 944 q 125 795 184 939 q 109 675 106 722 m 464 591 l 464 572 q 583 347 464 410 l 1042 730 q 808 906 971 906 l 779 906 q 464 591 464 906 z "},"":{"ha":1202,"x_min":0,"x_max":1142,"o":"m 586 1128 q 1066 827 852 1128 q 1142 545 1142 673 q 898 114 1142 336 q 556 0 754 0 l 540 0 q 57 323 222 0 q 0 562 0 453 q 165 966 0 746 q 586 1128 336 1128 m 605 1028 l 529 977 l 562 944 l 597 963 l 613 944 l 583 922 l 618 882 l 640 906 l 665 882 l 651 854 l 675 830 l 703 846 l 705 849 l 732 825 l 711 792 l 732 779 l 760 803 l 776 784 l 754 754 l 776 735 l 803 762 l 825 738 l 800 708 l 822 689 l 849 713 l 873 689 l 854 659 l 884 629 l 909 656 l 936 632 l 911 600 l 958 567 l 979 602 l 1028 605 l 1044 629 l 1020 654 l 1034 686 l 1006 711 l 979 689 l 944 719 l 974 754 l 941 784 l 906 760 l 868 789 l 909 819 l 876 846 l 841 830 l 814 849 l 846 873 l 830 887 l 795 873 l 776 890 l 808 906 l 781 930 l 751 909 l 732 928 l 762 947 l 743 960 l 719 947 q 705 966 705 955 l 724 979 l 703 998 l 681 982 q 656 1004 673 982 q 684 1015 678 1015 l 662 1047 l 605 1028 m 203 681 l 220 789 l 155 795 q 114 543 100 703 l 168 543 l 184 613 l 247 613 q 247 551 255 613 l 296 545 l 315 591 q 382 567 382 581 l 339 505 l 407 486 q 450 532 412 486 l 529 491 l 477 431 l 529 382 l 594 439 q 643 363 627 426 l 543 312 l 556 250 l 665 279 l 675 201 l 567 176 l 553 117 q 838 217 730 100 l 814 271 l 738 228 l 711 326 l 795 377 l 773 429 l 692 388 l 673 456 q 741 507 711 472 l 703 562 l 632 496 l 602 556 l 654 616 l 597 659 l 534 589 q 461 618 472 618 q 486 708 494 708 l 429 722 l 410 656 q 347 678 347 670 l 347 719 l 353 751 q 307 770 347 776 q 274 708 285 770 l 263 684 l 203 681 z "},"":{"ha":741,"x_min":0,"x_max":738,"o":"m 312 637 l 418 635 l 526 632 l 632 629 l 738 627 l 635 464 l 529 301 l 426 138 l 320 -24 l 255 -27 l 293 81 l 334 193 l 372 304 l 410 415 l 307 412 l 206 407 l 103 404 l 0 399 l 60 570 l 117 741 l 176 911 l 203 996 l 233 1082 l 345 1080 l 401 1080 l 456 1080 l 420 968 l 385 860 l 347 749 l 312 637 z "},"":{"ha":1172,"x_min":0,"x_max":1172,"o":"m 648 597 l 648 494 l 648 391 l 648 288 l 648 184 q 621 72 646 117 q 555 5 597 27 q 429 -22 513 -16 q 327 4 377 -22 q 251 77 277 30 q 225 244 225 125 l 334 244 q 349 132 334 152 q 381 96 363 111 q 431 81 399 81 q 488 94 461 81 q 524 129 515 106 q 532 184 532 152 l 532 288 l 532 391 l 532 494 l 532 545 l 532 597 q 391 548 467 589 q 385 545 388 548 q 353 564 369 556 q 157 616 258 616 q 19 578 76 616 l 0 605 l 38 708 q 165 879 84 808 l 252 941 q 467 1015 366 1001 l 545 1017 l 564 1096 l 605 1099 l 624 1017 l 692 1015 q 922 941 787 1009 l 1023 879 q 1172 597 1147 768 l 1147 559 q 1001 616 1090 613 q 817 564 892 624 q 787 545 800 556 q 779 548 784 548 q 648 597 705 589 z "},"":{"ha":1044,"x_min":-3,"x_max":1050,"o":"m 524 814 q 685 773 608 814 q 803 655 762 732 q 844 496 844 578 q 803 335 844 412 q 685 217 762 258 q 524 176 608 176 q 365 217 442 176 q 247 335 288 258 q 206 496 206 412 q 247 655 206 578 q 365 773 288 732 q 524 814 442 814 m 486 789 l 486 903 l 486 1015 l 524 1015 l 562 1015 l 562 903 l 562 789 l 486 789 m 486 -30 l 486 84 l 486 195 l 562 195 l 562 84 l 562 -30 l 486 -30 m 222 458 l 111 458 l -3 458 l -3 496 l -3 532 l 111 532 l 222 532 l 222 458 m 1050 458 l 939 458 l 825 458 l 825 496 l 825 532 l 939 532 l 1050 532 l 1050 458 m 285 681 l 206 762 l 125 841 l 179 892 l 260 814 l 339 735 l 285 681 m 871 98 l 792 176 l 711 255 l 762 309 l 844 231 l 922 149 l 871 98 m 711 735 l 792 814 l 871 892 l 898 868 l 922 841 l 844 762 l 762 681 l 738 708 l 711 735 m 125 149 l 206 231 l 285 309 l 339 255 l 260 176 l 179 98 l 152 125 l 125 149 z "},"":{"ha":1443,"x_min":0,"x_max":1242,"o":"m 659 868 l 703 868 q 963 732 863 863 l 1006 624 q 1025 543 1006 610 l 1055 551 l 1088 551 q 1242 391 1242 513 l 1242 345 q 1093 184 1204 184 l 1050 184 q 852 14 987 14 q 678 92 779 14 q 534 0 610 0 l 515 0 q 323 133 396 0 q 179 65 258 65 q 0 266 24 65 l 0 271 q 87 431 0 355 l 87 496 q 260 730 87 662 l 347 730 q 415 716 407 716 q 659 868 510 868 z "},"":{"ha":920,"x_min":-3,"x_max":936,"o":"m 930 233 l 911 209 q 892 203 892 203 q 841 220 868 203 q 792 250 817 233 q 795 136 792 206 q 741 160 760 146 q 722 190 722 174 q 723 205 722 193 q 724 225 724 217 q 705 288 724 255 q 610 347 692 301 l 524 279 l 521 258 l 524 155 l 616 98 l 618 71 l 616 8 q 567 38 591 22 q 524 57 540 54 l 524 -49 l 418 -43 l 418 22 l 415 62 l 410 62 q 347 8 404 46 l 339 8 l 339 103 q 385 133 363 117 q 412 160 415 152 l 412 288 l 410 290 l 336 342 q 247 290 252 296 q 228 277 233 282 q 231 245 228 274 q 233 190 233 217 l 233 190 q 149 133 214 165 q 144 231 152 239 q 65 201 95 198 q 19 285 52 228 l 84 328 q 0 366 46 342 l 68 415 l 160 380 q 274 439 241 418 l 279 537 l 163 600 l 65 545 l -3 586 q 87 637 38 608 q 0 689 52 662 l 0 694 q 43 781 0 703 l 49 784 l 136 735 l 130 838 q 203 798 160 822 q 212 692 203 757 q 331 627 296 637 l 404 670 q 410 784 410 675 l 331 849 l 331 944 l 399 890 q 404 955 407 906 q 404 1015 401 1004 q 505 1015 450 1020 l 515 1009 l 515 890 l 518 887 l 600 939 l 600 854 q 521 795 562 827 q 515 716 515 716 l 518 675 l 524 670 l 597 627 q 692 686 637 646 q 703 724 705 689 q 700 784 700 770 l 700 789 l 789 838 l 779 738 l 784 735 l 873 781 l 925 686 l 844 632 q 920 591 865 627 l 860 545 l 770 583 l 665 532 l 659 439 q 765 377 681 426 l 863 420 l 930 385 l 925 374 q 844 334 882 350 l 936 279 l 930 233 z "},"":{"ha":1053,"x_min":0,"x_max":1061,"o":"m 556 1090 l 705 1074 q 1061 730 947 1023 l 1055 730 q 781 887 933 887 l 760 887 q 480 741 567 882 l 448 635 q 439 570 439 597 l 439 564 q 507 335 429 410 q 686 247 586 260 q 760 239 724 239 l 787 239 q 1047 339 876 239 q 1055 331 1047 331 q 795 52 977 157 q 600 0 662 0 l 505 0 q 202 109 307 24 q 43 326 98 193 q 0 548 0 426 q 113 883 5 754 q 345 1063 220 1012 q 556 1090 434 1090 z "},"":{"ha":1302,"x_min":0,"x_max":629,"o":"m 388 1318 q 562 1183 529 1308 q 551 1025 572 1093 q 467 922 529 958 l 426 898 l 426 803 q 545 754 467 806 q 629 581 624 705 q 426 347 621 385 l 426 342 q 425 198 426 312 q 362 42 423 84 q 212 0 301 0 l 198 0 q 46 84 84 0 q 35 168 33 125 q 133 266 54 266 l 157 266 q 250 182 239 266 l 250 155 q 220 109 250 141 l 222 109 q 317 195 309 100 l 320 231 q 317 345 320 269 q 98 415 193 336 q 0 621 0 494 q 49 821 5 760 q 146 921 92 882 q 301 998 201 960 q 304 1164 304 1093 l 304 1191 q 388 1318 304 1310 m 429 1199 l 429 1047 q 488 1123 477 1066 q 467 1204 499 1175 q 429 1199 434 1234 m 141 597 q 285 472 165 488 l 301 472 l 309 475 l 309 491 q 309 700 309 524 q 263 659 269 689 q 271 578 263 635 q 247 567 266 559 q 195 654 195 589 q 312 789 203 746 l 312 865 q 165 753 206 825 q 141 597 125 681 m 423 708 l 423 705 q 426 475 423 567 q 526 551 510 499 q 517 652 543 602 q 423 708 491 703 z "},"":{"ha":781,"x_min":0,"x_max":784,"o":"m 467 171 q 406 46 453 81 q 309 -9 358 11 q 206 -30 260 -30 q 103 -9 152 -30 q 27 52 54 11 q 0 138 0 92 q 27 222 0 182 q 103 283 54 263 q 206 304 152 304 q 309 285 260 304 q 331 271 326 277 l 331 458 l 331 648 l 331 836 l 331 1023 l 412 1023 q 685 924 589 1023 q 784 648 781 825 l 694 648 q 628 793 681 762 q 467 825 575 825 l 467 662 l 467 499 l 467 334 l 467 171 z "},"":{"ha":911,"x_min":0,"x_max":914,"o":"m 407 665 l 407 488 l 407 312 l 407 133 l 407 -43 q 366 -127 407 -84 q 281 -191 326 -171 q 187 -212 236 -212 q 91 -191 136 -212 q 23 -134 46 -171 q 0 -57 0 -98 q 23 20 0 -16 q 91 76 46 57 q 187 95 136 95 q 279 76 236 95 q 304 62 293 71 l 304 233 l 304 404 l 304 575 l 304 746 l 456 803 l 610 857 l 762 914 l 914 968 l 914 762 l 914 559 l 914 353 l 914 250 l 914 146 q 891 69 914 106 q 823 12 868 33 q 730 -8 779 -8 q 633 12 678 -8 q 566 69 589 33 q 543 146 543 106 q 566 224 543 187 q 633 279 589 260 q 730 298 678 298 q 789 274 779 298 q 814 260 803 269 l 814 401 l 814 540 l 814 681 l 814 819 l 713 781 l 610 743 l 510 703 l 407 665 z "},"":{"ha":1006,"x_min":0,"x_max":1017,"o":"m 304 949 l 393 949 l 483 949 l 572 949 l 662 949 l 749 949 l 838 949 l 928 949 l 1017 949 l 1017 749 l 1017 548 l 1017 347 l 1017 146 q 993 69 1017 106 q 924 12 968 33 q 830 -8 879 -8 q 736 12 781 -8 q 667 69 692 33 q 643 146 643 106 q 667 224 643 187 q 731 278 692 260 q 822 296 770 296 q 887 279 854 293 q 911 266 898 274 l 911 358 l 911 448 l 911 540 l 911 629 l 789 629 l 665 629 l 543 629 l 418 629 l 418 510 l 418 388 l 418 269 l 418 146 q 372 69 418 106 q 281 12 326 33 q 187 -8 236 -8 q 91 12 136 -8 q 23 69 46 33 q 0 146 0 106 q 23 224 0 187 q 91 279 46 260 q 187 298 136 298 q 279 279 236 298 q 304 266 293 274 l 304 437 l 304 608 l 304 779 l 304 949 m 418 836 l 418 732 l 543 732 l 665 732 l 789 732 l 849 732 l 911 732 l 911 836 l 789 836 l 665 836 l 543 836 l 418 836 z "},"":{"ha":475,"x_min":3,"x_max":475,"o":"m 347 1015 l 412 1015 l 475 1012 l 475 792 l 475 575 l 475 355 l 475 209 l 475 114 q 414 41 456 71 q 320 -11 372 11 q 214 -33 269 -33 q 106 -11 157 -33 q 28 50 54 11 q 3 136 3 90 q 28 220 3 179 q 106 281 54 260 q 214 301 157 301 q 320 282 269 301 q 347 266 334 274 l 347 453 l 347 640 l 347 827 l 347 1015 z "},"":{"ha":366,"x_min":0,"x_max":415,"o":"m 277 1074 q 404 993 377 1066 l 415 947 l 415 884 q 290 770 385 806 l 217 760 l 146 749 l 146 586 q 146 315 144 420 l 146 209 l 239 266 q 323 336 309 320 q 345 401 345 382 l 355 401 q 363 369 363 377 l 363 312 q 274 160 363 228 l 184 92 q 144 22 144 54 l 146 3 l 141 0 l 76 0 l 0 3 l 3 206 q 3 507 3 410 l 3 602 l 3 770 q 0 892 3 817 q 84 1034 3 977 q 277 1074 184 1090 z "},"":{"ha":1221,"x_min":5,"x_max":1221,"o":"m 309 1015 l 917 1015 q 1044 798 925 1012 q 1221 486 1221 496 q 1017 127 1221 477 q 917 -43 928 -35 l 309 -43 q 41 418 279 0 q 5 488 5 477 q 309 1015 301 1006 m 366 844 q 534 545 534 553 l 407 95 l 798 95 l 798 98 l 689 543 q 857 836 857 830 l 836 873 l 833 873 l 613 502 l 610 502 l 399 873 l 388 873 l 366 844 m 477 882 l 477 879 l 610 803 l 746 882 l 477 882 m 174 513 l 174 513 l 176 513 l 176 477 l 328 198 l 328 776 l 328 779 l 174 513 m 895 770 l 895 187 l 1047 486 l 1047 510 l 1047 513 l 895 770 z "},"":{"ha":852,"x_min":-3,"x_max":857,"o":"m 854 1023 l 857 827 q 852 803 857 808 q 830 792 846 798 q 817 722 817 784 q 819 651 817 694 q 826 538 822 608 q 836 366 830 469 q 844 179 841 263 q 784 50 844 100 q 628 -22 724 0 q 423 -43 532 -43 q 264 -33 342 -43 q 136 -5 187 -22 q 31 58 65 22 q -3 138 -3 95 q 23 216 -3 179 q 84 271 49 252 q 160 290 117 290 q 206 288 174 290 q 266 285 239 285 q 358 290 307 285 q 418 486 418 296 q 415 575 418 532 q 407 700 412 618 q 401 803 401 781 q 389 808 399 806 q 374 814 380 811 q 369 827 369 817 l 369 1023 l 854 1023 m 781 960 l 450 960 l 450 863 l 779 863 l 781 960 m 472 760 l 472 656 l 575 656 l 575 760 l 472 760 m 659 757 l 659 662 l 762 662 l 762 757 l 659 757 m 581 597 l 581 486 l 705 486 l 705 597 l 581 597 m 496 410 l 496 298 l 597 298 l 597 410 l 496 410 m 521 187 l 521 24 l 586 24 l 586 187 l 521 187 m 182 209 l 106 209 l 106 114 l 182 114 l 182 209 m 231 106 l 231 30 l 366 30 l 366 106 l 231 106 m 670 266 l 670 155 l 768 155 l 768 266 l 670 266 m 317 231 l 317 157 l 453 157 l 453 231 l 317 231 z "},"":{"ha":960,"x_min":3,"x_max":963,"o":"m 467 434 q 521 449 496 434 q 560 488 545 464 q 575 543 575 513 q 560 597 575 572 q 521 635 545 621 q 467 648 496 648 q 412 635 437 648 q 374 597 388 621 q 361 543 361 572 q 374 490 361 515 q 412 449 388 464 q 467 434 437 434 m 524 206 q 524 186 524 195 q 525 170 524 176 q 529 157 526 163 q 555 178 578 160 q 524 206 532 195 m 637 87 q 606 76 621 81 q 581 66 591 71 q 562 62 570 62 q 594 -8 562 30 q 548 -24 567 -16 q 521 -41 529 -33 q 499 5 510 -24 q 483 60 488 35 q 467 18 472 30 q 431 -41 461 5 q 353 -24 410 -38 q 378 20 363 -8 q 396 62 393 49 q 309 90 361 71 q 277 81 288 81 q 266 84 271 81 q 271 111 266 92 q 132 214 193 149 q 37 363 71 279 q 3 543 3 448 q 66 779 3 670 q 240 951 130 887 q 480 1015 350 1015 q 720 951 608 1015 q 898 779 833 887 q 963 543 963 670 q 930 370 963 453 q 840 222 898 288 q 708 114 781 157 q 727 81 722 98 q 700 73 719 73 q 637 87 678 73 m 437 149 q 439 165 437 152 q 444 186 442 179 q 448 206 445 193 q 391 157 420 179 q 437 149 418 149 m 670 233 q 761 316 722 269 q 823 423 800 363 q 846 545 846 483 q 796 727 846 643 q 662 860 746 811 q 477 909 578 909 q 300 860 382 909 q 168 727 217 811 q 119 545 119 643 q 140 422 119 480 q 199 315 160 363 q 290 233 239 266 q 263 309 279 279 q 263 315 263 312 q 336 326 263 320 q 245 438 263 393 q 225 564 228 483 q 274 692 236 643 q 366 766 312 741 q 491 787 420 792 q 605 754 559 784 q 681 677 651 724 q 711 551 711 629 q 686 425 705 472 q 627 339 667 377 q 670 263 670 288 l 670 233 z "},"":{"ha":1457,"x_min":0,"x_max":1457,"o":"m 1188 1104 l 1153 1017 q 1175 981 1156 1001 q 1234 922 1194 960 q 1297 856 1275 884 q 1318 808 1318 827 q 1310 784 1318 792 q 1286 773 1302 773 q 1236 787 1272 773 q 1180 807 1199 800 q 1131 814 1161 814 q 1142 656 1142 749 q 1109 431 1142 510 q 1218 214 1164 301 q 1375 355 1305 263 l 1457 288 q 1265 109 1373 179 q 1038 5 1158 38 q 792 -27 917 -27 q 575 -4 684 -27 q 363 64 467 19 q 170 170 260 109 q 0 309 79 231 l 65 404 q 285 250 182 304 q 309 309 304 288 q 319 446 315 331 q 351 597 323 562 q 385 648 380 632 q 334 722 358 722 q 294 703 317 722 q 244 652 271 684 q 174 621 217 621 q 65 697 125 621 q 165 726 125 697 q 235 795 206 754 q 289 873 263 836 q 339 914 315 911 q 381 899 366 914 q 427 818 396 884 q 464 741 458 751 q 549 686 483 705 q 700 667 616 667 q 846 686 784 667 q 909 738 909 705 q 906 754 909 746 q 977 901 925 779 q 1062 1023 1028 1023 q 1119 1055 1096 1023 q 1188 1104 1142 1088 m 949 355 q 811 328 901 323 q 651 335 727 328 q 524 374 575 342 l 410 176 q 487 138 429 160 q 629 103 545 117 q 798 90 713 90 q 1109 168 987 90 l 949 355 z "},"":{"ha":1066,"x_min":3,"x_max":1066,"o":"m 830 1161 q 846 1161 836 1161 q 863 1161 857 1161 q 982 1134 936 1161 q 1047 1062 1028 1107 q 1066 958 1066 1017 q 1004 700 1066 846 q 971 692 993 692 q 917 701 947 692 q 871 724 887 711 q 880 755 871 724 q 897 819 890 787 q 903 882 903 852 q 857 949 903 949 q 825 944 844 949 q 779 901 800 936 q 736 811 757 865 q 694 686 716 757 q 656 570 673 616 q 781 594 722 594 q 944 521 884 594 l 895 347 q 738 391 792 391 q 654 366 689 391 l 762 22 q 713 -26 749 -11 q 640 -41 678 -41 q 613 -38 629 -41 l 524 182 l 456 -19 q 376 -9 412 -19 q 315 35 339 0 l 418 380 q 363 381 391 380 q 328 382 336 382 q 304 378 312 382 q 289 366 296 374 q 250 315 282 358 l 203 537 q 277 594 222 594 q 347 582 301 594 q 410 570 393 570 q 331 799 374 694 q 247 914 288 903 q 222 920 236 920 q 179 857 179 920 q 191 773 179 819 q 212 705 203 727 q 176 661 212 675 q 106 646 141 646 q 87 648 92 646 q 3 898 3 762 q 46 1048 3 985 q 174 1131 90 1112 q 217 1137 203 1137 q 332 1097 282 1137 q 418 998 382 1058 q 484 859 453 939 q 532 741 515 779 q 575 873 545 787 q 636 1019 605 960 q 716 1116 667 1077 q 830 1161 765 1156 m 879 1093 l 882 1012 l 909 998 l 971 1050 q 879 1093 944 1093 m 87 996 l 171 952 q 212 968 182 966 l 198 1066 q 190 1066 195 1066 q 149 1057 174 1066 q 106 1031 125 1047 q 87 996 87 1015 m 727 1028 q 704 1002 716 1020 q 684 968 692 985 q 662 922 675 952 l 716 884 q 754 955 735 933 l 727 1028 m 372 979 l 320 920 q 353 882 345 898 q 382 819 361 865 l 437 857 q 418 911 431 887 q 372 979 404 936 m 955 876 l 941 795 q 963 787 947 787 q 971 787 966 787 q 982 787 977 787 q 998 826 990 798 q 1009 882 1006 854 l 955 876 m 60 846 q 60 838 60 844 q 72 779 60 814 q 100 724 84 743 q 149 749 149 724 q 140 776 144 760 q 134 808 136 792 q 130 841 133 825 l 60 846 m 591 730 l 551 613 q 583 624 564 624 q 610 613 602 624 l 635 689 l 591 730 m 477 738 l 434 697 l 453 637 l 458 637 l 486 724 l 477 738 m 581 353 l 545 228 l 562 228 q 640 252 627 228 l 605 355 q 600 358 605 358 q 581 353 586 358 m 461 380 l 420 252 q 442 235 426 247 q 467 220 458 222 q 475 222 475 220 l 515 347 q 502 345 513 342 q 476 355 488 345 q 461 380 464 366 m 401 133 l 380 62 q 420 41 393 41 q 429 41 426 41 l 453 117 q 401 133 415 117 m 681 122 q 624 100 659 100 l 616 100 l 648 30 q 680 37 667 33 q 703 54 692 41 l 681 122 z "},"":{"ha":822,"x_min":-3,"x_max":825,"o":"m 366 160 l 366 233 l 477 233 l 477 160 q 526 118 496 152 q 556 41 556 84 q 519 -41 556 -5 q 418 -79 483 -76 q 312 -42 350 -76 q 274 41 274 -8 q 307 119 274 84 q 366 160 339 155 m 464 1147 l 464 1025 q 585 922 537 1020 q 655 696 632 825 q 704 445 678 567 q 765 323 730 323 l 825 323 l 825 174 l -3 174 l -3 323 l 57 323 q 119 446 95 323 q 165 697 144 570 q 236 921 187 825 q 355 1025 285 1017 l 355 1147 l 464 1147 z "},"":{"ha":958,"x_min":-5,"x_max":963,"o":"m 507 990 q 544 920 526 960 q 572 857 562 879 q 616 803 583 836 q 642 789 621 798 q 673 773 662 781 q 689 751 684 765 q 689 749 689 751 q 689 743 689 746 q 677 718 689 727 q 646 704 665 708 q 605 694 627 700 q 632 642 610 665 q 699 583 654 618 q 762 532 743 548 q 792 494 781 515 q 760 464 792 464 q 736 465 751 464 q 716 467 722 467 q 703 464 705 467 q 760 399 713 431 q 849 335 806 366 q 901 274 892 304 q 901 263 901 269 q 873 239 901 239 q 854 240 868 239 q 833 241 841 241 q 817 239 825 241 q 856 178 822 206 q 925 119 890 149 q 963 60 960 90 q 922 31 960 38 q 817 24 884 24 q 768 26 800 24 q 724 27 735 27 q 656 19 665 27 l 656 -68 q 646 -73 651 -73 q 628 -65 640 -73 q 605 -57 616 -57 q 537 -46 567 -57 q 507 -30 529 -30 q 481 -35 496 -30 q 446 -47 467 -41 q 420 -57 426 -54 q 372 -68 388 -68 q 361 -65 366 -68 l 361 30 q 260 19 331 24 q 133 8 190 14 q 60 3 76 3 q 12 12 30 3 q -5 41 -5 22 q 46 103 -5 71 q 88 122 73 114 q 110 137 103 130 q 122 152 117 144 q 138 176 127 160 q 88 187 106 176 q 71 212 71 198 q 76 220 71 217 q 145 267 122 252 q 180 294 168 282 q 198 321 193 307 q 206 363 203 336 q 179 368 198 366 q 155 372 160 369 q 133 404 133 388 q 152 441 133 420 q 212 491 171 461 q 270 536 252 521 q 293 567 288 551 q 269 570 279 570 q 244 568 258 570 q 225 567 231 567 q 209 581 209 567 q 217 608 209 589 q 264 655 225 624 q 323 705 304 686 q 342 749 342 724 q 339 762 342 751 q 279 789 279 765 q 288 814 279 800 q 338 878 309 852 q 388 924 366 903 q 431 990 410 944 q 464 1015 445 1015 q 507 990 486 1015 m 404 806 q 420 854 420 841 q 410 868 420 868 q 374 848 396 868 q 350 808 353 827 q 377 795 350 795 q 404 806 401 795 m 553 776 q 510 784 532 784 q 483 768 488 784 q 496 746 480 751 q 518 743 510 741 q 545 739 524 743 q 582 735 567 735 q 605 743 597 735 q 589 765 610 757 q 568 772 581 768 q 553 776 556 776 m 304 608 q 315 602 304 602 q 327 602 317 602 q 345 602 336 602 q 420 589 382 602 q 431 586 426 586 q 444 594 439 586 q 448 616 448 602 q 442 636 448 627 q 423 648 437 646 q 354 644 380 648 q 317 632 328 640 q 304 608 307 624 m 670 532 q 651 553 665 543 q 616 581 637 564 q 586 605 594 597 q 578 608 583 608 q 572 605 575 608 q 570 597 570 602 q 586 562 570 581 q 625 530 602 543 q 662 518 648 518 q 675 521 675 518 q 670 532 675 526 m 209 412 q 220 410 214 410 q 247 414 225 410 q 282 418 269 418 q 326 404 309 418 q 347 399 331 399 q 382 404 363 399 q 410 415 401 410 q 415 420 415 418 q 410 429 415 423 q 380 439 399 439 q 361 438 372 439 q 345 437 350 437 q 320 442 328 437 q 309 464 309 448 q 311 472 309 467 q 312 480 312 477 q 309 486 312 486 q 304 483 307 486 q 293 467 298 477 q 283 450 288 456 q 271 442 279 445 q 243 438 263 439 q 212 434 222 437 q 201 426 201 431 q 209 412 201 420 m 781 290 q 781 294 781 293 q 781 296 781 296 q 768 320 781 309 q 726 347 754 331 q 678 377 697 363 q 646 410 659 391 q 621 434 629 434 q 613 429 616 434 q 604 407 610 423 q 591 382 597 391 q 589 374 589 380 q 602 357 589 363 q 640 350 616 350 q 656 350 651 350 q 690 340 678 350 q 726 307 703 331 q 762 282 749 282 q 781 290 770 282 m 250 274 q 225 260 241 269 q 202 245 209 252 q 195 231 195 239 q 203 217 195 222 q 241 206 214 206 q 312 214 263 206 q 377 222 361 222 q 393 231 393 222 q 388 239 393 236 q 350 244 372 244 q 327 243 342 244 q 307 241 312 241 q 293 247 298 241 q 282 260 288 252 q 273 274 277 269 q 260 279 269 279 q 250 274 258 279 m 857 87 q 841 98 849 95 q 823 95 836 98 q 798 95 811 92 q 765 100 787 95 q 743 106 754 106 q 711 102 722 109 q 697 87 700 95 q 711 76 697 79 q 827 68 784 71 q 853 69 844 68 q 863 73 863 71 q 857 87 863 79 m 122 46 q 193 52 144 49 q 267 54 241 54 q 296 57 293 54 q 296 62 296 60 q 277 68 296 68 q 254 66 271 68 q 228 65 236 65 q 212 68 217 65 q 133 81 157 81 q 81 65 106 81 q 73 57 73 60 q 83 49 73 52 q 103 46 92 46 q 122 46 109 46 m 486 157 q 518 165 507 165 q 533 160 524 165 q 556 155 543 155 q 586 157 567 155 q 627 164 608 163 q 669 167 646 165 q 699 168 692 168 q 705 174 705 168 q 703 176 705 174 l 673 201 q 659 203 665 203 q 642 201 651 203 q 614 191 632 198 q 587 182 597 184 q 570 179 578 179 q 534 198 551 198 q 503 186 524 198 q 472 168 483 174 q 449 160 461 168 q 437 149 437 152 q 442 144 437 144 q 486 157 456 144 z "},"":{"ha":1215,"x_min":-3,"x_max":1215,"o":"m 724 798 l 1215 798 l 1215 -49 l 0 -49 l -3 -52 l -3 798 l 505 798 q 477 841 505 819 q 397 891 450 863 q 323 935 345 920 q 301 966 301 949 q 317 985 301 977 q 426 1012 374 1012 q 627 822 559 1012 q 671 901 632 857 q 761 979 711 944 q 841 1015 811 1015 q 963 952 963 987 q 935 917 963 933 q 850 875 906 901 q 764 831 795 849 q 724 798 732 814 m 168 719 q 118 700 138 719 q 98 656 98 681 q 119 612 98 632 q 168 591 141 591 q 220 610 198 591 q 241 656 241 629 q 221 701 241 684 q 168 719 201 719 m 317 475 q 210 437 255 475 q 165 345 165 399 q 210 248 165 288 q 317 209 255 209 q 423 248 380 209 q 467 345 467 288 q 448 410 467 380 q 393 457 429 439 q 317 475 358 475 m 977 711 q 925 692 949 708 q 887 648 901 675 q 873 589 873 621 q 903 505 873 540 q 977 469 933 469 q 1051 505 1020 469 q 1082 589 1082 540 q 1051 674 1082 637 q 977 711 1020 711 m 537 670 q 472 642 499 670 q 445 572 445 613 q 472 502 445 532 q 537 472 499 472 q 602 502 575 472 q 629 572 629 532 q 617 620 629 597 q 583 656 605 643 q 537 670 562 670 m 749 423 q 678 399 708 423 q 648 339 648 374 q 678 278 648 304 q 749 252 708 252 q 819 278 789 252 q 849 339 849 304 q 819 399 849 374 q 749 423 789 423 m 165 130 q 114 115 136 130 q 92 79 92 100 q 114 42 92 57 q 165 27 136 27 q 218 42 195 27 q 241 79 241 57 q 220 115 241 100 q 165 130 198 130 m 562 171 q 511 153 532 171 q 491 109 491 136 q 511 65 491 84 q 562 46 532 46 q 612 64 591 46 q 632 109 632 81 q 612 153 632 136 q 562 171 591 171 m 966 206 q 898 179 928 206 q 868 114 868 152 q 898 50 868 76 q 966 24 928 24 q 1038 50 1006 24 q 1069 114 1069 76 q 1038 179 1069 152 q 966 206 1006 206 m 1215 442 q 1124 410 1161 442 q 1088 331 1088 377 q 1124 248 1088 282 q 1215 214 1161 214 l 1215 442 z "},"":{"ha":629,"x_min":-8,"x_max":624,"o":"m 5 377 l 239 377 l 239 -35 l 5 -35 l 5 377 m 298 -35 l 298 377 l 624 377 l 624 -35 l 298 -35 m 301 583 q 152 609 220 581 q 46 674 84 637 q 4 750 8 711 q 30 819 0 789 q 107 840 60 844 q 199 804 155 836 q 279 715 244 773 q 301 583 315 656 m 285 589 q 313 678 290 637 q 366 751 336 719 q 431 803 396 784 q 500 829 467 822 q 562 827 534 836 q 600 792 589 819 q 605 724 616 760 q 555 659 594 689 q 448 610 515 629 q 285 589 380 591 m 239 445 l 5 445 l 5 605 l 239 605 l 239 445 m 624 445 l 298 445 l 298 605 l 624 605 l 624 445 m 534 925 q 461 864 502 898 q 385 787 420 830 q 326 685 350 743 q 301 529 301 627 q 281 680 279 624 q 296 777 282 735 q 332 852 309 819 q 381 909 355 884 q 433 954 407 933 q 472 996 458 974 l 461 922 l 534 925 m 60 958 l 24 1020 q 100 978 54 1001 q 189 911 146 955 q 263 798 231 868 q 309 616 296 727 q 243 741 282 686 q 161 833 203 795 q 76 897 119 871 q -8 936 33 922 l 60 958 m 496 743 q 464 751 486 754 q 418 735 442 749 q 372 697 393 722 q 339 640 350 673 q 395 646 361 637 q 457 669 429 654 q 499 703 486 684 q 496 743 513 722 m 117 746 q 117 715 109 732 q 142 681 125 697 q 186 652 160 665 q 241 640 212 640 q 232 667 239 651 q 214 700 225 684 q 190 731 203 716 q 163 753 176 746 q 137 760 149 760 q 117 746 125 760 m 624 334 l 548 334 l 548 567 l 624 567 l 624 334 m 90 334 l 5 334 l 5 567 l 90 567 l 90 334 m 467 605 l 467 521 l 144 521 l 144 605 l 467 605 m 434 46 l 434 -38 l 201 -38 l 201 46 l 434 46 z "},"":{"ha":1058,"x_min":-8,"x_max":1066,"o":"m 71 751 q 210 909 125 846 q 393 997 296 971 q 595 1010 491 1023 q 792 944 700 998 q 949 804 887 890 q 1039 621 1012 719 q 1053 419 1066 524 q 985 220 1039 315 q 846 64 930 125 q 663 -23 762 3 q 461 -37 564 -49 q 263 30 358 -24 q 106 170 168 84 q 18 353 43 255 q 4 553 -8 450 q 71 751 16 656 m 434 350 q 476 519 469 480 q 486 589 483 559 l 241 206 q 294 159 260 182 q 358 119 328 136 q 514 81 442 81 q 652 103 586 81 q 777 167 719 125 q 873 274 836 209 q 895 315 884 296 q 911 353 906 334 l 543 567 q 559 509 548 537 q 643 382 570 480 q 620 370 640 382 q 548 347 600 358 q 468 340 496 336 q 434 350 439 345 m 933 464 q 928 557 936 505 q 897 658 920 610 q 838 746 873 705 q 762 817 803 787 q 646 876 708 860 l 548 713 l 700 746 l 632 627 l 933 464 m 171 673 q 140 581 152 627 q 127 487 127 534 q 136 399 127 439 q 168 304 144 358 l 358 624 q 311 589 336 608 q 250 499 285 570 q 248 534 247 499 q 239 587 250 570 q 208 618 228 605 q 179 643 187 632 l 187 659 q 277 661 252 654 q 345 675 301 667 l 222 749 q 171 673 190 713 m 532 892 q 408 875 464 890 q 296 817 353 860 l 339 792 l 401 860 l 439 746 q 445 749 445 749 l 532 892 z "},"":{"ha":1039,"x_min":0,"x_max":1042,"o":"m 393 724 q 380 743 382 732 q 377 754 377 749 q 377 765 377 760 q 382 776 380 770 q 391 787 385 781 q 399 792 393 789 q 418 792 407 795 q 429 787 423 789 q 453 776 437 787 q 486 754 464 765 q 518 716 507 730 l 524 713 l 518 711 q 393 724 434 678 m 616 708 q 507 716 567 681 l 502 716 l 507 722 q 513 724 507 722 q 529 735 521 730 q 570 757 553 749 q 591 765 583 762 q 600 765 594 765 q 616 762 610 768 q 624 757 621 762 q 632 738 629 749 q 629 730 632 735 q 629 722 629 727 q 616 708 624 713 m 806 624 l 415 624 l 415 477 l 806 477 l 806 624 m 757 393 l 415 393 l 415 171 l 757 171 l 757 393 m 355 624 l 233 624 l 233 480 l 355 480 l 355 624 m 353 393 l 285 393 l 285 176 l 353 176 l 353 393 m 385 822 q 345 789 358 814 q 336 762 336 776 q 353 716 336 735 l 353 713 q 355 713 353 716 q 366 705 361 708 q 401 684 380 692 q 510 708 453 667 l 513 708 l 513 708 q 684 713 616 651 q 694 762 694 735 q 686 789 694 779 q 646 822 673 814 l 646 822 q 635 825 640 825 q 594 806 616 825 q 540 738 567 784 q 518 654 529 716 q 475 762 496 732 q 439 806 456 789 q 396 825 415 825 q 385 822 391 825 m 152 857 q 521 1009 304 1009 q 890 857 735 1009 q 1042 488 1042 705 q 890 119 1042 274 q 521 -33 735 -33 q 152 119 304 -33 q 0 488 0 274 q 152 857 0 705 m 350 678 l 347 675 l 350 678 z "},"":{"ha":1053,"x_min":3,"x_max":1053,"o":"m 760 193 l 537 735 l 613 692 l 564 776 l 640 827 l 545 827 l 521 914 l 486 830 l 388 830 l 469 779 l 423 700 l 499 735 l 315 193 l 494 193 l 499 133 l 586 133 l 586 193 l 760 193 m 155 857 q 529 1012 309 1012 q 898 857 743 1012 q 1053 488 1053 703 q 898 114 1053 269 q 529 -38 743 -38 q 155 114 309 -38 q 3 488 3 269 q 155 857 3 703 z "},"":{"ha":1058,"x_min":0,"x_max":1058,"o":"m 0 488 q 42 693 0 597 q 156 863 84 789 q 324 977 228 936 q 529 1017 420 1017 q 736 977 640 1017 q 905 863 833 936 q 1017 693 977 789 q 1058 488 1058 597 q 1017 281 1058 377 q 905 113 977 184 q 736 0 833 41 q 529 -41 640 -41 q 324 0 420 -41 q 156 113 228 41 q 42 281 84 184 q 0 488 0 377 m 138 491 q 155 382 141 426 q 190 312 168 339 q 319 389 269 345 q 401 488 369 434 q 471 628 434 543 q 532 808 507 713 q 572 684 545 757 q 639 532 600 610 q 724 397 678 453 q 873 301 770 342 q 907 377 892 331 q 922 491 922 423 q 892 643 922 572 q 810 766 863 713 q 686 850 757 819 q 534 884 616 882 q 377 853 448 884 q 254 768 307 822 q 170 643 201 713 q 138 491 138 572 m 591 114 q 723 159 662 125 q 811 233 784 193 q 728 206 792 225 q 591 182 665 187 l 591 114 m 258 228 q 346 157 285 190 q 477 114 407 125 l 477 182 q 416 189 448 184 q 354 198 385 193 q 305 209 323 203 q 258 228 288 214 m 534 749 l 453 692 l 483 787 l 404 844 l 502 844 l 534 939 l 564 844 l 665 844 l 583 787 l 613 692 l 534 749 z "},"":{"ha":1004,"x_min":-3,"x_max":1009,"o":"m 1009 779 q 909 627 1006 773 l 846 659 q 770 534 798 589 l 616 534 l 583 515 l 616 494 q 762 488 719 496 l 830 380 l 892 415 l 990 255 l 979 241 l 787 241 l 779 296 l 776 298 l 670 298 q 583 429 621 355 l 548 453 l 548 453 l 543 429 q 572 353 543 410 q 618 277 597 315 l 556 171 q 616 133 594 144 l 548 -8 l 545 -8 l 526 -43 l 521 -43 q 412 125 486 14 l 475 163 q 445 220 472 168 q 407 271 426 258 q 458 358 458 355 q 483 450 483 407 l 475 453 q 410 382 439 434 q 363 298 388 342 l 225 298 q 225 247 220 296 l 24 247 l 35 271 q 81 334 46 277 q 127 407 122 401 l 182 372 q 220 429 201 388 q 255 491 250 483 l 407 491 l 445 513 l 401 540 q 247 543 347 540 l 168 673 q 95 640 100 640 l -3 811 l 11 817 q 206 808 76 819 q 203 732 203 787 l 209 727 q 266 730 231 727 q 326 730 309 730 l 355 727 q 407 637 404 640 q 483 570 442 589 q 488 597 488 597 q 453 673 488 616 q 407 749 410 743 l 477 873 l 415 917 l 507 1088 q 564 1006 529 1066 q 613 917 589 960 q 551 873 591 901 l 621 741 q 578 667 600 705 q 545 597 545 616 l 548 572 l 553 570 q 616 640 583 589 q 670 722 643 681 l 814 724 l 814 738 q 814 795 814 757 l 838 795 q 930 791 863 798 q 1009 779 998 784 z "},"":{"ha":1142,"x_min":0,"x_max":1139,"o":"m 697 1020 q 823 963 757 1020 q 933 849 890 906 q 974 690 977 792 q 982 589 971 589 q 1055 602 1025 602 q 1139 534 1139 602 q 1104 431 1139 488 q 1067 387 1090 407 q 1028 366 1044 366 q 1017 369 1020 366 q 947 388 974 388 q 924 410 939 391 q 909 453 909 429 q 887 505 909 475 q 865 545 865 534 q 884 570 865 559 q 890 629 884 581 q 861 704 895 678 q 827 648 827 730 q 827 627 827 635 q 829 613 827 621 q 830 602 830 605 q 814 547 830 570 q 751 486 798 524 q 766 453 754 467 q 804 419 779 439 q 841 385 830 399 q 852 361 852 372 q 844 342 852 347 q 807 317 827 323 q 757 311 787 312 q 715 304 727 309 q 703 279 703 298 q 705 266 703 271 q 722 174 722 190 q 708 142 722 149 q 643 119 694 136 q 540 79 591 103 q 522 58 529 73 q 505 8 515 43 q 484 -43 494 -27 q 464 -60 475 -60 q 453 -57 461 -60 q 285 -14 355 -14 q 225 -20 255 -14 q 187 -27 195 -27 q 152 -8 171 -27 q 121 15 141 5 q 66 37 100 24 q 16 57 33 49 q 0 79 0 65 q 3 87 0 81 q 11 111 11 98 q 5 144 11 119 q 0 187 0 168 q 20 214 3 206 q 56 229 38 222 q 76 258 73 236 q 113 290 76 271 q 152 315 149 309 q 155 317 155 317 q 136 340 155 323 q 117 361 117 358 q 119 366 117 366 q 160 387 149 380 q 171 393 171 393 q 164 400 171 396 q 130 415 157 404 q 114 437 114 423 q 136 475 114 456 q 92 543 92 515 q 233 610 92 597 q 252 633 244 613 q 271 677 260 654 q 293 705 282 700 q 279 757 279 732 q 353 827 279 811 q 433 860 396 836 q 524 930 469 884 q 616 998 578 977 q 697 1020 654 1020 m 353 776 q 339 773 342 776 q 353 751 334 762 q 388 734 377 741 q 429 708 399 727 q 486 674 458 689 q 553 640 513 659 q 598 620 575 629 q 629 606 621 610 q 665 589 637 602 q 705 583 678 583 q 735 591 732 583 q 732 600 738 594 q 690 627 716 613 q 643 648 665 640 q 635 648 637 648 q 629 651 632 651 q 624 654 627 651 q 581 671 602 659 q 517 708 559 684 q 448 746 475 732 q 396 768 420 760 q 353 776 372 776 m 353 678 q 334 655 342 670 q 317 621 326 640 q 301 587 309 602 q 282 572 293 572 q 201 562 241 572 q 160 524 160 551 q 179 486 160 507 q 220 467 195 467 q 259 476 233 467 q 288 486 285 486 q 309 488 296 488 q 363 481 331 488 q 407 475 396 475 q 442 524 439 475 q 446 552 445 543 q 454 575 448 562 q 467 608 461 589 q 410 650 442 627 q 353 678 377 673 m 285 578 q 301 624 312 602 q 353 587 342 602 q 363 556 363 572 q 365 556 363 556 q 366 556 366 556 q 345 570 361 562 q 285 578 328 578 m 222 304 q 220 301 220 301 q 227 293 220 298 q 236 283 233 288 q 239 274 239 279 q 212 252 236 266 q 187 236 187 239 q 183 217 187 225 q 174 209 179 209 q 138 190 138 201 q 141 176 138 187 q 144 155 144 165 q 141 136 144 144 q 151 127 141 130 q 182 115 160 125 q 218 98 203 106 q 241 76 233 90 q 250 73 244 73 q 274 79 252 73 q 317 84 296 84 q 415 57 361 84 q 422 65 418 57 q 433 94 426 73 q 444 125 439 114 q 456 138 448 136 q 506 163 486 155 q 540 175 526 171 q 557 180 553 179 q 562 187 562 182 q 556 206 562 187 q 548 247 551 225 q 563 277 548 271 q 594 283 578 282 q 616 293 610 285 q 616 298 616 296 q 609 321 616 307 q 590 351 602 336 q 572 385 578 366 q 536 412 559 396 q 541 483 513 429 q 526 534 570 537 q 521 515 524 526 q 472 439 518 505 q 350 399 385 399 q 320 403 339 399 q 293 407 301 407 q 282 404 288 407 q 263 389 277 404 q 227 368 250 374 q 203 358 203 361 q 206 353 203 355 q 237 338 217 342 q 273 332 258 334 q 288 328 288 331 q 222 304 288 328 m 987 540 q 955 524 955 532 q 959 511 955 521 q 963 494 963 502 q 971 456 963 458 q 996 452 982 456 q 1012 448 1009 448 q 1044 475 1028 448 q 1058 515 1058 502 q 1020 543 1058 543 q 987 540 1001 543 z "},"":{"ha":920,"x_min":-3,"x_max":936,"o":"m 930 233 l 911 209 q 892 203 892 203 q 841 220 868 203 q 792 250 817 233 q 795 136 792 206 q 716 179 735 165 q 697 209 697 193 q 699 224 697 212 q 700 244 700 236 q 681 307 700 274 q 610 347 667 320 q 613 231 613 312 q 524 279 581 250 l 521 258 l 524 209 l 616 152 l 618 125 l 616 8 q 567 38 591 22 q 524 57 540 54 l 524 -49 l 418 -43 l 418 22 l 415 62 l 410 62 q 347 8 404 46 l 339 8 l 339 157 q 385 187 363 171 q 412 214 415 206 l 412 288 l 410 290 l 336 236 l 336 342 q 277 307 282 312 q 258 293 263 298 q 260 262 258 290 q 263 206 263 233 l 263 206 q 149 133 214 165 q 144 231 152 239 q 65 201 95 198 q 19 285 52 228 l 84 328 q 0 366 46 342 l 111 434 l 203 399 q 274 439 241 418 l 187 480 q 279 537 231 505 l 206 575 l 109 521 l -3 586 q 87 637 38 608 q 0 689 52 662 l 0 694 q 43 781 0 703 l 49 784 l 136 735 l 130 838 q 255 768 160 822 q 263 662 255 727 q 331 627 296 637 q 328 719 331 646 l 331 724 l 404 670 q 410 749 410 675 l 331 814 l 331 944 l 399 890 q 404 955 407 906 q 404 1015 401 1004 q 505 1015 450 1020 l 515 1009 l 515 890 l 518 887 l 600 939 l 600 811 q 521 751 562 784 q 515 716 515 716 l 518 675 l 524 670 l 600 724 q 597 627 600 684 q 665 665 637 646 q 675 703 678 667 q 673 762 673 749 l 673 768 l 789 838 l 779 738 l 784 735 l 873 781 l 925 686 l 844 632 q 920 591 865 627 l 825 532 l 735 570 l 665 532 q 700 513 673 529 q 749 488 724 502 q 659 439 700 461 q 730 401 681 426 l 827 445 l 930 385 l 925 374 q 844 334 882 350 l 936 279 l 930 233 z "},"":{"ha":1096,"x_min":-3,"x_max":1090,"o":"m 795 372 q 909 271 871 334 q 944 157 949 225 q 871 3 949 60 q 746 -35 814 -43 q 597 49 654 -30 q 540 187 559 106 q 477 49 524 106 q 336 -35 420 -30 q 217 -3 274 -35 q 133 144 133 60 q 171 271 133 206 q 288 372 217 334 q 138 382 212 361 q 41 445 87 401 q -3 564 3 491 q 8 627 -3 589 q 190 757 54 757 q 252 746 217 757 q 385 665 331 719 q 347 814 347 735 q 393 944 347 887 q 524 1006 439 1001 q 689 944 637 1012 q 727 798 732 882 q 697 665 722 724 q 814 741 751 719 q 892 757 857 757 q 1074 627 1034 757 q 1080 548 1090 589 q 1047 458 1074 496 q 955 388 1006 407 q 795 372 882 361 m 553 722 l 556 618 q 594 610 575 618 q 629 697 618 654 q 608 838 651 789 q 551 865 586 863 q 483 841 507 871 q 456 697 439 787 q 494 613 461 656 q 526 621 510 621 l 532 722 l 553 722 m 808 521 l 716 480 q 722 445 722 464 q 814 442 770 437 q 936 515 909 456 q 941 581 952 545 q 892 635 930 621 q 751 602 827 654 q 686 537 716 583 q 705 510 700 524 l 800 543 l 808 521 m 277 534 l 377 510 q 393 543 382 529 q 320 600 358 578 q 179 616 236 646 q 136 567 149 602 q 144 494 122 526 q 277 434 184 439 q 366 448 315 426 q 366 480 363 467 l 271 513 l 277 534 m 353 231 l 418 309 q 399 339 407 320 q 315 298 350 323 q 236 179 233 244 q 258 119 233 146 q 326 92 288 90 q 442 182 393 103 q 469 269 464 214 q 439 285 453 274 l 369 214 l 353 231 m 713 206 l 646 282 q 613 266 629 271 q 640 176 621 217 q 743 81 681 90 q 806 95 776 76 q 844 157 841 119 q 773 285 844 225 q 692 328 743 315 q 673 301 684 309 l 730 220 l 713 206 z "},"":{"ha":1006,"x_min":0,"x_max":1015,"o":"m 928 581 q 987 553 971 575 q 1009 499 1009 526 q 987 439 1015 461 q 928 418 971 418 q 906 418 922 418 l 618 461 q 608 445 618 450 l 841 277 q 884 201 884 239 q 863 141 890 163 q 808 119 841 114 q 727 163 760 114 l 559 396 q 543 385 553 385 l 586 98 q 586 81 586 87 q 564 22 586 49 q 505 -5 543 -5 q 450 16 477 -11 q 423 81 423 38 q 423 98 429 87 l 467 391 q 450 396 456 391 l 277 157 q 206 119 250 119 q 152 141 179 114 q 125 195 130 163 q 168 277 125 244 l 401 445 q 396 461 401 450 l 103 418 q 81 418 92 418 q 22 439 43 418 q 0 499 0 461 q 22 559 0 532 q 81 581 43 581 q 103 581 92 575 l 396 537 q 401 553 401 548 l 163 727 q 125 803 119 760 q 152 857 130 836 q 212 879 179 884 q 277 841 255 873 l 450 602 q 467 613 461 602 l 423 901 q 423 928 423 906 q 445 982 429 966 q 505 1004 472 1004 q 559 982 532 1004 q 586 922 586 960 q 586 901 586 911 l 543 613 q 559 602 553 608 l 732 841 q 808 879 765 884 q 857 857 836 873 q 884 803 884 836 q 846 727 890 754 l 608 553 q 618 537 618 543 l 906 581 q 928 581 922 575 z "},"":{"ha":1031,"x_min":-5,"x_max":1025,"o":"m 944 760 q 1015 662 993 722 q 1025 602 1025 624 q 987 494 1025 537 q 890 423 949 445 q 830 412 863 412 q 722 450 776 412 q 711 418 722 434 q 863 336 808 418 q 901 228 901 288 q 814 65 901 136 q 711 33 770 33 q 548 119 624 33 q 515 222 515 157 q 526 282 515 250 q 510 282 521 277 q 494 282 505 282 q 505 222 505 250 q 467 114 510 157 q 309 33 407 33 q 195 71 244 33 q 119 206 125 119 q 157 336 114 277 q 309 418 217 418 q 298 450 304 434 q 184 412 250 412 q 130 423 157 412 q 33 494 76 445 q -5 602 -5 543 q 5 662 -5 624 q 76 760 27 716 q 184 798 125 798 q 244 787 217 798 q 369 662 336 754 q 396 684 385 667 q 320 857 309 749 q 385 982 326 928 q 510 1031 439 1031 q 656 960 597 1031 q 700 857 694 917 q 624 684 711 738 q 651 662 646 673 q 776 787 684 749 q 830 798 808 798 q 944 760 890 798 m 564 437 q 600 507 600 469 q 575 570 600 543 q 505 602 543 602 q 437 575 464 602 q 410 507 410 548 q 434 448 410 475 q 505 412 464 412 q 564 437 537 412 z "},"":{"ha":781,"x_min":0,"x_max":784,"o":"m 467 171 q 406 46 453 81 q 309 -9 358 11 q 206 -30 260 -30 q 103 -9 152 -30 q 27 52 54 11 q 0 138 0 92 q 27 222 0 182 q 103 283 54 263 q 206 304 152 304 q 309 285 260 304 q 331 271 326 277 l 331 1023 l 412 1023 q 685 924 589 1023 q 784 648 781 825 l 694 654 q 628 793 681 762 q 467 825 575 825 l 467 171 z "},"":{"ha":911,"x_min":0,"x_max":914,"o":"m 407 665 l 407 -43 q 366 -127 407 -84 q 281 -191 326 -171 q 187 -212 236 -212 q 91 -191 136 -212 q 23 -134 46 -171 q 0 -57 0 -98 q 23 20 0 -16 q 91 76 46 57 q 187 95 136 95 q 279 76 236 95 q 304 62 293 71 l 304 746 l 914 968 l 914 146 q 891 69 914 106 q 823 12 868 33 q 730 -8 779 -8 q 633 12 678 -8 q 566 69 589 33 q 543 146 543 106 q 566 224 543 187 q 633 279 589 260 q 730 298 678 298 q 789 274 779 298 q 814 260 803 269 l 814 819 l 407 665 z "},"":{"ha":1006,"x_min":0,"x_max":1017,"o":"m 304 949 l 1017 949 l 1017 146 q 993 69 1017 106 q 924 12 968 33 q 830 -8 879 -8 q 736 12 781 -8 q 667 69 692 33 q 643 146 643 106 q 667 224 643 187 q 731 278 692 260 q 822 296 770 296 q 887 279 854 293 q 911 266 898 274 l 911 629 l 418 629 l 418 146 q 372 69 418 106 q 281 12 326 33 q 187 -8 236 -8 q 91 12 136 -8 q 23 69 46 33 q 0 146 0 106 q 23 224 0 187 q 91 279 46 260 q 187 298 136 298 q 279 279 236 298 q 304 266 293 274 l 304 949 m 418 836 l 418 732 l 911 732 l 911 836 l 418 836 z "},"":{"ha":475,"x_min":3,"x_max":475,"o":"m 347 1015 l 475 1012 l 475 136 q 423 50 475 90 q 320 -11 372 11 q 214 -33 269 -33 q 106 -11 157 -33 q 28 50 54 11 q 3 136 3 90 q 28 220 3 179 q 106 281 54 260 q 214 301 157 301 q 320 282 269 301 q 347 266 334 274 l 347 1015 z "},"":{"ha":1050,"x_min":3,"x_max":1058,"o":"m 567 727 l 1058 410 l 944 410 l 944 -41 l 738 -41 l 738 410 l 532 543 l 323 410 l 320 -41 l 117 -41 l 117 410 l 3 410 l 494 727 l 494 825 l 380 825 l 380 901 l 494 901 l 494 1015 l 567 1015 l 567 901 l 681 901 l 681 825 l 567 825 l 567 727 m 532 336 q 586 321 559 336 q 629 279 613 307 q 643 222 629 277 l 768 -41 l 279 -41 l 418 222 q 431 279 431 277 q 475 321 448 307 q 532 336 502 336 z "},"":{"ha":860,"x_min":3,"x_max":865,"o":"m 201 808 q 213 762 201 784 q 248 728 225 741 q 298 716 271 716 q 347 728 323 716 q 384 762 372 741 q 396 808 396 784 q 384 856 396 833 q 347 890 372 879 q 298 901 323 901 q 248 890 271 901 q 213 856 225 879 q 201 808 201 833 m 350 583 q 298 581 339 581 q 187 609 241 581 q 104 690 133 637 q 76 803 76 743 q 104 913 76 860 q 187 994 133 966 q 298 1023 241 1023 q 411 994 358 1023 q 492 913 464 966 q 521 803 521 860 q 491 692 521 743 q 464 648 472 654 l 545 513 q 559 613 540 537 q 617 753 581 689 q 697 844 654 817 q 757 863 730 863 q 779 860 770 863 q 841 804 817 849 q 865 686 865 760 q 846 537 865 610 q 788 397 825 461 q 711 309 751 334 q 703 282 703 304 q 830 19 703 217 l 703 -43 q 526 198 575 198 q 518 195 524 198 q 401 174 475 174 q 252 193 328 174 q 114 251 176 214 q 22 331 52 288 q 3 391 3 363 q 5 412 3 401 q 62 475 16 450 q 182 499 109 499 q 331 477 255 499 q 437 442 404 458 l 350 583 z "},"":{"ha":990,"x_min":-3,"x_max":996,"o":"m 410 841 q 420 798 410 819 q 452 765 431 776 q 496 754 472 754 q 540 765 518 754 q 572 798 562 776 q 583 841 583 819 q 572 886 583 865 q 540 917 562 906 q 496 928 518 928 q 452 917 472 928 q 420 886 431 906 q 410 841 410 865 m 439 665 q 407 684 431 667 q 340 749 363 705 q 317 838 317 792 q 340 928 317 884 q 407 994 363 971 q 496 1017 450 1017 q 586 994 543 1017 q 652 928 629 971 q 675 838 675 884 q 652 749 675 792 q 586 684 629 705 q 559 665 559 667 l 559 616 l 746 616 l 746 483 l 564 483 l 564 106 q 692 141 624 111 q 787 214 746 174 l 732 271 l 996 331 l 936 68 l 879 119 q 760 30 838 79 q 499 -30 632 -30 q 222 49 366 -30 q 114 125 160 81 l 57 68 l -3 331 l 260 271 l 214 225 q 307 157 252 184 q 448 109 393 111 l 448 483 l 247 483 l 247 616 l 439 616 l 439 665 z "},"":{"ha":1012,"x_min":0,"x_max":1017,"o":"m 507 1015 q 762 949 640 1015 q 951 761 884 884 q 1017 499 1017 637 q 951 239 1017 361 q 762 50 884 117 q 507 -16 640 -16 q 254 50 377 -16 q 65 239 130 117 q 0 499 0 361 q 65 761 0 637 q 254 949 130 884 q 507 1015 377 1015 m 442 892 q 290 846 363 887 q 156 713 203 800 q 109 526 109 627 q 157 339 109 426 q 190 288 171 309 l 442 537 l 442 892 m 244 201 q 304 160 271 176 q 453 114 377 119 l 453 410 l 244 201 m 562 114 q 713 160 637 119 q 770 201 743 176 l 562 410 l 562 114 m 819 288 q 854 339 838 309 q 901 526 901 426 q 853 713 901 627 q 719 849 806 800 q 567 895 646 887 l 567 540 l 819 288 z "},"":{"ha":884,"x_min":-3,"x_max":890,"o":"m 388 293 q 220 190 328 193 q 62 248 127 190 q -3 426 -3 307 q 442 1017 -3 662 q 890 426 890 662 q 825 248 890 307 q 665 190 760 190 q 477 290 526 187 q 703 46 502 46 l 741 46 l 741 -33 l 144 -33 l 144 46 l 182 46 q 388 293 377 46 z "},"":{"ha":1004,"x_min":0,"x_max":1004,"o":"m 559 231 q 754 54 600 54 l 789 54 l 789 -24 l 214 -24 l 214 54 l 250 54 q 453 231 404 54 l 453 328 l 415 328 q 393 290 410 323 q 316 209 366 236 q 209 182 266 182 q 104 209 155 182 q 27 289 54 236 q 0 399 0 342 q 27 506 0 453 q 104 586 54 559 q 209 613 155 613 q 316 586 266 613 q 393 507 366 559 q 415 458 410 472 l 453 458 l 453 586 q 396 610 429 591 q 317 689 345 637 q 290 798 290 741 q 317 906 290 854 q 395 986 345 958 q 502 1015 445 1015 q 606 986 556 1015 q 684 906 656 958 q 711 798 711 854 q 684 689 711 741 q 608 610 656 637 q 559 586 572 591 l 559 458 l 586 458 q 610 507 594 472 q 688 586 637 559 q 795 613 738 613 q 899 586 849 613 q 977 506 949 559 q 1004 399 1004 453 q 977 289 1004 342 q 899 209 949 236 q 795 182 849 182 q 688 209 738 182 q 610 290 637 236 q 586 328 591 323 l 559 328 l 559 231 z "},"":{"ha":1058,"x_min":3,"x_max":1061,"o":"m 1061 486 q 532 -38 684 336 q 3 486 380 336 q 532 1009 380 635 q 1061 486 684 635 z "},"":{"ha":1025,"x_min":3,"x_max":1031,"o":"m 518 -30 q 189 389 374 250 q 3 716 3 529 q 77 940 3 865 q 260 1015 152 1015 q 518 773 453 1015 q 773 1015 581 1015 q 956 940 882 1015 q 1031 716 1031 865 q 845 389 1031 529 q 518 -30 659 250 z "},"":{"ha":1085,"x_min":-3,"x_max":1112,"o":"m 556 203 l 212 -46 l 342 361 l -3 610 l 423 610 l 556 1015 l 686 610 l 1112 610 l 768 358 l 901 -46 l 556 203 z "},"":{"ha":1172,"x_min":0,"x_max":1172,"o":"m 648 597 l 648 184 q 621 72 646 117 q 555 5 597 27 q 429 -22 513 -16 q 327 4 377 -22 q 251 77 277 30 q 225 244 225 125 l 334 244 q 349 132 334 152 q 381 96 363 111 q 431 81 399 81 q 488 94 461 81 q 524 129 515 106 q 532 184 532 152 l 532 597 q 391 548 467 589 q 385 545 388 548 q 353 564 369 556 q 157 616 258 616 q 19 578 76 616 l 0 605 q 252 941 57 825 q 545 1017 385 1009 l 564 1096 l 605 1099 l 624 1017 q 922 941 787 1009 q 1172 597 1123 817 l 1147 559 q 1001 616 1090 613 q 817 564 892 624 q 787 545 800 556 q 779 548 784 548 q 648 597 705 589 z "},"":{"ha":1044,"x_min":-3,"x_max":1050,"o":"m 524 814 q 685 773 608 814 q 803 655 762 732 q 844 496 844 578 q 803 335 844 412 q 685 217 762 258 q 524 176 608 176 q 365 217 442 176 q 247 335 288 258 q 206 496 206 412 q 247 655 206 578 q 365 773 288 732 q 524 814 442 814 m 486 789 l 486 1015 l 562 1015 l 562 789 l 486 789 m 486 -30 l 486 195 l 562 195 l 562 -30 l 486 -30 m 222 458 l -3 458 l -3 532 l 222 532 l 222 458 m 1050 458 l 825 458 l 825 532 l 1050 532 l 1050 458 m 285 681 l 125 841 l 179 892 l 339 735 l 285 681 m 871 98 l 711 255 l 762 309 l 922 149 l 871 98 m 711 735 l 871 892 l 922 841 l 762 681 l 711 735 m 125 149 l 285 309 l 339 255 l 179 98 l 125 149 z "},"":{"ha":741,"x_min":0,"x_max":738,"o":"m 312 637 l 738 627 l 285 -54 l 434 415 l 0 399 l 456 1080 l 312 637 z "},"":{"ha":1017,"x_min":-3,"x_max":1023,"o":"m 510 -30 q 183 389 369 250 q -3 716 -3 529 q 72 940 -3 865 q 252 1015 146 1015 q 510 860 448 1015 q 768 1015 575 1015 q 948 940 873 1015 q 1023 716 1023 865 q 838 389 1023 529 q 510 -30 654 250 m 505 643 q 214 853 339 906 q 130 689 90 800 q 262 507 171 578 q 510 250 353 437 q 753 522 629 423 q 890 708 876 621 q 802 860 903 795 q 505 643 700 925 z "},"":{"ha":1050,"x_min":0,"x_max":1047,"o":"m 762 163 l 670 442 l 909 613 l 616 613 l 524 892 l 434 613 l 141 613 l 377 442 l 288 163 l 524 334 l 762 163 m 524 1017 q 785 949 659 1017 q 979 755 911 882 q 1047 494 1047 629 q 979 232 1047 358 q 785 38 911 106 q 524 -30 659 -30 q 262 38 388 -30 q 68 232 136 106 q 0 494 0 358 q 68 755 0 629 q 262 949 136 882 q 524 1017 388 1017 z "},"":{"ha":1039,"x_min":-3,"x_max":1044,"o":"m 521 1012 q 783 944 656 1012 q 977 751 909 876 q 1044 488 1044 627 q 977 227 1044 353 q 783 33 909 100 q 521 -35 656 -35 q 259 33 385 -35 q 65 227 133 100 q -3 488 -3 353 q 65 751 -3 627 q 259 944 133 876 q 521 1012 385 1012 m 258 684 q 244 637 244 662 q 256 590 244 613 q 290 556 269 567 q 336 545 312 545 q 382 556 361 545 q 416 590 404 567 q 429 637 429 613 q 416 684 429 662 q 382 718 404 705 q 336 730 361 730 q 290 716 312 730 q 271 703 279 711 l 258 684 m 624 684 q 613 637 613 662 q 625 590 613 613 q 659 556 637 567 q 705 545 681 545 q 751 556 730 545 q 785 590 773 567 q 798 637 798 613 q 785 684 798 662 q 751 718 773 705 q 705 730 730 730 q 659 716 681 730 q 640 703 648 711 l 624 684 m 795 380 q 526 236 703 239 q 255 377 317 244 l 146 377 q 160 355 152 366 q 311 193 206 252 q 524 133 415 133 q 723 186 629 133 q 882 355 817 239 q 892 380 887 366 l 795 380 z "},"":{"ha":1044,"x_min":-3,"x_max":1050,"o":"m 524 1009 q 788 941 662 1009 q 982 747 914 873 q 1050 483 1050 621 q 982 221 1050 347 q 788 26 914 95 q 524 -43 662 -43 q 260 26 388 -43 q 65 221 133 95 q -3 483 -3 347 q 65 747 -3 621 q 260 941 133 873 q 524 1009 388 1009 m 220 477 q 336 179 220 288 q 445 125 388 136 l 469 119 l 469 174 q 439 187 450 176 q 423 252 423 206 l 423 700 q 456 773 423 762 l 469 779 l 469 833 q 358 789 412 825 q 220 477 220 681 m 581 833 l 581 781 l 602 773 q 624 711 624 751 l 624 239 q 589 176 624 190 l 581 174 l 581 122 q 665 146 610 122 q 808 331 760 198 q 827 472 827 401 l 827 480 q 697 787 827 678 q 586 833 662 817 l 581 833 z "},"":{"ha":1063,"x_min":3,"x_max":1063,"o":"m 534 1020 q 799 951 670 1020 q 996 754 928 882 q 1063 488 1063 627 q 996 222 1063 350 q 799 26 928 95 q 534 -43 670 -43 q 267 26 396 -43 q 71 222 138 95 q 3 488 3 350 q 71 754 3 627 q 267 951 138 882 q 534 1020 396 1020 m 363 814 q 391 789 363 792 q 423 773 415 789 q 429 741 429 760 l 429 247 q 401 214 429 220 q 369 198 369 209 q 366 184 366 198 l 366 179 q 396 157 374 157 l 407 157 l 648 157 q 689 182 689 160 l 689 187 q 640 217 689 212 q 624 263 624 222 l 624 857 q 380 841 380 846 q 363 814 363 830 z "},"":{"ha":1039,"x_min":-14,"x_max":1044,"o":"m 540 873 l 540 822 q 570 787 562 808 q 581 689 581 760 q 534 529 581 570 q 431 448 502 499 q 388 396 393 410 l 388 396 q 475 420 437 420 q 640 496 540 461 q 773 686 773 562 q 670 846 773 792 q 540 873 618 873 m 274 711 l 274 705 q 334 613 274 646 q 377 605 355 605 q 469 667 437 605 q 475 700 475 684 l 475 700 q 426 784 475 754 q 418 795 418 789 l 418 798 q 448 814 426 808 l 450 814 l 450 868 q 328 817 380 857 q 274 711 274 768 m 700 320 l 692 320 q 510 347 662 320 q 456 350 488 350 q 285 247 334 350 q 271 195 271 220 l 271 184 q 293 160 271 163 l 298 160 q 342 187 307 160 q 374 195 361 195 q 515 160 439 187 q 605 144 567 144 q 727 195 667 144 q 789 301 770 244 q 798 355 798 331 l 798 363 q 770 393 792 393 q 743 358 751 393 q 700 320 735 320 m 515 1015 q 781 945 654 1015 q 977 749 909 876 q 1044 486 1044 621 q 977 220 1044 347 q 781 24 909 92 q 515 -43 654 -43 q 251 24 377 -43 q 56 220 125 92 q -14 486 -14 347 q 56 749 -14 621 q 251 945 125 876 q 515 1015 377 1015 z "},"":{"ha":1036,"x_min":-11,"x_max":1039,"o":"m 551 852 l 551 798 q 591 776 575 795 q 608 727 608 762 l 608 586 q 548 532 608 540 q 513 510 515 532 l 513 502 q 564 477 513 477 q 597 456 589 472 q 608 410 608 445 l 608 263 q 556 193 608 203 q 551 190 556 190 l 551 136 l 575 136 q 787 236 716 136 q 814 331 814 279 q 768 448 814 396 q 659 502 738 477 l 659 502 q 727 532 700 515 q 800 673 800 583 q 694 822 800 770 q 551 852 637 852 m 288 689 q 342 602 288 629 q 377 597 355 597 q 461 654 434 597 q 467 686 467 673 q 439 743 467 727 q 415 773 415 760 q 439 792 420 784 q 458 800 458 798 l 458 849 q 336 798 391 838 q 288 689 288 749 m 263 293 q 369 157 263 203 q 458 136 410 144 l 458 190 l 448 190 q 401 206 420 190 l 399 206 l 399 212 q 429 239 399 217 q 456 301 456 269 q 401 382 456 353 q 361 393 380 393 q 271 328 298 393 q 263 293 263 307 m 515 1012 q 777 943 651 1012 q 971 747 903 873 q 1039 486 1039 621 q 971 221 1039 347 q 777 27 903 95 q 515 -41 651 -41 q 251 27 377 -41 q 57 221 125 95 q -11 486 -11 347 q 57 747 -11 621 q 251 943 125 873 q 515 1012 377 1012 z "},"":{"ha":1063,"x_min":-3,"x_max":1058,"o":"m 488 247 q 464 195 488 195 q 420 163 420 187 l 420 157 q 448 133 420 141 q 461 133 450 133 l 716 133 q 757 149 746 133 l 760 157 l 760 163 q 713 195 760 190 q 694 214 694 203 q 692 228 692 214 l 692 298 l 694 301 l 757 301 q 787 320 781 301 l 787 334 q 765 353 781 353 l 760 353 l 694 353 l 692 355 l 692 819 q 684 865 692 865 l 670 868 l 613 868 q 572 846 583 868 q 488 727 494 741 l 488 247 m 184 334 l 184 328 q 201 301 184 307 q 225 296 212 296 l 429 296 l 429 353 l 250 353 l 247 353 l 247 353 l 429 600 l 429 681 q 193 363 206 385 q 184 334 184 345 m 529 1009 q 792 941 665 1009 q 989 746 920 873 q 1058 480 1058 618 q 989 214 1058 342 q 792 19 920 87 q 529 -49 665 -49 q 263 19 391 -49 q 66 214 136 87 q -3 480 -3 342 q 66 746 -3 618 q 263 941 136 873 q 529 1009 391 1009 z "},"":{"ha":1050,"x_min":-3,"x_max":1053,"o":"m 358 849 l 345 675 l 345 675 q 477 665 407 665 q 656 700 602 665 q 765 825 738 749 q 770 846 770 841 q 627 822 719 822 l 613 822 q 358 849 518 822 m 336 627 q 323 480 323 494 q 350 456 323 461 l 353 456 q 407 483 361 456 q 475 505 439 499 l 475 572 l 472 572 q 374 521 426 562 l 372 518 l 372 521 l 372 521 l 380 618 l 380 618 l 336 627 m 551 581 l 551 505 q 597 467 586 494 q 605 412 605 442 l 605 269 q 564 174 605 190 l 553 171 l 553 111 l 564 111 q 741 168 665 111 q 817 350 817 236 q 659 567 817 510 q 551 581 608 581 m 293 271 q 412 127 293 182 q 486 114 458 114 l 488 111 l 488 168 q 475 171 488 171 q 439 195 439 179 q 464 222 439 198 q 488 288 488 252 q 431 369 488 339 q 393 377 412 377 q 301 312 328 377 q 293 271 293 290 m 524 1012 q 788 944 662 1012 q 983 749 914 876 q 1053 486 1053 621 q 983 221 1053 347 q 788 27 914 95 q 524 -41 662 -41 q 260 27 388 -41 q 65 221 133 95 q -3 486 -3 347 q 65 749 -3 621 q 260 944 133 876 q 524 1012 388 1012 z "},"":{"ha":1050,"x_min":-3,"x_max":1050,"o":"m 206 486 q 293 201 206 309 q 410 122 355 138 q 464 111 445 111 l 464 165 q 445 171 464 165 q 420 222 420 179 l 420 727 q 464 798 420 781 q 475 800 475 800 l 475 852 l 472 852 q 274 732 369 852 q 206 486 206 632 m 562 852 l 562 800 q 586 795 562 800 q 610 770 610 784 l 610 765 q 583 722 610 754 q 567 678 567 700 q 629 618 567 646 q 656 613 643 613 l 670 613 q 751 651 724 613 q 765 697 765 670 q 670 827 765 776 q 562 852 616 852 m 526 469 l 526 410 l 529 410 q 570 423 551 423 l 575 423 q 605 374 605 415 l 605 220 q 578 171 605 182 q 564 165 564 165 l 564 111 l 570 111 q 754 187 675 111 q 811 331 817 266 q 749 464 819 404 q 637 502 694 502 q 526 469 583 502 m 524 1017 q 785 948 659 1017 q 981 753 911 879 q 1050 491 1050 627 q 981 227 1050 353 q 785 33 911 100 q 524 -35 659 -35 q 259 33 385 -35 q 65 227 133 100 q -3 491 -3 353 q 65 753 -3 627 q 259 948 133 879 q 524 1017 385 1017 z "},"":{"ha":1044,"x_min":0,"x_max":1047,"o":"m 358 760 l 358 760 l 363 819 l 328 819 l 328 819 l 296 602 l 334 602 l 334 616 q 382 678 334 678 q 562 651 415 678 l 591 651 q 735 741 697 651 q 751 798 751 776 q 732 819 746 819 q 705 795 724 819 q 689 787 694 787 q 589 817 673 787 q 507 833 543 833 q 358 760 431 833 m 589 570 q 483 445 589 553 q 401 252 401 347 l 401 252 q 475 122 401 160 q 513 117 494 117 q 591 152 559 117 q 624 239 624 184 q 608 363 624 266 l 608 382 l 608 391 q 654 586 608 488 l 654 586 q 589 570 613 570 m 524 1009 q 785 941 659 1009 q 979 749 911 873 q 1047 488 1047 624 q 979 225 1047 350 q 785 33 911 100 q 524 -35 659 -35 q 262 33 388 -35 q 68 225 136 100 q 0 488 0 350 q 68 749 0 624 q 262 941 136 873 q 524 1009 388 1009 z "},"":{"ha":1061,"x_min":-3,"x_max":1061,"o":"m 260 648 q 407 486 260 524 l 407 486 q 320 448 345 467 q 241 304 241 391 l 241 288 q 336 141 241 193 q 483 117 401 117 l 483 168 q 450 209 461 168 l 450 222 l 450 407 q 483 458 450 445 l 483 513 q 456 534 472 513 q 450 564 450 551 l 450 722 q 472 776 450 765 l 483 781 l 483 830 q 350 800 415 830 q 260 648 260 746 m 575 830 l 575 781 q 602 754 602 768 q 610 705 610 719 l 610 572 q 594 524 600 524 q 575 513 583 513 l 575 458 q 597 442 594 448 q 610 396 610 418 l 610 236 q 583 171 610 179 l 578 168 l 578 117 q 730 146 662 117 q 817 296 817 198 q 713 461 817 407 q 651 486 692 472 l 651 486 q 719 513 694 499 q 798 648 798 559 q 705 803 798 749 q 575 830 643 830 m 529 1015 q 796 945 667 1015 q 993 749 925 876 q 1061 483 1061 621 q 993 216 1061 345 q 796 19 925 87 q 529 -49 667 -49 q 263 19 391 -49 q 66 216 136 87 q -3 483 -3 345 q 66 749 -3 621 q 263 945 136 876 q 529 1015 391 1015 z "},"":{"ha":1053,"x_min":3,"x_max":1055,"o":"m 529 1017 q 793 949 667 1017 q 987 755 920 882 q 1055 491 1055 629 q 987 229 1055 355 q 793 35 920 103 q 529 -33 667 -33 q 267 35 393 -33 q 72 229 141 103 q 3 491 3 355 q 72 755 3 629 q 267 949 141 882 q 529 1017 393 1017 m 827 483 q 738 765 827 659 q 621 844 678 830 q 570 857 586 857 l 570 803 q 589 795 570 800 q 613 746 613 787 l 613 241 q 567 171 613 187 q 559 165 559 168 l 559 117 l 559 117 q 757 233 665 117 q 827 483 827 334 m 480 111 l 480 163 q 456 168 480 165 q 434 193 434 179 l 434 198 q 461 241 434 209 q 475 285 475 263 q 415 345 475 317 q 385 350 401 350 l 374 350 q 293 315 320 350 q 277 266 277 293 q 374 138 277 187 q 480 111 429 111 m 529 499 l 529 559 l 526 559 q 486 545 502 545 l 480 545 q 448 594 448 551 l 450 749 q 477 798 450 787 q 491 803 491 800 l 491 857 l 486 857 q 301 781 380 857 q 247 637 239 700 q 307 502 236 562 q 418 467 361 467 q 529 499 472 467 z "},"":{"ha":1196,"x_min":401,"x_max":811,"o":"m 811 955 l 808 930 l 808 906 l 781 906 q 689 876 713 906 l 675 852 l 675 827 l 675 651 l 675 475 l 675 298 l 675 119 q 749 52 681 68 l 781 46 l 808 46 l 808 -5 l 746 -5 q 616 -5 686 -5 l 543 -5 l 472 -5 l 401 -5 l 401 46 l 426 49 l 464 52 q 524 84 494 52 l 534 117 l 534 296 l 534 477 l 534 656 l 534 836 q 500 888 529 876 q 434 901 472 901 q 401 901 420 901 l 401 928 l 401 955 l 453 955 l 505 955 l 556 955 l 605 955 l 656 955 l 708 955 l 760 955 l 811 955 z "},"":{"ha":1253,"x_min":-3,"x_max":814,"o":"m 0 985 l 103 985 l 203 985 l 307 985 l 407 985 l 610 985 l 711 985 l 814 985 l 814 930 l 768 930 l 722 930 q 667 841 667 914 l 667 667 l 667 491 l 667 317 l 667 231 l 667 144 q 811 49 694 52 l 811 0 l 708 0 l 608 0 l 505 0 l 404 0 l 304 0 l 201 0 l 100 0 l -3 0 l -3 60 q 113 84 81 54 q 144 174 144 114 l 144 288 l 144 401 l 144 515 l 144 627 l 144 670 q 144 779 144 711 l 144 846 q 113 914 146 887 q 0 936 79 941 l 0 985 m 290 849 l 290 765 l 290 678 l 290 505 l 290 334 l 290 247 l 290 163 l 290 141 l 293 122 q 366 57 296 79 l 434 57 q 521 144 521 71 l 521 233 l 521 320 l 521 407 l 521 494 l 521 670 l 521 757 l 521 844 q 464 928 524 911 l 366 928 q 290 849 290 928 z "},"":{"ha":1299,"x_min":0,"x_max":1169,"o":"m 0 936 l 146 936 l 290 936 l 437 936 l 581 936 l 724 936 l 871 936 l 1015 936 l 1161 936 q 1169 928 1169 936 l 1169 892 q 1082 871 1169 887 q 1039 817 1039 844 l 1039 692 l 1039 564 l 1039 488 q 1039 269 1039 410 l 1036 130 q 1112 57 1050 60 l 1166 57 l 1166 0 l 1020 0 l 876 0 l 730 0 l 583 0 l 437 0 l 293 0 l 146 0 l 0 0 l 0 30 l 0 62 l 68 65 q 130 187 141 106 l 130 347 l 130 507 l 130 665 l 130 746 l 130 825 q 68 879 117 873 l 33 879 l 0 879 l 0 906 l 0 936 m 269 822 l 269 659 l 269 496 l 269 334 l 269 171 q 342 57 269 81 l 439 57 q 518 176 529 76 l 518 258 l 518 339 l 518 420 l 518 502 l 518 583 l 518 624 l 518 665 l 518 746 l 518 827 q 442 882 518 876 l 358 882 q 269 822 269 879 m 659 819 l 659 732 l 659 643 l 656 556 l 656 467 l 656 377 l 656 290 l 656 201 l 656 111 q 727 52 667 65 l 811 52 q 901 130 901 68 l 901 298 l 901 469 l 901 637 l 901 808 q 822 884 895 873 l 754 884 q 659 819 673 884 z "},"":{"ha":1687,"x_min":0,"x_max":1449,"o":"m 1446 971 l 1446 941 l 1446 914 l 1392 911 q 1283 833 1310 911 l 1207 643 l 1131 450 l 1055 258 l 977 81 l 1093 81 l 1213 81 l 1332 81 l 1449 81 l 1449 0 l 1359 0 l 1267 0 l 1177 0 l 1088 0 l 996 0 l 906 0 l 814 0 l 724 0 l 635 0 l 543 0 l 453 0 l 363 0 l 271 0 l 182 0 l 90 0 l 0 0 l 0 71 l 84 76 q 136 212 141 106 l 136 374 l 136 534 l 136 697 l 136 779 l 136 857 q 62 911 127 903 l 0 911 l 0 941 l 0 971 l 182 971 l 361 971 l 543 971 l 722 971 l 903 971 l 1085 971 l 1264 971 l 1446 971 m 274 838 l 274 662 l 274 488 l 274 312 l 274 136 q 320 79 274 109 l 439 79 l 562 79 l 684 79 l 806 79 l 730 279 l 651 480 l 572 681 l 532 781 l 494 882 q 381 916 488 914 q 274 838 274 917 m 665 876 q 757 632 700 770 l 814 494 l 871 355 l 925 217 l 1047 502 l 1107 646 l 1169 789 q 1191 854 1191 836 l 1191 873 q 1150 911 1185 911 l 1039 911 l 928 911 l 817 911 l 705 911 q 665 876 665 911 z "},"":{"ha":1332,"x_min":0,"x_max":1066,"o":"m 0 947 l 133 947 l 266 947 l 399 947 l 532 947 l 662 947 l 795 947 l 928 947 l 1061 947 l 1061 895 l 998 892 q 901 792 933 890 l 849 656 l 822 591 q 751 410 795 524 l 705 296 l 659 179 l 613 65 l 670 65 l 727 65 l 784 65 l 838 65 l 952 65 l 1009 65 l 1066 65 l 1066 0 l 933 0 l 800 0 l 667 0 l 534 0 l 401 0 l 269 0 l 136 0 l 68 0 l 0 0 l 0 62 l 57 62 l 114 62 l 171 62 l 228 62 l 285 62 l 342 62 l 399 62 l 456 62 l 418 160 l 377 260 l 339 361 l 298 458 l 220 659 l 182 757 l 141 857 q 0 901 111 909 l 0 947 m 317 830 l 377 675 l 439 521 l 499 366 l 562 212 l 570 212 l 632 366 l 694 521 l 757 675 l 789 751 l 819 830 q 776 890 833 890 l 670 890 l 562 890 l 456 890 l 347 890 q 317 830 304 882 z "},"":{"ha":1449,"x_min":-3,"x_max":1451,"o":"m 3 966 l 182 966 l 363 966 l 545 966 l 727 966 l 909 966 l 1090 966 l 1270 966 l 1451 966 l 1451 903 q 1318 808 1329 901 l 1318 659 l 1318 496 l 1318 334 l 1318 174 q 1451 92 1316 81 l 1451 0 l 1256 0 l 1077 0 l 898 0 l 716 0 l 537 0 l 358 0 l 176 0 l -3 0 l -3 81 l 236 81 l 355 81 l 475 81 l 410 244 l 342 410 l 277 575 q 160 819 212 724 q 0 895 136 901 l 3 966 m 315 846 q 358 724 328 795 l 388 665 l 420 594 l 450 521 l 480 450 l 510 377 l 540 304 l 570 233 l 600 307 l 632 382 l 692 532 l 743 667 l 773 743 l 803 817 l 811 854 q 768 884 798 884 l 665 884 l 562 884 l 458 884 l 358 884 q 315 846 315 884 m 624 87 l 743 87 l 865 87 l 987 87 l 1047 87 l 1107 87 q 1169 182 1169 114 l 1169 336 l 1169 491 l 1169 648 l 1169 789 q 1074 879 1169 854 q 903 784 941 884 l 868 694 l 833 621 l 803 532 l 768 442 l 732 353 l 694 263 l 659 174 l 624 87 z "},"":{"ha":1750,"x_min":-3,"x_max":1752,"o":"m 1750 944 l 1750 876 l 1674 876 q 1617 808 1617 868 l 1617 637 l 1617 553 l 1617 469 l 1617 301 l 1617 130 q 1660 62 1617 84 l 1752 62 l 1752 -3 l 1533 -3 l 1313 -3 l 1096 -3 l 876 -3 l 656 -3 l 437 -3 l 217 -3 l -3 -3 l -3 71 l 114 71 l 228 71 l 345 71 l 458 71 l 420 163 l 382 255 l 345 347 l 309 439 l 271 529 l 233 618 l 195 713 l 157 806 q 0 882 106 892 l 0 944 l 217 944 l 328 944 l 437 944 l 656 944 l 873 944 l 1093 944 l 1313 944 l 1530 944 l 1750 944 m 320 825 l 350 749 l 380 673 l 410 594 l 442 518 l 472 442 l 502 363 l 534 288 l 564 212 l 594 288 l 627 363 l 656 442 l 689 518 l 719 594 l 751 670 l 781 746 l 814 825 q 776 887 833 884 l 670 887 l 564 887 l 458 887 l 353 887 q 320 825 296 890 m 1232 798 l 1232 635 l 1232 469 l 1232 307 l 1232 141 q 1310 62 1232 84 l 1411 62 q 1476 130 1476 81 l 1476 217 l 1476 304 l 1478 477 l 1478 648 l 1481 822 q 1400 879 1465 879 l 1310 882 q 1232 798 1232 871 m 627 71 l 732 71 l 841 71 l 947 71 l 1053 71 q 1099 160 1099 90 l 1099 317 l 1099 475 l 1099 635 l 1099 792 q 982 873 1101 879 q 909 803 925 857 l 838 618 l 768 437 l 697 255 l 627 71 z "},"":{"ha":1709,"x_min":-3,"x_max":1714,"o":"m -3 985 l 214 985 l 429 985 l 643 985 l 857 985 l 1072 985 l 1286 985 l 1500 985 l 1714 985 l 1709 895 l 1706 895 q 1595 822 1611 895 l 1595 648 l 1592 502 l 1592 326 l 1592 152 q 1666 81 1611 81 l 1709 76 l 1706 0 l 1492 0 l 1278 3 l 1066 3 l 852 3 l 637 3 l 426 3 l 212 3 l -3 3 l -3 81 l 98 81 l 195 81 l 293 81 l 393 81 l 366 165 l 339 250 l 282 415 l 231 556 q 122 860 176 724 q -3 892 68 903 l -3 985 m 269 852 l 323 686 l 380 524 l 431 388 l 488 225 l 537 366 l 591 499 l 640 624 q 705 830 689 765 l 705 860 q 667 890 692 890 l 578 890 l 488 890 l 399 890 l 307 890 q 269 852 269 890 m 901 81 q 955 152 955 111 l 955 326 l 955 502 l 955 648 l 955 822 q 903 892 955 871 l 849 890 q 757 727 806 871 q 635 385 732 665 l 589 233 l 540 81 l 629 81 l 722 81 l 811 81 l 901 81 m 1074 822 l 1074 646 l 1072 499 l 1072 323 l 1072 146 q 1137 81 1072 103 l 1156 81 q 1218 165 1204 81 l 1218 339 l 1218 505 l 1218 659 l 1218 830 q 1175 892 1196 890 l 1131 895 q 1074 822 1074 871 m 1337 817 l 1337 643 l 1335 499 l 1335 326 l 1335 152 q 1400 81 1335 103 l 1419 81 q 1476 160 1478 100 l 1476 334 l 1478 502 l 1478 656 l 1478 830 q 1424 890 1454 890 l 1392 890 q 1337 817 1337 873 z "},"":{"ha":1286,"x_min":-3,"x_max":1308,"o":"m 1297 960 l 1297 901 l 1259 898 q 1109 798 1175 892 l 1039 700 l 971 602 l 903 502 l 963 404 l 1025 304 l 1085 206 l 1147 109 q 1308 60 1204 60 l 1308 -3 l 1226 -3 l 1145 -3 l 1061 -3 l 979 -3 l 898 -3 l 817 -3 l 735 -3 l 651 -3 l 570 -3 l 488 -3 l 407 -3 l 326 -3 l 244 -3 l 160 -3 l 79 -3 l -3 -3 l 0 60 l 73 60 q 133 165 133 79 l 136 244 q 136 494 136 374 l 133 610 l 133 730 l 133 849 q 49 906 119 909 l 0 906 l 0 960 l 81 960 l 163 960 l 244 960 l 323 960 l 404 960 l 486 960 l 567 960 l 648 960 l 730 960 l 811 960 l 892 960 l 974 960 l 1055 960 l 1134 960 l 1215 960 l 1297 960 m 274 833 l 274 746 l 274 659 l 274 570 l 274 483 l 274 396 l 274 307 l 274 220 l 274 133 q 342 62 293 62 l 412 68 q 556 182 488 87 l 621 277 l 689 369 l 757 464 l 697 551 l 640 640 l 583 727 q 491 868 526 817 q 326 895 461 911 q 274 833 274 873 m 689 844 l 727 779 l 768 713 l 849 586 l 895 651 l 941 719 l 987 784 l 1034 849 q 996 898 1034 898 l 930 898 l 863 898 l 798 898 l 732 898 q 689 844 689 898 m 795 380 l 751 317 l 708 255 l 662 193 l 618 130 l 600 92 q 635 68 608 68 l 705 68 l 776 68 l 846 68 l 917 68 q 960 109 960 68 l 920 176 l 879 244 l 836 312 l 795 380 z "},"":{"ha":960,"x_min":0,"x_max":966,"o":"m 0 966 l 122 966 l 182 966 l 241 966 l 361 966 l 480 966 l 602 966 l 722 966 l 841 966 l 901 966 l 960 966 l 960 906 l 925 906 q 830 876 871 909 l 762 781 l 697 686 l 629 591 l 562 496 l 610 415 l 659 334 l 708 252 q 819 98 754 171 q 928 68 868 68 l 955 68 q 966 60 966 68 l 966 0 l 846 0 l 724 0 l 605 0 l 483 0 l 363 0 l 241 0 l 122 0 l 0 0 l 0 68 l 38 68 q 193 165 119 65 l 228 217 l 266 266 l 336 366 l 410 469 l 353 559 l 296 651 l 239 741 q 133 882 190 836 q 0 906 81 911 l 0 966 m 353 841 l 380 789 l 420 722 l 458 656 l 496 591 l 545 654 l 594 719 l 643 784 l 692 849 q 696 884 708 865 q 643 903 684 903 l 583 903 l 524 903 l 464 903 l 404 903 q 353 841 334 901 m 456 391 l 407 328 l 358 263 l 309 201 q 258 109 258 136 l 258 98 q 298 71 258 68 l 369 71 l 439 71 l 510 71 l 581 71 q 635 109 637 68 q 583 212 624 149 l 540 271 l 499 331 l 456 391 z "},"":{"ha":1286,"x_min":-3,"x_max":1291,"o":"m -3 966 l 79 966 l 160 966 l 323 966 l 483 966 l 646 966 l 808 966 l 968 966 l 1050 966 l 1131 966 l 1213 966 l 1291 966 l 1291 906 q 1161 833 1161 898 l 1161 659 l 1161 483 l 1161 307 l 1161 133 q 1218 60 1161 76 l 1289 60 l 1289 0 l 1126 0 l 966 0 l 806 0 l 646 0 l 483 0 l 323 0 l 163 0 l 0 0 l 0 60 l 68 60 q 149 100 111 62 l 214 198 l 279 293 l 345 388 l 377 437 l 407 488 l 350 575 l 323 618 l 293 665 l 233 754 l 206 798 l 190 822 l 176 844 q 98 892 160 890 l -3 892 l -3 966 m 922 898 q 806 827 836 898 l 743 746 l 684 665 l 621 583 l 562 502 l 589 456 l 618 410 l 673 315 l 730 222 l 787 127 q 857 68 819 73 l 914 68 l 971 68 q 1020 133 1028 76 l 1020 307 l 1020 393 l 1020 480 l 1020 651 l 1020 738 l 1020 825 q 922 898 1020 895 m 350 825 l 429 705 l 469 646 l 507 586 l 556 648 l 602 711 l 651 770 l 697 833 q 659 898 722 887 l 591 898 l 526 898 l 461 898 l 429 898 l 396 898 q 350 825 312 898 m 458 380 l 369 260 l 347 231 l 326 198 q 274 118 279 138 q 278 83 269 98 q 315 68 288 68 l 572 68 q 621 98 610 68 l 613 130 l 575 193 l 537 255 l 496 317 l 458 380 z "},"":{"ha":1687,"x_min":0,"x_max":1690,"o":"m 0 966 l 106 966 l 212 966 l 317 966 l 423 966 l 529 966 l 632 966 l 738 966 l 844 966 l 949 966 l 1055 966 l 1161 966 l 1267 966 l 1373 966 l 1478 966 l 1584 966 l 1690 966 l 1687 909 l 1633 906 q 1563 833 1563 898 l 1563 659 l 1563 483 l 1563 396 l 1563 307 l 1563 133 q 1649 60 1584 60 l 1690 60 l 1690 0 l 1584 0 l 1478 0 l 1375 0 l 1270 0 l 1164 0 l 1061 0 l 955 0 l 849 0 l 746 0 l 640 0 l 534 0 l 431 0 l 377 0 l 326 0 l 220 0 l 117 0 l 0 0 l 0 54 l 71 68 q 225 206 160 122 l 288 290 l 353 374 l 415 458 l 388 505 l 374 526 l 361 548 l 304 637 l 250 727 l 222 773 q 138 879 195 817 q 73 901 114 903 l 0 901 l 0 966 m 906 906 q 806 841 838 898 l 746 754 l 684 670 l 624 583 l 562 496 l 608 418 l 656 339 l 703 260 q 819 98 749 182 q 1009 65 876 52 q 1063 165 1069 87 l 1063 250 l 1063 331 l 1063 499 l 1063 665 l 1063 746 l 1063 830 q 982 906 1063 901 l 906 906 m 1202 825 l 1202 654 l 1202 483 l 1202 312 l 1202 141 q 1289 60 1202 76 l 1351 60 q 1421 144 1411 76 l 1424 244 l 1424 345 l 1424 423 l 1424 502 q 1421 849 1424 624 q 1343 906 1405 901 l 1294 906 q 1202 825 1202 892 m 342 854 l 377 784 l 418 711 l 448 670 l 477 627 l 507 586 l 602 719 l 651 787 l 700 854 l 700 857 q 659 898 694 898 l 591 898 l 526 898 l 458 898 l 391 898 q 342 854 353 898 m 263 111 q 298 68 258 76 l 334 68 l 369 68 l 439 68 l 513 68 l 583 68 q 627 111 627 76 l 583 179 l 543 247 l 502 315 l 458 380 l 410 315 l 361 247 l 312 179 l 263 111 z "},"":{"ha":1053,"x_min":-5,"x_max":1055,"o":"m 469 -30 q 433 675 486 456 q 225 922 380 895 q 164 897 193 922 q 119 845 136 871 q 103 770 103 819 q 118 686 103 719 q 161 629 133 654 q 220 605 190 605 q 279 629 252 605 q 315 643 296 643 q 350 613 331 643 q 366 594 366 605 q 336 556 369 572 q 222 524 282 524 q 107 555 163 524 q 23 646 52 586 q -5 770 -5 705 q 23 894 -5 836 q 107 985 52 952 q 222 1017 163 1017 q 486 800 382 1017 q 529 656 510 738 q 572 800 545 738 q 825 1017 665 1017 q 940 985 884 1017 q 1025 894 996 952 q 1055 770 1055 836 q 1025 646 1055 705 q 940 555 996 586 q 825 524 884 524 q 700 562 765 524 q 675 600 675 583 q 692 618 675 608 q 724 654 711 648 q 760 640 746 654 q 825 605 795 605 q 886 629 857 605 q 929 686 914 654 q 944 770 944 719 q 929 863 944 819 q 882 914 914 906 q 819 922 849 922 q 633 688 703 928 q 578 -30 564 448 l 469 -30 z "},"":{"ha":941,"x_min":-3,"x_max":947,"o":"m 323 312 q 340 187 323 244 q 393 100 358 130 q 464 71 429 71 q 536 100 502 71 q 589 187 570 130 q 608 312 608 244 q 589 429 608 372 q 536 515 570 486 q 464 545 502 545 q 393 515 429 545 q 340 429 358 486 q 323 312 323 372 m 629 597 q 743 475 703 553 q 784 307 784 393 q 743 130 784 212 q 627 5 703 49 q 469 -38 551 -38 q 315 5 391 -38 q 198 130 239 49 q 157 307 157 212 q 198 475 157 393 q 312 597 239 553 q 198 681 239 627 q 157 792 157 732 q 137 875 157 838 q 77 930 117 911 q -3 949 38 949 l -3 1023 q 152 994 76 1023 q 269 911 228 966 q 309 808 309 857 q 330 734 309 770 q 389 678 350 697 q 469 659 429 659 q 552 678 513 659 q 613 734 591 697 q 635 808 635 770 q 674 911 635 857 q 789 994 713 966 q 947 1023 865 1023 l 947 949 q 864 930 903 949 q 804 875 825 911 q 784 792 784 838 q 743 681 784 732 q 629 597 703 627 z "},"":{"ha":1134,"x_min":0,"x_max":1139,"o":"m 426 195 q 570 203 494 203 q 713 195 646 203 l 713 792 q 570 784 646 784 q 426 792 494 784 l 426 195 m 857 165 q 1069 62 990 127 q 1139 -30 1115 30 l 960 -30 q 570 90 811 90 q 176 -30 323 90 l 0 -30 q 76 68 24 30 q 282 165 149 127 l 282 819 q 62 922 149 860 q 0 1015 22 958 l 174 1015 q 570 895 323 895 q 963 1015 814 895 l 1139 1015 q 1074 922 1118 958 q 857 819 990 860 l 857 165 z "},"":{"ha":1386,"x_min":11,"x_max":1375,"o":"m 146 515 q 159 431 146 472 q 197 369 171 391 q 250 347 222 347 q 301 369 277 347 q 339 431 326 391 q 353 515 353 472 q 339 602 353 562 q 301 665 326 643 q 250 686 277 686 q 197 665 222 686 q 159 602 171 643 q 146 515 146 562 m 1172 681 q 1082 827 1142 781 q 692 920 949 920 q 269 776 431 920 q 366 743 320 768 q 461 646 429 708 q 494 515 494 583 q 461 384 494 448 q 368 286 429 320 q 252 250 307 252 q 123 288 174 252 q 43 378 73 323 q 11 572 14 434 q 206 884 30 757 q 665 1023 382 1012 q 1180 895 1004 1012 q 1340 678 1283 819 l 1172 681 m 1234 464 q 1222 551 1234 510 q 1184 613 1210 591 q 1131 637 1158 635 q 1078 613 1104 635 q 1040 551 1053 591 q 1028 464 1028 510 q 1035 387 1028 420 q 1073 324 1042 353 q 1142 296 1104 296 q 1184 317 1158 296 q 1222 380 1210 339 q 1234 464 1234 420 m 155 326 q 336 144 255 193 q 708 54 450 46 q 1101 203 968 46 q 1004 236 1053 212 q 911 334 944 271 q 879 464 879 396 q 911 597 879 534 q 1005 693 944 659 q 1131 727 1066 727 q 1257 693 1196 727 q 1347 579 1318 659 q 1367 407 1375 499 q 1187 95 1329 217 q 703 -49 1044 -27 q 203 84 366 -38 q 22 290 114 146 l 155 326 z "},"":{"ha":911,"x_min":-5,"x_max":920,"o":"m 122 486 q 136 404 122 442 q 174 345 149 366 q 225 323 198 323 q 274 345 250 323 q 312 404 298 366 q 326 486 326 442 q 312 566 326 526 q 274 625 298 605 q 225 646 250 646 q 174 625 198 646 q 136 566 149 605 q 122 486 122 526 m 431 605 q 464 480 464 545 q 433 355 464 415 q 346 263 401 296 q 228 231 290 231 q 113 263 168 231 q 26 355 57 296 q -5 480 -5 415 q 26 605 -5 545 q 113 697 57 665 q 228 730 168 730 q 269 727 250 730 l 269 735 q 349 936 269 854 q 594 1017 429 1017 q 838 936 757 1017 q 920 735 920 854 q 749 437 920 616 q 589 174 578 258 q 613 72 583 84 q 684 60 643 60 q 781 76 746 60 q 834 127 817 92 q 857 209 852 163 l 911 209 l 911 -46 l 863 -46 q 849 -14 857 -22 q 827 -5 841 -5 q 765 -26 808 -5 q 654 -46 722 -46 q 525 15 578 -46 q 472 165 472 76 q 639 487 472 293 q 806 762 806 681 q 758 860 806 814 q 594 909 711 906 q 427 861 475 909 q 380 735 380 814 q 397 670 380 700 q 431 605 415 640 z "},"":{"ha":1226,"x_min":-3,"x_max":1229,"o":"m 846 499 l 846 136 q 1015 228 947 144 q 1072 388 1072 298 q 1006 597 1072 499 q 977 629 993 616 l 846 499 m 724 119 q 719 201 719 157 l 719 773 q 713 842 719 817 q 696 880 708 868 q 670 892 684 892 l 532 754 q 537 659 537 711 l 537 165 l 418 165 l 418 773 q 412 842 418 817 q 395 880 407 868 q 369 892 382 892 l 231 776 q 236 659 236 711 l 236 165 l -3 165 l -3 222 l 27 222 q 92 256 68 222 q 117 320 117 290 l 117 808 q 111 917 117 890 q 94 955 106 944 q 68 966 81 966 l 68 1015 q 182 949 138 1004 q 212 898 198 928 l 328 1015 l 369 1015 q 483 949 437 1004 q 513 898 499 928 l 629 1015 l 670 1015 q 784 949 738 1004 q 838 741 838 882 l 838 648 l 1004 814 q 1115 716 1063 773 q 1229 412 1229 594 q 1112 109 1229 233 q 846 -11 1006 -3 q 849 -46 846 -35 q 865 -76 857 -68 q 890 -92 873 -84 l 887 -141 q 773 -76 819 -130 q 730 -3 743 -43 q 513 149 640 19 q 494 179 499 165 l 507 266 q 724 119 621 141 z "},"":{"ha":1261,"x_min":0,"x_max":1267,"o":"m 0 228 l 0 342 l 228 342 q 198 532 198 426 q 317 875 198 735 q 632 1015 437 1015 q 949 875 830 1015 q 1069 532 1069 735 q 1036 342 1069 426 l 1267 342 l 1267 228 l 822 228 q 869 334 830 236 q 909 532 909 431 q 838 776 909 673 q 640 879 768 879 q 431 776 507 879 q 355 532 355 673 q 395 334 355 431 q 448 222 434 236 l 0 228 m 0 76 l 1267 76 l 1267 -38 l 0 -38 l 0 76 m 445 222 q 410 146 439 176 q 351 88 380 103 q 241 62 323 73 l 212 62 q 62 130 125 62 q 0 228 19 165 q 445 222 212 290 m 1267 236 q 1234 144 1264 174 q 1175 95 1204 117 q 1066 60 1145 73 l 1036 60 q 887 130 949 62 q 825 228 844 163 q 1267 236 1036 290 z "},"":{"ha":1207,"x_min":-3,"x_max":1237,"o":"m 670 233 l 670 743 q 665 849 670 825 q 648 883 659 873 q 624 892 637 892 l 494 765 q 502 727 502 773 l 502 233 l 391 233 l 391 743 q 385 849 391 825 q 369 883 380 873 q 345 892 358 892 l 214 765 q 222 678 222 727 l 222 233 l -3 233 l -3 298 l 24 298 q 87 330 65 298 q 109 388 109 361 l 109 800 q 104 906 109 882 q 88 941 100 930 q 62 952 76 952 l 62 1020 q 171 960 127 1012 q 198 911 187 939 l 307 1020 l 345 1020 q 450 960 410 1012 q 477 911 467 939 l 586 1020 l 624 1020 q 730 960 689 1012 q 781 765 781 895 l 781 258 q 796 176 781 206 q 841 121 811 146 q 903 95 871 95 l 1015 95 q 873 290 936 163 l 928 290 q 1237 8 1066 119 q 928 -214 1072 -49 l 873 -214 q 1015 -19 944 -90 l 903 -19 q 785 14 841 -19 q 700 106 730 46 q 670 233 670 165 z "},"":{"ha":1137,"x_min":-3,"x_max":1150,"o":"m 426 239 l 103 -81 l -3 24 l 317 345 l 90 564 l 203 678 l 429 458 l 792 830 q 488 865 686 811 l 589 952 q 1150 1063 928 952 q 1039 502 1039 838 l 936 439 q 898 746 882 635 l 537 353 l 765 117 l 654 3 l 426 239 z "},"":{"ha":1270,"x_min":3,"x_max":1286,"o":"m 911 418 q 926 332 911 374 q 967 267 941 290 q 1020 244 993 244 q 1076 267 1050 244 q 1116 332 1101 290 q 1131 418 1131 374 q 1116 506 1131 464 q 1076 571 1101 548 q 1020 594 1050 594 q 967 571 993 594 q 926 506 941 548 q 911 418 911 464 m 865 648 q 884 659 876 654 q 1017 697 949 697 q 1153 661 1088 697 q 1252 553 1218 624 q 1286 410 1286 483 q 1252 264 1286 334 q 1153 157 1218 195 q 1017 119 1088 119 q 884 157 949 119 q 833 198 857 174 q 754 84 803 136 q 431 -46 629 -46 q 157 84 282 -46 q 144 100 149 92 l 160 165 q 431 60 258 60 q 667 164 583 60 q 751 410 751 269 q 678 930 751 700 q 496 694 567 928 q 420 46 420 429 l 293 46 q 216 686 293 429 q 3 944 138 944 l 3 1025 q 307 762 193 1025 q 355 624 334 697 q 407 762 377 697 q 708 1025 521 1025 l 776 1025 q 865 648 844 860 z "},"":{"ha":1454,"x_min":-3,"x_max":1462,"o":"m -3 475 l 355 1025 l 543 675 l 768 1017 l 955 670 l 1177 1009 l 1408 621 l 1299 423 l 1123 749 l 901 407 l 713 754 l 491 415 l 304 762 l 103 477 l -3 475 m 11 -52 l 410 589 l 597 241 l 819 581 l 1006 233 l 1232 572 l 1462 174 l 1340 -49 l 1166 274 l 944 -65 l 754 282 l 532 -57 l 345 290 l 119 -57 l 11 -52 z "},"":{"ha":1196,"x_min":-3,"x_max":1207,"o":"m 374 545 q 247 849 363 708 q 152 924 214 887 q 35 960 90 960 l -3 960 l -3 1023 l 263 1023 q 320 974 293 998 q 526 545 513 789 l 678 545 q 884 974 692 789 q 941 1023 911 998 l 1207 1023 l 1207 960 l 1169 960 q 1055 925 1118 960 q 963 852 993 890 q 830 545 841 708 l 1169 545 l 1169 445 l 830 445 q 968 141 844 277 q 1053 68 998 106 q 1169 30 1118 30 l 1207 30 l 1207 -38 l 944 -38 q 887 11 914 -14 q 678 445 692 195 l 526 445 q 317 11 513 195 q 260 -38 290 -14 l -3 -38 l -3 30 l 35 30 q 157 68 90 30 q 241 138 212 106 q 374 445 361 277 l 35 445 l 35 545 l 374 545 z "}}}
